<?xml version="1.0" encoding="UTF-8"?>
<svg id="Layer_2" data-name="Layer 2" xmlns="http://www.w3.org/2000/svg" viewBox="0 0 274.82 745.86">
  <defs>
    <style>
      .cls-1 {
        fill: #ffa000;
      }
    </style>
  </defs>
  <g id="_ÎÓÈ_1" data-name="—ÎÓÈ_1">
    <g>
      <g>
        <path class="cls-1" d="M167.37,41.23c0,23.63-13.86,42.79-30.41,42.79s-29.52-19.16-29.52-42.79S113.19,0,136.97,0s30.41,17.6,30.41,41.23Z"/>
        <path class="cls-1" d="M109.18,39.54c-3.9-1.48-6.3-1.56-5.97,2.66.33,4.22,2.05,13.7,2.32,15.24.41,2.34,3.65,2.34,4.98-1.02,1.33-3.36-1.33-16.88-1.33-16.88Z"/>
        <path class="cls-1" d="M165.64,39.54c3.9-1.48,6.3-1.56,5.97,2.66-.33,4.22-2.05,13.7-2.32,15.24-.41,2.34-3.65,2.34-4.98-1.02-1.33-3.36,1.33-16.88,1.33-16.88Z"/>
      </g>
      <path class="cls-1" d="M160.27,63.13c0,16.36-.44,27.87,9.07,34.72,9.51,6.86,38.04,16.76,50.87,22.5,12.82,5.76,22.05,17.9,26.02,35.6,3.99,17.68,5.37,27.41,8.24,41.58,2.88,14.15,10.51,61.48,12.5,76.96,1.99,15.49,6.07,54.44,7.15,70.99,1.07,16.57.95,28.3-.58,35.77-1.53,7.47-17.29,26.91-19.78,28.91-2.48,2-12.06,1.78-8.37-8.78,3.7-10.55,5.76-15.06,3.95-24.91-1.26-6.87.65,5.56-2.3,12.66-1.6,3.86-8.78,3.47-6.77-6.04s-.47-25.61,3.75-30.44c4.22-4.82,6.3-6.35,6.17-12.55-.12-6.21-9.9-20.74-16.9-38.2-6.42-16.02-11.06-24.86-13.37-41.55-1.23-8.84-8.8-34.39-12.55-44.79-1.96-5.39-1.4,12.55.27,25.05,2.26,16.86,2.09,23.13,6.3,44.5,3.04,15.49,9.28,24.05,11.77,49.1,2.99,29.84,2.81,96.13-6.8,134.68-4.94,19.84-5.04,41.03-2.52,64.03,2.51,22.88-.6,39.24-3.12,61.03-2.47,21.32-12.38,53.47-15.54,74.98-3.46,23.63-8.65,39.86-4.01,48.71,4.64,8.84,15.03,15.7,16.37,20.57,1.33,4.86-5.76,6.18-11.95,6.18s-16.09,3.31-19.62,0c-3.55-3.31-13.72-13.71-13.28-22.33.45-8.63,2.44-11.94.68-15.03-1.78-3.11-3.73-14.32-4.05-21.52-1.17-25.21-15.32-62.37-15.98-78.28-1.59-37.82-1.94-57.12-2.16-63.54-.22-6.41-2.38-19.57-4.14-32.83-.61-4.63-1.4-14.55-2.17-26.31-.01-.01-.01-.04,0-.05-.78,11.78-1.57,21.74-2.18,26.36-1.77,13.27-3.92,26.43-4.14,32.83-.22,6.42-.58,25.71-2.16,63.54-.66,15.92-14.82,53.08-15.98,78.28-.32,7.2-2.29,18.41-4.05,21.52-1.77,3.09.22,6.41.66,15.03.44,8.63-9.73,19.02-13.27,22.33-3.53,3.31-13.43,0-19.63,0s-13.27-1.33-11.94-6.18c1.33-4.87,11.72-11.73,16.37-20.57,4.64-8.85-.56-25.08-4.03-48.71-3.14-21.52-13.06-53.66-15.53-74.98-2.53-21.79-5.63-38.15-3.12-61.03,2.51-23,2.42-44.19-2.52-64.03-9.61-38.55-9.78-104.84-6.81-134.68,2.49-25.05,8.73-33.61,11.78-49.1,4.2-21.37,4.03-27.64,6.3-44.5,1.68-12.5,2.22-30.44.27-25.05-3.75,10.39-11.32,35.95-12.55,44.79-2.33,16.7-6.95,25.53-13.38,41.55-6.99,17.46-16.77,31.99-16.9,38.2-.12,6.2,1.96,7.73,6.18,12.55,4.21,4.83,1.74,20.93,3.75,30.44,2,9.51-5.18,9.9-6.78,6.04-2.94-7.09-1.04-19.53-2.3-12.66-1.79,9.85.26,14.36,3.95,24.91,3.7,10.56-5.87,10.78-8.35,8.78-2.48-2-18.24-21.44-19.78-28.91-1.53-7.47-1.66-19.2-.58-35.77,1.08-16.55,5.16-55.51,7.15-70.99,1.99-15.47,9.61-62.81,12.49-76.96,2.88-14.16,4.26-23.89,8.24-41.58,3.99-17.7,13.2-29.84,26.02-35.6,12.84-5.74,41.36-15.64,50.87-22.5,9.51-6.85,9.07-18.36,9.07-34.72h45.73Z"/>
    </g>
  </g>
</svg>