<?xml version="1.0" encoding="UTF-8"?>
<svg id="Layer_2" data-name="Layer 2" xmlns="http://www.w3.org/2000/svg" viewBox="0 0 298.87 765.73">
  <defs>
    <style>
      .cls-1 {
        fill: #f4511e;
      }
    </style>
  </defs>
  <g id="_ÎÓÈ_1" data-name="—ÎÓÈ_1">
    <g>
      <g>
        <g>
          <path class="cls-1" d="M179.69,50.75c0,23.86-13.99,43.2-30.7,43.2s-29.81-19.34-29.81-43.2,5.81-41.63,29.81-41.63,30.7,17.77,30.7,41.63Z"/>
          <path class="cls-1" d="M120.94,49.05c-3.94-1.5-6.36-1.58-6.03,2.68.33,4.26,2.07,13.83,2.34,15.39.42,2.37,3.68,2.37,5.02-1.03,1.34-3.39-1.34-17.04-1.34-17.04Z"/>
          <path class="cls-1" d="M177.94,49.05c3.94-1.5,6.36-1.58,6.03,2.68-.33,4.26-2.07,13.83-2.34,15.39-.42,2.37-3.68,2.37-5.02-1.03-1.34-3.39,1.34-17.04,1.34-17.04Z"/>
        </g>
        <path class="cls-1" d="M175.37,59.79c0,16.52-.45,41.25,9.16,48.17,9.6,6.93,43.66,16.92,56.6,22.72,12.95,5.81,29.4,20.65,34.08,46.44,3.28,18.01,18.98,83.98,20.99,99.61,2.02,15.64.88,54.96,1.97,71.67,1.09,16.72.96,28.57-.59,36.11-1.55,7.54-17.46,27.17-19.97,29.19-2.51,2.02-12.16,1.8-8.43-8.87,3.73-10.65,5.81-15.2,3.99-25.15-1.27-6.94.64,5.61-2.32,12.78-1.61,3.9-8.87,3.5-6.83-6.1,2.03-9.6-.47-25.85,3.79-30.73,4.25-4.87,6.36-6.41,6.23-12.67-.13-6.27-12.62-20.94-19.69-38.57-6.49-16.17-8.54-25.09-10.89-41.95-1.23-8.92-19.36-25.15-23.17-35.64-1.97-5.44,1.21,12.67,2.91,25.29,2.28,17.03,8.24,14.2,14.23,35.36,4.77,16.91,6.74,24.28,9.26,49.57,3,30.13,5.46,115.42-4.24,154.34-5,20.03-7.71,36.18-5.17,59.4,2.52,23.1,1.78,40.02-3.15,61.61-5.09,22.22-9.38,51.28-13.07,75.7-3.59,23.85-14,40.24-9.3,49.18,4.68,8.92,15.18,15.85,16.52,20.77,1.34,4.91-5.8,6.24-12.06,6.24s-16.24,3.34-19.82,0c-3.57-3.34-13.84-13.84-13.39-22.55s2.45-12.06.67-15.18c-1.78-3.14-3.75-14.46-4.09-21.72-1.17-25.45-12.5-59.4-16.13-79.03-6.94-37.58-7.2-57.67-7.42-64.15-.22-6.47-2.4-19.76-4.18-33.15-.68-5.1-1.57-16.62-2.41-29.96-.84,13.34-1.72,24.86-2.41,29.96-1.78,13.39-3.96,26.68-4.18,33.15-.22,6.48-.47,26.56-7.42,64.15-3.63,19.64-14.95,53.59-16.13,79.03-.33,7.27-2.3,18.59-4.09,21.72-1.78,3.12.22,6.47.68,15.18.45,8.71-9.83,19.2-13.41,22.55-3.57,3.34-13.56,0-19.81,0s-13.41-1.34-12.07-6.24c1.35-4.92,11.85-11.85,16.53-20.77,4.68-8.93-5.71-25.33-9.3-49.18-3.69-24.42-7.99-53.48-13.07-75.7-4.93-21.59-5.68-38.51-3.15-61.61,2.54-23.22-.18-39.37-5.17-59.4-9.69-38.92-7.24-124.21-4.24-154.34,2.52-25.29,4.47-32.66,9.26-49.57,5.98-21.16,11.95-18.33,14.23-35.36,1.69-12.62,4.88-30.73,2.9-25.29-3.79,10.49-21.92,26.72-23.17,35.64-2.33,16.86-4.39,25.78-10.87,41.95-7.07,17.63-19.57,32.3-19.69,38.57-.13,6.26,1.97,7.81,6.23,12.67,4.26,4.88,1.76,21.13,3.79,30.73,2.03,9.6-5.22,10-6.83,6.1-2.98-7.16-1.05-19.72-2.32-12.78-1.82,9.94.25,14.49,3.99,25.15,3.73,10.66-5.94,10.89-8.45,8.87-2.51-2.02-18.42-21.64-19.97-29.19-1.55-7.54-1.67-19.39-.59-36.11,1.09-16.71-.04-56.04,1.97-71.67,2.01-15.62,17.71-81.6,20.99-99.61,4.7-25.79,21.15-40.63,34.09-46.44,12.95-5.8,47-15.79,56.6-22.72,9.6-6.91,9.16-31.65,9.16-48.17h51.85Z"/>
      </g>
      <path class="cls-1" d="M208.91,98.25c-32.6-4.95-73.46,5.94-109.85-.59,12.06-14.3,11.58-34.35,10.05-56.65C107.57,18.7,116.68,0,141.26,3.57c36.76-13.67,57.93,14.78,54.93,37.36-3,22.58-.33,37.42,12.73,57.33Z"/>
    </g>
  </g>
</svg>