<?xml version="1.0" encoding="UTF-8"?>
<svg id="Layer_2" data-name="Layer 2" xmlns="http://www.w3.org/2000/svg" viewBox="0 0 235.08 757.78">
  <defs>
    <style>
      .cls-1 {
        fill: #ffa000;
      }
    </style>
  </defs>
  <g id="_ÎÓÈ_1" data-name="—ÎÓÈ_1">
    <g>
      <g>
        <g>
          <path class="cls-1" d="M147.79,50.43c0,23.86-13.99,43.2-30.7,43.2s-29.81-19.34-29.81-43.2,5.81-41.63,29.81-41.63,30.7,17.77,30.7,41.63Z"/>
          <path class="cls-1" d="M89.04,48.72c-3.94-1.5-6.36-1.58-6.03,2.68.33,4.26,2.07,13.83,2.34,15.39.42,2.37,3.68,2.37,5.02-1.03s-1.34-17.04-1.34-17.04Z"/>
          <path class="cls-1" d="M146.04,48.72c3.94-1.5,6.36-1.58,6.03,2.68-.33,4.26-2.07,13.83-2.34,15.39-.42,2.37-3.68,2.37-5.02-1.03-1.34-3.39,1.34-17.04,1.34-17.04Z"/>
        </g>
        <path class="cls-1" d="M135.35,77.59c0,16.53-.45,28.15,9.16,35.08,9.61,6.93,27.93,9.05,40.89,14.86s19.89,16.53,23.91,34.41c4.02,17.87,8.04,27.71,10.95,42.01,2.9,14.3,12.29,51.64,14.3,67.28,2.01,15.64-2.35,57.31-2.79,74.07-.45,16.76,1.56,28.04-.67,35.41-2.23,7.37-19.89,25.47-22.57,27.26-2.68,1.79-7.04.67-2.35-9.61,4.69-10.28,7.18-14.62,6.27-24.7-.63-7.03.13,5.66-3.48,12.52-1.96,3.73-9.16,2.68-6.26-6.7,2.9-9.38,1.9-25.81,6.59-30.28s6.93-5.81,7.37-12.07-2.68-27.26-6.03-44.69-4.02-34.19-5.14-43.12c-1.12-8.94-9.38-18.57-13.18-29.08-2.64-7.29-7.11-19.11-9.59-25.65-.61-1.61-2.9-1.56-3.46.07-3.06,9.06-12.2,29.08-15.05,43.68-3.8,19.44-2.9,31.31.22,47.17,3.13,15.86,14.13,34.8,18.82,64.74,4.69,29.94-5.03,69.43-7.04,89.99-2.01,20.56-8.83,81.83-8.38,105.29.45,23.46,1.62,39.77,2.29,61.44.67,21.67-6.09,50.32-7.88,72.21-1.79,21.9-3.07,41.11,1.62,50.05s15.19,15.86,16.53,20.78c1.34,4.92-5.81,6.26-12.07,6.26s-13.63,3.35-17.2,0-13.85-13.85-13.41-22.57c.45-8.71,2.46-12.07.67-15.19s.17-9.16,1.51-16.31c1.34-7.15,1.79-14.97.45-27.26-1.34-12.29-6.72-40.92-7.66-53.67-1.78-24.35,1.12-52.73.9-59.21s-2.74-25.47-4.52-38.88c-1.79-13.41-1.34-57.81-2.68-71-1.34-13.18-5.36-42.68-5.81-54.07-.45-11.4-.98-23.54-.98-23.54h-4.17s-.53,12.15-.98,23.54c-.45,11.4-4.47,40.89-5.81,54.07-1.34,13.18-.89,57.59-2.68,71-1.79,13.41-4.3,32.4-4.52,38.88-.22,6.48,2.68,34.86.9,59.21-.93,12.75-6.32,41.38-7.66,53.67-1.34,12.29-.89,20.11.45,27.26,1.34,7.15,3.3,13.18,1.51,16.31-1.79,3.13.22,6.48.67,15.19.45,8.71-9.83,19.22-13.41,22.57-3.57,3.35-10.95,0-17.2,0s-13.41-1.34-12.07-6.26c1.34-4.92,11.84-11.84,16.53-20.78s3.41-28.15,1.62-50.05c-1.79-21.9-8.55-50.54-7.88-72.21.67-21.67,1.84-37.98,2.29-61.44.45-23.46-6.37-84.74-8.38-105.29-2.01-20.56-11.73-60.05-7.04-89.99,4.69-29.94,15.7-48.88,18.82-64.74,3.13-15.86,4.02-27.73.22-47.17-2.85-14.6-11.99-34.62-15.05-43.68-.55-1.63-2.84-1.68-3.46-.07-2.49,6.54-6.95,18.36-9.59,25.65-3.8,10.5-12.07,20.14-13.18,29.08-1.12,8.94-1.79,25.69-5.14,43.12-3.35,17.43-6.48,38.43-6.03,44.69.45,6.26,2.68,7.6,7.37,12.07,4.69,4.47,3.69,20.89,6.59,30.28,2.9,9.38-4.29,10.43-6.26,6.7-3.61-6.86-2.85-19.55-3.48-12.52-.9,10.08,1.58,14.42,6.27,24.7,4.69,10.28.34,11.4-2.35,9.61-2.68-1.79-20.33-19.89-22.57-27.26-2.05-6.78-.21-18.11-.67-35.41-.45-16.76-4.8-58.43-2.79-74.07,2.01-15.64,11.4-52.98,14.3-67.28,2.9-14.3,6.93-24.13,10.95-42.01,4.02-17.87,10.95-28.6,23.91-34.41s31.28-7.93,40.89-14.86c9.61-6.93,9.16-18.54,9.16-35.08h35.62Z"/>
      </g>
      <path class="cls-1" d="M175.59,98.25c-32.6-4.95-73.46,5.94-109.85-.59,12.06-14.3,11.58-34.35,10.05-56.65C74.25,18.7,83.36,0,107.94,3.57c36.76-13.67,57.93,14.78,54.93,37.36-3,22.58-.33,37.42,12.73,57.33Z"/>
      <g>
        <circle class="cls-1" cx="86" cy="188.59" r="35"/>
        <circle class="cls-1" cx="147" cy="188.59" r="35"/>
      </g>
    </g>
  </g>
</svg>