<?xml version="1.0" encoding="UTF-8"?>
<svg id="Layer_2" data-name="Layer 2" xmlns="http://www.w3.org/2000/svg" viewBox="0 0 247.2 762.9">
  <defs>
    <style>
      .cls-1 {
        fill: #b3b3b3;
      }
    </style>
  </defs>
  <g id="_ÎÓÈ_1" data-name="—ÎÓÈ_1">
    <g>
      <g>
        <g>
          <path class="cls-1" d="M153.85,50.59c0,23.86-13.99,43.2-30.7,43.2s-29.81-19.34-29.81-43.2,5.81-41.63,29.81-41.63,30.7,17.77,30.7,41.63Z"/>
          <path class="cls-1" d="M95.1,48.89c-3.94-1.5-6.36-1.58-6.03,2.68.33,4.26,2.07,13.83,2.34,15.39.42,2.37,3.68,2.37,5.02-1.03,1.34-3.39-1.34-17.04-1.34-17.04Z"/>
          <path class="cls-1" d="M152.1,48.89c3.94-1.5,6.36-1.58,6.03,2.68-.33,4.26-2.07,13.83-2.34,15.39-.42,2.37-3.68,2.37-5.02-1.03s1.34-17.04,1.34-17.04Z"/>
        </g>
        <path class="cls-1" d="M141.77,77.94c0,16.52-.45,22.89,9.15,29.81,9.6,6.92,34.76,14.29,47.71,20.1,12.95,5.81,19.87,19.15,23.89,37.01,4.02,17.86,22.32,93.4,24.33,109.03s-5.68,57.45-6.12,74.2c-.45,16.75,1.56,28.02-.67,35.39s-19.87,25.45-22.55,27.24c-2.68,1.79-9.66.67-4.97-9.6,4.69-10.27,7.17-14.61,6.27-24.68-.63-7.03.13,5.65-3.48,12.51-1.96,3.73-9.15,2.68-6.25-6.7s1.9-25.79,6.59-30.25c4.69-4.47,6.92-5.81,7.37-12.06.45-6.25-2.68-27.24-6.03-44.66-3.35-17.42-4.02-34.16-5.14-43.09s-18.68-53.61-20.08-60.83c-.34-1.74-5.91-.92-6.35.8-2.51,9.87-12.2,35.68-14.82,49.06-3.8,19.43-2.9,31.29.22,47.14s16.75,32.15,21.43,62.07c4.69,29.92-.93,98.84-10.62,137.75-4.99,20.03-4.05,35.85-1.51,59.06,2.53,23.11-7.07,115.27-8.86,137.15-1.79,21.88-3.07,41.08,1.62,50.01,4.69,8.93,15.18,15.85,16.52,20.76,1.34,4.91-5.81,6.25-12.06,6.25s-16.24,3.35-19.82,0c-3.57-3.35-13.84-13.84-13.4-22.55.45-8.71,2.46-12.06.67-15.18-1.79-3.13.17-9.15,1.51-16.3,1.34-7.14,4.41-14.96,3.07-27.24-1.34-12.28-3.35-43.46-6.38-55.88-9.06-37.13-1.65-59.18-2.01-65.64-.55-9.87-5.19-20.88-6.98-34.27-1.79-13.4-3.8-56.21-5.14-69.38-1.34-13.17-3.35-48.34-3.8-59.73h-3.04c-.45,11.39-2.46,46.55-3.8,59.73-1.34,13.17-3.35,55.99-5.14,69.38-1.79,13.4-6.42,24.4-6.98,34.27-.36,6.47,7.05,28.51-2.01,65.64-3.03,12.41-5.04,43.6-6.38,55.88-1.34,12.28,1.73,20.1,3.07,27.24,1.34,7.15,3.29,13.17,1.51,16.3-1.79,3.13.22,6.48.67,15.18s-9.82,19.2-13.4,22.55c-3.57,3.35-13.56,0-19.82,0s-13.4-1.34-12.06-6.25c1.34-4.91,11.83-11.83,16.52-20.76,4.69-8.93,3.41-28.13,1.62-50.01-1.79-21.88-11.39-114.04-8.86-137.15,2.54-23.21,3.48-39.03-1.51-59.06-9.7-38.92-15.31-107.83-10.62-137.75,4.69-29.92,18.31-46.22,21.43-62.07,3.13-15.85,4.02-27.72.22-47.14-2.62-13.38-12.31-39.2-14.82-49.06-.44-1.72-5.92-1.86-6.26-.13-1.41,7.22-19.05,51.23-20.17,60.16-1.12,8.93-1.79,25.68-5.14,43.09-3.35,17.42-6.48,38.4-6.03,44.66.45,6.25,2.68,7.59,7.37,12.06,4.69,4.47,3.68,20.88,6.59,30.25s-4.29,10.43-6.25,6.7c-3.61-6.86-2.85-19.54-3.48-12.51-.9,10.07,1.58,14.41,6.27,24.68,4.69,10.27-2.29,11.39-4.97,9.6-2.68-1.79-20.32-19.87-22.55-27.24s-.22-18.64-.67-35.39c-.45-16.75-8.13-58.57-6.12-74.2,2.01-15.63,20.31-91.17,24.33-109.03,4.02-17.86,13.56-31.2,26.51-37.01,12.95-5.81,35.49-13.17,45.09-20.1,9.6-6.92,9.15-13.29,9.15-29.81h36.35Z"/>
      </g>
      <path class="cls-1" d="M181.59,98.25c-32.6-4.95-73.46,5.94-109.85-.59,12.06-14.3,11.58-34.35,10.05-56.65C80.25,18.7,89.36,0,113.93,3.57c36.76-13.67,57.93,14.78,54.93,37.36-3,22.58-.33,37.42,12.73,57.33Z"/>
      <g>
        <circle class="cls-1" cx="94.56" cy="191.65" r="35.13"/>
        <circle class="cls-1" cx="152.64" cy="191.65" r="35.13"/>
      </g>
    </g>
  </g>
</svg>