<?xml version="1.0" encoding="UTF-8"?>
<svg id="Layer_2" data-name="Layer 2" xmlns="http://www.w3.org/2000/svg" viewBox="0 0 230.92 743.26">
  <defs>
    <style>
      .cls-1 {
        fill: #d32f2f;
      }
    </style>
  </defs>
  <g id="_ÎÓÈ_1" data-name="—ÎÓÈ_1">
    <g>
      <g>
        <path class="cls-1" d="M145.43,41.23c0,23.63-13.86,42.79-30.41,42.79s-29.52-19.16-29.52-42.79S91.24,0,115.02,0s30.41,17.6,30.41,41.23Z"/>
        <path class="cls-1" d="M87.23,39.54c-3.9-1.48-6.3-1.56-5.97,2.66.33,4.22,2.05,13.7,2.32,15.24.41,2.34,3.65,2.34,4.98-1.02,1.33-3.36-1.33-16.88-1.33-16.88Z"/>
        <path class="cls-1" d="M143.69,39.54c3.9-1.48,6.3-1.56,5.97,2.66-.33,4.22-2.05,13.7-2.32,15.24-.41,2.34-3.65,2.34-4.98-1.02-1.33-3.36,1.33-16.88,1.33-16.88Z"/>
      </g>
      <path class="cls-1" d="M129.89,68.32c0,16.37-.44,27.87,9.07,34.72,9.51,6.86,22.45,14.15,35.27,19.9,12.83,5.75,24.88,16.37,28.86,34.06s5.36,27.42,8.24,41.58c2.88,14.15,14.76,60.6,16.75,76.08,1.99,15.48,2.88,56.73,2.43,73.31-.44,16.59,1.55,27.76-.66,35.05-2.21,7.3-14.49,25.21-17.14,26.98-2.65,1.77-12.16.66-7.52-9.51,4.64-10.17,7.1-14.47,6.21-24.44-.62-6.96.13,5.6-3.44,12.39-1.94,3.69-6.47,2.65-3.59-6.63,2.88-9.29,1.88-25.54,6.52-29.97,4.64-4.42,4.26-5.75,4.7-11.94.44-6.19-.06-26.98-3.37-44.23-3.32-17.25-3.98-33.84-5.09-42.68-1.11-8.85-9.29-27.87-13.05-38.26-3.76-10.39-13.09-44.57-17.56-49.94-1.44-1.73-6.2-3.76-8.28,3.54-4.48,15.7-7.2,51.18-9.76,64.31-3.76,19.24-2.88,40.47.22,56.17,3.1,15.7,3.59,21.45,8.24,51.09s5.42,107.7,3.43,128.05c-1.99,20.35-3.54,42.02-3.1,65.24.44,23.22,1.6,39.37,2.27,60.82.66,21.45-.83,49.8-2.6,71.48-1.77,21.67-.44,40.69,4.2,49.54,4.64,8.85,15.04,15.7,16.37,20.57,1.33,4.87-5.75,6.19-11.94,6.19s-13.49,3.32-17.03,0c-3.54-3.32-13.71-13.71-13.27-22.34s5.03-11.94,3.26-15.04c-1.77-3.1-2.43-9.07-1.11-16.14,1.33-7.08,1.77-14.82.44-26.98s-4.05-40.5-4.98-53.12c-1.77-24.11-1.49-52.19-1.71-58.61-.22-6.41-2.71-25.21-4.48-38.48-1.77-13.27-1.33-44.23-2.65-57.28-1.33-13.05-5.31-42.24-5.75-53.52-.44-11.28-3.57-33.7-3.57-33.7h-18.53s-3.12,22.42-3.57,33.7c-.44,11.28-4.42,40.47-5.75,53.52-1.33,13.05-.88,44.01-2.65,57.28-1.77,13.27-4.26,32.07-4.48,38.48-.22,6.41.06,34.5-1.71,58.61-.92,12.62-3.65,40.96-4.98,53.12-1.33,12.16-.88,19.9.44,26.98,1.33,7.08.66,13.05-1.11,16.14-1.77,3.1,2.82,6.41,3.26,15.04s-9.73,19.02-13.27,22.34c-3.54,3.32-10.84,0-17.03,0s-13.27-1.33-11.94-6.19c1.33-4.87,11.72-11.72,16.37-20.57,4.64-8.85,5.97-27.87,4.2-49.54-1.77-21.67-3.26-50.03-2.6-71.48.66-21.45,1.82-37.6,2.27-60.82s-1.11-44.89-3.1-65.24-1.22-98.41,3.43-128.05,5.14-35.38,8.24-51.09,3.98-36.93.22-56.17c-2.57-13.13-5.28-48.61-9.76-64.31-2.08-7.3-6.84-5.27-8.28-3.54-4.47,5.37-13.8,39.54-17.56,49.94-3.76,10.39-11.94,29.41-13.05,38.26-1.11,8.85-1.77,25.43-5.09,42.68-3.32,17.25-3.81,38.04-3.37,44.23.44,6.19.06,7.52,4.7,11.94,4.64,4.42,3.65,20.68,6.52,29.97,2.88,9.29-1.65,10.33-3.59,6.63-3.58-6.79-2.82-19.35-3.44-12.39-.9,9.97,1.56,14.27,6.21,24.44,4.64,10.17-4.87,11.28-7.52,9.51-2.65-1.77-14.93-19.68-17.14-26.98-2.21-7.3-.22-18.47-.66-35.05-.44-16.59.44-57.83,2.43-73.31s13.88-61.92,16.75-76.08c2.88-14.15,4.26-23.88,8.24-41.58,3.98-17.69,16.03-28.31,28.86-34.06,12.83-5.75,25.76-13.05,35.27-19.9,9.51-6.86,9.07-18.36,9.07-34.72h28.87Z"/>
    </g>
  </g>
</svg>