<?xml version="1.0" encoding="UTF-8"?>
<svg id="Layer_2" data-name="Layer 2" xmlns="http://www.w3.org/2000/svg" viewBox="0 0 305.36 765.73">
  <defs>
    <style>
      .cls-1 {
        fill: #d32f2f;
      }
    </style>
  </defs>
  <g id="_ÎÓÈ_1" data-name="—ÎÓÈ_1">
    <g>
      <g>
        <g>
          <path class="cls-1" d="M182.9,50.75c0,23.86-13.99,43.2-30.7,43.2s-29.81-19.34-29.81-43.2,5.81-41.63,29.81-41.63,30.7,17.77,30.7,41.63Z"/>
          <path class="cls-1" d="M124.15,49.05c-3.94-1.5-6.36-1.58-6.03,2.68.33,4.26,2.07,13.83,2.34,15.39.42,2.37,3.68,2.37,5.02-1.03s-1.34-17.04-1.34-17.04Z"/>
          <path class="cls-1" d="M181.15,49.05c3.94-1.5,6.36-1.58,6.03,2.68-.33,4.26-2.07,13.83-2.34,15.39-.42,2.37-3.68,2.37-5.02-1.03-1.34-3.39,1.34-17.04,1.34-17.04Z"/>
        </g>
        <path class="cls-1" d="M181.31,59.79c0,16.52,2.18,41.25,11.78,48.17,9.6,6.93,41.02,14.3,53.98,20.1,12.95,5.81,29.82,19.58,36.7,49.06,4.17,17.83,18.98,83.98,20.99,99.61,2.01,15.64-1.74,54.96-.66,71.67,1.09,16.72-1.67,28.57-3.21,36.11-1.55,7.54-17.46,27.17-19.97,29.19s-12.17,1.8-8.43-8.87c3.73-10.65,5.8-15.2,3.97-25.15-1.26-6.94.66,5.61-2.31,12.78-1.61,3.9-8.88,3.5-6.85-6.1s-.46-25.85,3.79-30.73c4.26-4.87,6.36-6.41,6.24-12.67-.13-6.27-12.65-20.96-22.31-38.57-8.4-15.27-11.48-24.86-15.12-41.48-1.95-8.91-10.49-23.73-8.8-11.11,2.3,17.03,6.27,14.49,12.25,35.64,4.79,16.91,12,24.28,14.52,49.57,3,30.13,5.44,115.42-4.25,154.34-4.98,20.03-5.08,36.18-2.54,59.4,2.53,23.1,1.8,42.65-3.15,64.24-5.08,22.22-12,48.65-15.68,73.08-3.61,23.85-16.62,40.24-11.94,49.18,4.7,8.92,15.19,15.85,16.53,20.77,1.34,4.91-5.81,6.24-12.06,6.24s-16.25,3.34-19.82,0-13.84-13.84-13.39-22.55,2.45-12.06.67-15.18c-1.78-3.14-6.39-14.46-6.72-21.72-1.17-25.45-12.5-59.4-16.13-79.03-6.95-37.58-7.2-57.67-7.42-64.15-.22-6.47-5.02-19.76-6.81-33.15-.7-5.23-1.61-11.96-2.48-25.74v-.1c-.87,13.81-1.8,20.59-2.49,25.84-1.78,13.39-6.58,26.68-6.81,33.15-.22,6.48-.47,26.56-7.42,64.15-3.63,19.64-14.95,53.59-16.13,79.03-.33,7.27-4.93,18.59-6.72,21.72-1.78,3.12.22,6.47.67,15.18s-9.83,19.2-13.39,22.55-13.56,0-19.82,0-13.39-1.34-12.06-6.24c1.34-4.92,11.83-11.85,16.53-20.77,4.68-8.93-8.33-25.33-11.94-49.18-3.67-24.42-10.6-50.86-15.68-73.08-4.95-21.59-5.68-41.14-3.15-64.24,2.53-23.22,2.44-39.37-2.54-59.4-9.69-38.92-7.25-124.21-4.25-154.34,2.52-25.29,9.73-32.66,14.52-49.57,5.98-21.16,9.96-18.62,12.25-35.64,1.69-12.62-6.85,2.21-8.8,11.11-3.63,16.62-6.73,26.21-15.12,41.48-9.67,17.6-22.18,32.3-22.31,38.57-.12,6.26,1.98,7.81,6.24,12.67,4.25,4.88,1.76,21.13,3.79,30.73,2.03,9.6-5.23,10-6.85,6.1-2.96-7.16-1.05-19.72-2.31-12.78-1.82,9.94.25,14.49,3.97,25.15,3.74,10.66-5.93,10.89-8.43,8.87-2.51-2.02-18.42-21.64-19.96-29.19-1.55-7.54-4.3-19.39-3.21-36.11,1.09-16.71-2.66-56.04-.66-71.67,2.01-15.62,16.82-81.78,20.99-99.61,6.89-29.48,23.76-43.25,36.72-49.06,12.95-5.8,44.36-13.17,53.97-20.1,9.6-6.91,11.78-31.65,11.78-48.17h57.26Z"/>
      </g>
      <path class="cls-1" d="M212.48,98.25c-32.6-4.95-73.46,5.94-109.85-.59,12.06-14.3,11.58-34.35,10.05-56.65C111.14,18.7,120.25,0,144.83,3.57c36.76-13.67,57.93,14.78,54.93,37.36-3,22.58-.33,37.42,12.73,57.33Z"/>
    </g>
  </g>
</svg>