<?xml version="1.0" encoding="UTF-8"?>
<svg id="Layer_2" data-name="Layer 2" xmlns="http://www.w3.org/2000/svg" viewBox="0 0 257.26 765.38">
  <defs>
    <style>
      .cls-1 {
        fill: #009688;
      }
    </style>
  </defs>
  <g id="_ÎÓÈ_1" data-name="—ÎÓÈ_1">
    <g>
      <g>
        <g>
          <path class="cls-1" d="M158.88,50.75c0,23.86-13.99,43.2-30.7,43.2s-29.81-19.34-29.81-43.2,5.81-41.63,29.81-41.63,30.7,17.77,30.7,41.63Z"/>
          <path class="cls-1" d="M100.13,49.05c-3.94-1.5-6.36-1.58-6.03,2.68.33,4.26,2.07,13.83,2.34,15.39.42,2.37,3.68,2.37,5.02-1.03,1.34-3.39-1.34-17.04-1.34-17.04Z"/>
          <path class="cls-1" d="M157.13,49.05c3.94-1.5,6.36-1.58,6.03,2.68-.33,4.26-2.07,13.83-2.34,15.39-.42,2.37-3.68,2.37-5.02-1.03s1.34-17.04,1.34-17.04Z"/>
        </g>
        <path class="cls-1" d="M149.19,77.79c0,16.52-.45,22.89,9.15,29.81,9.6,6.92,34.76,16.91,47.71,22.72,12.95,5.81,22.25,18.07,26.27,35.94s6.43,27.69,9.33,41.98c2.9,14.29,13.23,52.5,15.24,68.13s-5.08,56.94-5.53,73.68c-.45,16.75-1.66,28.53-3.89,35.9-2.23,7.37-19.87,25.45-22.55,27.24-2.68,1.79-9.66.67-4.97-9.6,4.69-10.27,7.17-14.61,6.27-24.68-.63-7.03.13,5.65-3.48,12.51-1.96,3.73-9.15,2.68-6.25-6.7,2.9-9.38,1.9-25.79,6.59-30.25,4.69-4.47,6.92-5.81,7.37-12.06.45-6.25-2.3-26.04-6.94-43.16-4.56-16.83-9.15-25.57-11.5-42.42-1.24-8.91-8.88-22.52-12.67-33.02-1.97-5.45-2.34,7.31-2.34,20.04,0,19.79,6.03,21.24,6.36,43.23.2,13.17,4.12,24.28,6.64,49.57,3,30.14,2.83,115.42-6.87,154.34-4.99,20.03-12.96,36.18-10.42,59.39,2.53,23.11,7.27,39.62,4.72,61.63-2.49,21.52-11.28,53.81-13.06,75.69-1.79,21.88-3.5,40.25,1.19,49.18,4.69,8.93,15.18,15.85,16.52,20.76,1.34,4.91-5.81,6.25-12.06,6.25s-16.24,3.35-19.82,0c-3.57-3.35-13.84-13.84-13.4-22.55.45-8.71,2.46-12.06.67-15.18s-3.76-14.45-4.09-21.71c-1.17-25.45-10.22-62.96-10.88-79.04-1.59-38.19-1.95-57.66-2.18-64.14s-2.4-19.76-4.19-33.16c-1.79-13.4-7.53-102.71-7.53-102.71,0,0-5.75,89.31-7.53,102.71-1.79,13.4-3.96,26.68-4.19,33.16-.22,6.48-.59,25.95-2.18,64.14-.67,16.08-9.71,53.59-10.88,79.04-.33,7.26-2.31,18.59-4.09,21.71-1.79,3.13.22,6.48.67,15.18.45,8.71-9.82,19.2-13.4,22.55-3.57,3.35-13.56,0-19.82,0s-13.4-1.34-12.06-6.25c1.34-4.91,11.83-11.83,16.52-20.76,4.69-8.93,2.98-27.3,1.19-49.18-1.79-21.88-10.57-54.17-13.06-75.69-2.55-22,2.19-38.52,4.72-61.63,2.54-23.21-5.43-39.36-10.42-59.39-9.7-38.92-9.87-124.21-6.87-154.34,2.52-25.28,6.44-36.39,6.64-49.57.34-21.99,6.36-23.44,6.36-43.23,0-12.73-.37-25.49-2.34-20.04-3.8,10.49-11.43,24.1-12.67,33.02-2.34,16.86-6.94,25.6-11.5,42.42-4.64,17.12-7.39,36.91-6.94,43.16.45,6.25,2.68,7.59,7.37,12.06,4.69,4.47,3.68,20.88,6.59,30.25,2.9,9.38-4.29,10.43-6.25,6.7-3.61-6.86-2.85-19.54-3.48-12.51-.9,10.07,1.58,14.41,6.27,24.68,4.69,10.27-2.29,11.39-4.97,9.6-2.68-1.79-20.32-19.87-22.55-27.24-2.23-7.37-3.44-19.16-3.89-35.9-.45-16.75-7.54-58.05-5.53-73.68,2.01-15.63,12.34-53.84,15.24-68.13,2.9-14.29,5.31-24.11,9.33-41.98,4.02-17.86,13.32-30.13,26.27-35.94,12.95-5.81,38.11-15.8,47.71-22.72,9.6-6.92,9.15-13.29,9.15-29.81h41.12Z"/>
      </g>
      <path class="cls-1" d="M187.39,98.25c-32.6-4.95-73.46,5.94-109.85-.59,12.06-14.3,11.58-34.35,10.05-56.65C86.05,18.7,95.16,0,119.74,3.57c36.76-13.67,57.93,14.78,54.93,37.36-3,22.58-.33,37.42,12.73,57.33Z"/>
    </g>
  </g>
</svg>