<?xml version="1.0" encoding="UTF-8"?>
<svg id="Layer_2" data-name="Layer 2" xmlns="http://www.w3.org/2000/svg" viewBox="0 0 255.13 745.86">
  <defs>
    <style>
      .cls-1 {
        fill: #009688;
      }
    </style>
  </defs>
  <g id="_ÎÓÈ_1" data-name="—ÎÓÈ_1">
    <g>
      <g>
        <path class="cls-1" d="M157.53,41.23c0,23.63-13.86,42.79-30.41,42.79s-29.52-19.16-29.52-42.79S103.35,0,127.12,0s30.41,17.6,30.41,41.23Z"/>
        <path class="cls-1" d="M99.34,39.54c-3.9-1.48-6.3-1.56-5.97,2.66.33,4.22,2.05,13.7,2.32,15.24.41,2.34,3.65,2.34,4.98-1.02,1.33-3.36-1.33-16.88-1.33-16.88Z"/>
        <path class="cls-1" d="M155.79,39.54c3.9-1.48,6.3-1.56,5.97,2.66-.33,4.22-2.05,13.7-2.32,15.24-.41,2.34-3.65,2.34-4.98-1.02-1.33-3.36,1.33-16.88,1.33-16.88Z"/>
      </g>
      <path class="cls-1" d="M147.93,68.32c0,16.37-.44,22.67,9.07,29.52,9.51,6.86,38.04,16.75,50.87,22.5,12.83,5.75,22.04,17.9,26.02,35.6,3.98,17.69,2.76,27.42,5.64,41.58,2.88,14.15,13.1,61.48,15.09,76.96,1.99,15.48-2.43,56.39-2.88,72.98-.44,16.59-1.64,28.26-3.85,35.56-2.21,7.3-19.68,25.21-22.34,26.98-2.65,1.77-12.16.66-7.52-9.51,4.64-10.17,7.1-14.47,6.21-24.44-.62-6.96.13,5.6-3.44,12.39-1.94,3.69-9.07,2.65-6.19-6.63,2.88-9.29,1.88-25.54,6.52-29.97,4.64-4.42,6.86-5.75,7.3-11.94.44-6.19-2.28-25.79-6.87-42.75-4.51-16.67-9.07-25.32-11.39-42.02-1.23-8.83-8.79-31.79-12.55-42.19-1.95-5.4-2.32,7.24-2.32,19.85,0,19.6,5.97,30.52,6.3,52.3.2,13.05,4.08,24.05,6.58,49.1,2.98,29.85,2.8,96.14-6.8,134.68-4.94,19.84-12.83,41.03-10.32,64.02,2.5,22.89,7.2,39.24,4.68,61.04-2.47,21.32-11.17,53.3-12.94,74.97-1.77,21.67-3.47,39.86,1.18,48.71,4.64,8.85,15.04,15.7,16.37,20.57,1.33,4.87-5.75,6.19-11.94,6.19s-16.09,3.32-19.63,0c-3.54-3.32-13.71-13.71-13.27-22.34.44-8.63,2.43-11.94.66-15.04-1.77-3.1-3.72-14.31-4.05-21.51-1.16-25.21-10.12-62.37-10.78-78.29-1.58-37.82-1.94-57.11-2.16-63.53-.22-6.41-2.38-19.57-4.15-32.84-1.77-13.27-7.46-88.74-7.46-88.74,0,0-5.69,75.47-7.46,88.74-1.77,13.27-3.93,26.43-4.15,32.84-.22,6.41-.58,25.7-2.16,63.53-.66,15.92-9.62,53.08-10.78,78.29-.33,7.19-2.28,18.41-4.05,21.51-1.77,3.1.22,6.41.66,15.04.44,8.63-9.73,19.02-13.27,22.34-3.54,3.32-13.44,0-19.63,0s-13.27-1.33-11.94-6.19c1.33-4.87,11.72-11.72,16.37-20.57,4.64-8.85,2.95-27.04,1.18-48.71-1.77-21.67-10.47-53.65-12.94-74.97-2.53-21.79,2.17-38.15,4.68-61.04,2.52-22.99-5.37-44.19-10.32-64.02-9.6-38.55-9.78-104.84-6.8-134.68,2.5-25.04,6.38-36.05,6.58-49.1.33-21.78,6.3-32.7,6.3-52.3,0-12.61-.37-25.25-2.32-19.85-3.76,10.39-11.32,33.36-12.55,42.19-2.32,16.7-6.88,25.35-11.39,42.02-4.59,16.96-7.32,36.56-6.87,42.75.44,6.19,2.65,7.52,7.3,11.94,4.64,4.42,3.65,20.68,6.52,29.97,2.88,9.29-4.25,10.33-6.19,6.63-3.58-6.79-2.82-19.35-3.44-12.39-.9,9.97,1.56,14.27,6.21,24.44,4.64,10.17-4.87,11.28-7.52,9.51-2.65-1.77-20.13-19.68-22.34-26.98-2.21-7.3-3.41-18.97-3.85-35.56-.44-16.59-4.87-57.5-2.88-72.98,1.99-15.48,12.22-62.81,15.09-76.96,2.88-14.15,1.66-23.88,5.64-41.58,3.98-17.69,13.2-29.85,26.02-35.6,12.83-5.75,41.36-15.65,50.87-22.5,9.51-6.86,9.07-13.16,9.07-29.52h40.72Z"/>
    </g>
  </g>
</svg>