<?xml version="1.0" encoding="UTF-8"?>
<svg id="Layer_2" data-name="Layer 2" xmlns="http://www.w3.org/2000/svg" viewBox="0 0 231.21 757.78">
  <defs>
    <style>
      .cls-1 {
        fill: #f4511e;
      }
    </style>
  </defs>
  <g id="_ÎÓÈ_1" data-name="—ÎÓÈ_1">
    <g>
      <g>
        <g>
          <path class="cls-1" d="M145.86,50.43c0,23.86-13.99,43.2-30.7,43.2s-29.81-19.34-29.81-43.2,5.81-41.63,29.81-41.63,30.7,17.77,30.7,41.63Z"/>
          <path class="cls-1" d="M87.1,48.72c-3.94-1.5-6.36-1.58-6.03,2.68.33,4.26,2.07,13.83,2.34,15.39.42,2.37,3.68,2.37,5.02-1.03s-1.34-17.04-1.34-17.04Z"/>
          <path class="cls-1" d="M144.1,48.72c3.94-1.5,6.36-1.58,6.03,2.68-.34,4.26-2.07,13.83-2.34,15.39-.42,2.37-3.68,2.37-5.02-1.03-1.34-3.39,1.34-17.04,1.34-17.04Z"/>
        </g>
        <path class="cls-1" d="M131.05,77.59c0,16.53-.45,28.15,9.16,35.08,9.61,6.93,25.3,9.05,38.26,14.86s22.51,16.53,26.53,34.41c4.02,17.87,5.42,27.71,8.32,42.01,2.9,14.3,14.91,51.64,16.93,67.28,2.01,15.64.28,57.31-.17,74.07-.45,16.76-1.06,28.04-3.3,35.41-2.23,7.37-14.63,25.47-17.32,27.26-2.68,1.79-9.66.67-4.97-9.61,4.69-10.28,7.18-14.62,6.27-24.7-.63-7.03.13,5.66-3.48,12.52-1.96,3.73-6.54,2.68-3.63-6.7,2.9-9.38,1.9-25.81,6.59-30.28s4.3-5.81,4.75-12.07c.45-6.26-2.68-27.26-6.03-44.69s-4.02-34.19-5.14-43.12c-1.12-8.94-9.38-18.57-13.18-29.08-3.8-10.5-10.76-34.4-15.12-39.95-1.11-1.41-5-3.44-6.73,2.46-3.75,12.75-8.9,42.3-11.5,55.59-3.8,19.44-2.9,31.31.22,47.17,3.13,15.86,14.13,29.55,18.82,59.49,4.69,29.94-2.4,48.43-4.41,68.99-2.01,20.56-8.83,108.09-8.38,131.55.45,23.46,1.62,39.77,2.29,61.44.67,21.67-3.46,50.32-5.25,72.21-1.79,21.9-.45,41.11,4.25,50.05s15.19,15.86,16.53,20.78c1.34,4.92-5.81,6.26-12.07,6.26s-13.63,3.35-17.2,0-13.85-13.85-13.41-22.57c.45-8.71,2.46-12.07.67-15.19s-2.46-9.16-1.12-16.31c1.34-7.15,1.79-14.97.45-27.26-1.34-12.29-6.72-40.92-7.66-53.67-1.78-24.35-1.5-52.73-1.73-59.21s-2.74-25.47-4.52-38.88c-1.79-13.41,3.91-57.81,2.57-71-1.34-13.18-5.36-42.68-5.81-54.07-.45-11.4-.98-23.54-.98-23.54h-9.95s-.53,12.15-.98,23.54c-.45,11.4-4.47,40.89-5.81,54.07-1.34,13.18,4.36,57.59,2.57,71-1.79,13.41-4.3,32.4-4.52,38.88s.06,34.86-1.73,59.21c-.93,12.75-6.32,41.38-7.66,53.67-1.34,12.29-.89,20.11.45,27.26,1.34,7.15.67,13.18-1.12,16.31-1.79,3.13.22,6.48.67,15.19s-9.83,19.22-13.41,22.57c-3.57,3.35-10.95,0-17.2,0s-13.41-1.34-12.07-6.26c1.34-4.92,11.84-11.84,16.53-20.78,4.69-8.94,6.03-28.15,4.25-50.05-1.79-21.9-5.92-50.54-5.25-72.21.67-21.67,1.84-37.98,2.29-61.44s-6.37-110.99-8.38-131.55c-2.01-20.56-9.1-39.05-4.41-68.99,4.69-29.94,15.7-43.63,18.82-59.49,3.13-15.86,4.02-27.73.22-47.17-2.6-13.29-7.75-42.84-11.5-55.59-1.74-5.9-5.63-3.87-6.73-2.46-4.35,5.55-11.32,29.45-15.12,39.95-3.8,10.5-12.07,20.14-13.18,29.08-1.12,8.94-1.79,25.69-5.14,43.12s-6.48,38.43-6.03,44.69c.45,6.26.06,7.6,4.75,12.07,4.69,4.47,3.69,20.89,6.59,30.28,2.9,9.38-1.67,10.43-3.63,6.7-3.61-6.86-2.85-19.55-3.48-12.52-.9,10.08,1.58,14.42,6.27,24.7s-2.29,11.4-4.97,9.61c-2.68-1.79-15.08-19.89-17.32-27.26-2.23-7.37-2.85-18.66-3.3-35.41-.45-16.76-2.18-58.43-.17-74.07,2.01-15.64,14.02-52.98,16.93-67.28,2.9-14.3,4.3-24.13,8.32-42.01,4.02-17.87,13.57-28.6,26.53-34.41s28.66-7.93,38.26-14.86c9.61-6.93,9.16-18.54,9.16-35.08h30.9Z"/>
      </g>
      <path class="cls-1" d="M173.3,98.25c-32.6-4.95-73.46,5.94-109.85-.59,12.06-14.3,11.58-34.35,10.05-56.65C71.96,18.7,81.07,0,105.65,3.57c36.76-13.67,57.93,14.78,54.93,37.36s-.33,37.42,12.73,57.33Z"/>
      <g>
        <circle class="cls-1" cx="91.95" cy="188.59" r="35"/>
        <circle class="cls-1" cx="144.95" cy="188.59" r="35"/>
      </g>
    </g>
  </g>
</svg>