<?xml version="1.0" encoding="UTF-8"?>
<svg xmlns="http://www.w3.org/2000/svg" viewBox="0 0 512 512">
  <defs>
    <style>
      .cls-1 {
        fill: #390;
        fill-rule: evenodd;
      }
    </style>
  </defs>
  <g id="Layer_1" data-name="Layer 1" image-rendering="optimizeQuality" shape-rendering="geometricPrecision" text-rendering="geometricPrecision">
    <g id="Layer_1-2" data-name="Layer_1">
      <path class="cls-1" d="M270.62,384.31H22.14C9.93,384.31,0,374.38,0,362.17V78.21C0,66,9.93,56.07,22.14,56.07h450.39c12.21,0,22.14,9.93,22.14,22.14v279.91l-19.07-33.03c1.18-4.63,1.48-9.46.88-14.23,5.01-6.61,7.78-14.72,7.78-23.12s-2.78-16.51-7.78-23.12c1.03-8.23-.62-16.65-4.82-23.92s-10.65-12.88-18.29-16.1c-3.22-7.65-8.87-14.13-16.15-18.33-7.18-4.14-15.69-5.82-23.9-4.82-6.61-5.01-14.73-7.79-23.12-7.79s-16.52,2.78-23.13,7.79c-8.21-1-16.72.67-23.9,4.82-7.27,4.2-12.91,10.66-16.13,18.3-7.64,3.22-14.1,8.86-18.3,16.13-4.2,7.27-5.85,15.68-4.82,23.91-5.01,6.61-7.78,14.72-7.78,23.12s2.78,16.51,7.78,23.12c-.6,4.76-.29,9.59.88,14.23l-34.19,59.23h0ZM429.23,137.61H66.92c-10.53,0-10.53-16,0-16h362.32c10.53,0,10.53,16,0,16ZM304.24,197.99H66.92c-10.53,0-10.53-16,0-16h237.33c10.53,0,10.53,16,0,16ZM274.58,258.38H66.92c-10.53,0-10.53-16,0-16h207.66c10.53,0,10.54,16,0,16ZM274.58,318.77H66.92c-10.53,0-10.53-16,0-16h207.66c10.53,0,10.54,16,0,16Z"/>
      <path class="cls-1" d="M390.2,371.8c-7.7,0-14.98-3.16-20.24-8.53-15.21,4.28-31.11-4.79-35.06-20.26-15.47-3.97-24.51-19.76-20.23-35.03-11.37-11.12-11.37-29.36,0-40.48-4.28-15.32,4.82-31.1,20.24-35.05,3.95-15.44,19.83-24.52,35.05-20.24,11.12-11.37,29.37-11.37,40.47,0,15.2-4.28,31.11,4.79,35.06,20.26,15.47,3.98,24.52,19.76,20.23,35.03,11.37,11.12,11.38,29.36,0,40.47,4.3,15.32-4.83,31.1-20.24,35.05-3.95,15.46-19.88,24.53-35.05,20.24-5.26,5.39-12.53,8.54-20.23,8.54h0ZM390.2,338.41c-27.94,0-50.68-22.73-50.68-50.67s22.73-50.68,50.68-50.68,50.67,22.73,50.67,50.68-22.73,50.67-50.67,50.67Z"/>
      <path class="cls-1" d="M438.77,455.93c-2.85,0-5.49-1.51-6.93-4l-40.5-70.15c7.99-.24,15.67-2.99,21.98-7.77,8.21,1,16.72-.67,23.9-4.82,7.28-4.2,12.92-10.66,16.13-18.3,7.03-2.97,13.07-7.98,17.26-14.43l40.31,69.81c3.3,5.72-1.41,12.81-7.98,11.93l-40.95-5.42-15.83,38.21c-1.24,2.98-4.16,4.94-7.39,4.94h0Z"/>
      <path class="cls-1" d="M341.63,455.93c-3.24,0-6.15-1.95-7.39-4.94l-15.83-38.21-40.94,5.43c-6.56.88-11.29-6.21-7.98-11.93l40.3-69.81c4.19,6.45,10.22,11.45,17.25,14.41,3.22,7.65,8.86,14.11,16.14,18.32,7.18,4.15,15.7,5.82,23.91,4.82,6.31,4.78,13.99,7.53,21.98,7.77l-40.5,70.14c-1.44,2.49-4.09,4.01-6.93,4.01h0Z"/>
    </g>
  </g>
</svg>