<?xml version="1.0" encoding="UTF-8"?>
<svg xmlns="http://www.w3.org/2000/svg" xmlns:xlink="http://www.w3.org/1999/xlink" viewBox="0 0 600 600">
  <defs>
    <style>
      .cls-1 {
        fill: #d9edf4;
      }

      .cls-2 {
        fill: #e1edf9;
      }

      .cls-3 {
        fill: url(#linear-gradient-8);
      }

      .cls-4 {
        fill: url(#linear-gradient-7);
      }

      .cls-5 {
        fill: url(#linear-gradient-5);
      }

      .cls-6 {
        fill: url(#linear-gradient-6);
      }

      .cls-7 {
        fill: url(#linear-gradient-9);
      }

      .cls-8 {
        fill: url(#linear-gradient-4);
      }

      .cls-9 {
        fill: url(#linear-gradient-3);
      }

      .cls-10 {
        fill: url(#linear-gradient-2);
      }

      .cls-11 {
        fill: #1b3866;
        opacity: .15;
      }

      .cls-11, .cls-12, .cls-13 {
        mix-blend-mode: multiply;
      }

      .cls-14 {
        fill: #04b5a1;
      }

      .cls-15 {
        fill: url(#linear-gradient);
      }

      .cls-16 {
        fill: #8e5723;
      }

      .cls-17 {
        fill: #a3c5d4;
      }

      .cls-18 {
        isolation: isolate;
      }

      .cls-19 {
        fill: #e9f6f8;
      }

      .cls-12 {
        fill: #5085c5;
        opacity: .2;
      }

      .cls-20 {
        fill: #049483;
      }

      .cls-13 {
        fill: #dbe8f6;
      }

      .cls-21 {
        fill: #81a9b9;
      }

      .cls-22 {
        fill: #375767;
      }

      .cls-23 {
        fill: #00c0aa;
      }

      .cls-24 {
        fill: #4d82c3;
      }

      .cls-25 {
        fill: url(#linear-gradient-10);
      }

      .cls-26 {
        fill: url(#linear-gradient-11);
      }

      .cls-27 {
        fill: url(#linear-gradient-12);
      }

      .cls-28 {
        fill: url(#linear-gradient-13);
      }

      .cls-29 {
        fill: url(#linear-gradient-19);
      }

      .cls-30 {
        fill: url(#linear-gradient-14);
      }

      .cls-31 {
        fill: url(#linear-gradient-21);
      }

      .cls-32 {
        fill: url(#linear-gradient-20);
      }

      .cls-33 {
        fill: url(#linear-gradient-22);
      }

      .cls-34 {
        fill: url(#linear-gradient-23);
      }

      .cls-35 {
        fill: url(#linear-gradient-28);
      }

      .cls-36 {
        fill: url(#linear-gradient-25);
      }

      .cls-37 {
        fill: url(#linear-gradient-30);
      }

      .cls-38 {
        fill: url(#linear-gradient-15);
      }

      .cls-39 {
        fill: url(#linear-gradient-16);
      }

      .cls-40 {
        fill: url(#linear-gradient-17);
      }

      .cls-41 {
        fill: url(#linear-gradient-18);
      }

      .cls-42 {
        fill: url(#linear-gradient-27);
      }

      .cls-43 {
        fill: url(#linear-gradient-24);
      }

      .cls-44 {
        fill: url(#linear-gradient-26);
      }

      .cls-45 {
        fill: url(#linear-gradient-29);
      }

      .cls-46 {
        fill: #49768a;
      }

      .cls-47 {
        fill: #bac7de;
      }

      .cls-48 {
        fill: #a86b28;
      }

      .cls-49 {
        fill: #cde5ee;
      }

      .cls-50 {
        fill: #c7d5ec;
      }

      .cls-51 {
        fill: #edf8fa;
      }
    </style>
    <linearGradient id="linear-gradient" x1="526.83" y1="437.17" x2="566.03" y2="370" gradientUnits="userSpaceOnUse">
      <stop offset="0" stop-color="#bdae31"/>
      <stop offset=".26" stop-color="#c1b132"/>
      <stop offset=".56" stop-color="#cfbc38"/>
      <stop offset=".88" stop-color="#e6cf41"/>
      <stop offset="1" stop-color="#f2d846"/>
    </linearGradient>
    <linearGradient id="linear-gradient-2" x1="511.4" y1="438.59" x2="567.78" y2="368.34" gradientUnits="userSpaceOnUse">
      <stop offset="0" stop-color="#9e9233"/>
      <stop offset=".26" stop-color="#a29532"/>
      <stop offset=".56" stop-color="#b0a031"/>
      <stop offset=".88" stop-color="#c7b22f"/>
      <stop offset="1" stop-color="#d3bb2f"/>
    </linearGradient>
    <linearGradient id="linear-gradient-3" x1="40.51" y1="437.17" x2="79.7" y2="370" xlink:href="#linear-gradient"/>
    <linearGradient id="linear-gradient-4" x1="25.08" y1="438.59" x2="81.46" y2="368.34" xlink:href="#linear-gradient-2"/>
    <linearGradient id="linear-gradient-5" x1="492.74" y1="414.29" x2="531.94" y2="347.12" xlink:href="#linear-gradient"/>
    <linearGradient id="linear-gradient-6" x1="477.32" y1="415.71" x2="533.69" y2="345.46" xlink:href="#linear-gradient-2"/>
    <linearGradient id="linear-gradient-7" x1="542.29" y1="430.75" x2="539.79" y2="410.66" gradientUnits="userSpaceOnUse">
      <stop offset="0" stop-color="#eca351"/>
      <stop offset=".03" stop-color="#eca54f"/>
      <stop offset=".31" stop-color="#f3b541"/>
      <stop offset=".61" stop-color="#f7bf39"/>
      <stop offset="1" stop-color="#f9c337"/>
    </linearGradient>
    <linearGradient id="linear-gradient-8" x1="564.94" y1="450.27" x2="562.44" y2="430.18" xlink:href="#linear-gradient-7"/>
    <linearGradient id="linear-gradient-9" x1="-1998.89" y1="444.53" x2="-2010.09" y2="411.06" gradientTransform="translate(-1483.18) rotate(-180) scale(1 -1)" gradientUnits="userSpaceOnUse">
      <stop offset="0" stop-color="#9e9233"/>
      <stop offset=".26" stop-color="#a29532"/>
      <stop offset=".56" stop-color="#b0a030"/>
      <stop offset=".88" stop-color="#c7b22e"/>
      <stop offset="1" stop-color="#d3bb2d"/>
    </linearGradient>
    <linearGradient id="linear-gradient-10" x1="99.9" y1="458.83" x2="118.23" y2="364.4" xlink:href="#linear-gradient-2"/>
    <linearGradient id="linear-gradient-11" x1="358.84" y1="415.13" x2="514.67" y2="415.13" xlink:href="#linear-gradient"/>
    <linearGradient id="linear-gradient-12" x1="397.67" y1="380.6" x2="453.79" y2="324.17" gradientUnits="userSpaceOnUse">
      <stop offset="0" stop-color="#6fa4d8"/>
      <stop offset=".29" stop-color="#75a8da"/>
      <stop offset=".69" stop-color="#86b5e0"/>
      <stop offset="1" stop-color="#99c2e7"/>
    </linearGradient>
    <linearGradient id="linear-gradient-13" x1="432.03" y1="385.47" x2="434.29" y2="371.06" xlink:href="#linear-gradient"/>
    <linearGradient id="linear-gradient-14" y1="264.38" y2="207.96" xlink:href="#linear-gradient-12"/>
    <linearGradient id="linear-gradient-15" x1="432.03" y1="269.26" x2="434.29" y2="254.84" xlink:href="#linear-gradient"/>
    <linearGradient id="linear-gradient-16" x1="-7749.78" y1="437.64" x2="-7752.22" y2="417.97" gradientTransform="translate(-7627.58) rotate(-180) scale(1 -1)" gradientUnits="userSpaceOnUse">
      <stop offset="0" stop-color="#f7b973"/>
      <stop offset=".25" stop-color="#fac466"/>
      <stop offset=".58" stop-color="#fecd5c"/>
      <stop offset="1" stop-color="#ffd059"/>
    </linearGradient>
    <linearGradient id="linear-gradient-17" x1="-7696.65" y1="446.1" x2="-7699.09" y2="426.43" xlink:href="#linear-gradient-16"/>
    <linearGradient id="linear-gradient-18" x1="-7724.14" y1="443.82" x2="-7726.58" y2="424.15" xlink:href="#linear-gradient-16"/>
    <linearGradient id="linear-gradient-19" x1="-7774.84" y1="443.82" x2="-7777.29" y2="424.15" xlink:href="#linear-gradient-16"/>
    <linearGradient id="linear-gradient-20" x1="68.38" y1="440.21" x2="110.08" y2="440.21" xlink:href="#linear-gradient-2"/>
    <linearGradient id="linear-gradient-21" x1="87.42" y1="460.65" x2="117.11" y2="428.91" xlink:href="#linear-gradient"/>
    <linearGradient id="linear-gradient-22" x1="114.82" y1="440.21" x2="156.51" y2="440.21" xlink:href="#linear-gradient-2"/>
    <linearGradient id="linear-gradient-23" x1="133.86" y1="460.65" x2="163.54" y2="428.91" xlink:href="#linear-gradient"/>
    <linearGradient id="linear-gradient-24" x1="247.71" y1="378.83" x2="251.75" y2="349.76" gradientTransform="translate(494.82 762.04) rotate(-180)" xlink:href="#linear-gradient-12"/>
    <linearGradient id="linear-gradient-25" x1="216.19" y1="374.46" x2="220.22" y2="345.39" gradientTransform="translate(430.55 762.04) rotate(-180)" xlink:href="#linear-gradient-12"/>
    <linearGradient id="linear-gradient-26" x1="249.73" y1="422.02" x2="288.91" y2="349.7" xlink:href="#linear-gradient-12"/>
    <linearGradient id="linear-gradient-27" x1="166.91" y1="422.02" x2="206.09" y2="349.7" xlink:href="#linear-gradient-12"/>
    <linearGradient id="linear-gradient-28" x1="259.55" y1="279.32" x2="280.51" y2="236.73" xlink:href="#linear-gradient-12"/>
    <linearGradient id="linear-gradient-29" x1="220.76" y1="279.32" x2="241.72" y2="236.73" xlink:href="#linear-gradient-12"/>
    <linearGradient id="linear-gradient-30" x1="181.96" y1="279.32" x2="202.92" y2="236.73" xlink:href="#linear-gradient-12"/>
  </defs>
  <g class="cls-18">
    <g id="Layer_1" data-name="Layer 1">
      <g>
        <g>
          <rect class="cls-48" x="541.45" y="437.21" width="8.98" height="11.1" transform="translate(1091.87 885.52) rotate(180)"/>
          <rect class="cls-16" x="541.45" y="437.21" width="2.28" height="11.1" transform="translate(1085.17 885.52) rotate(180)"/>
          <path class="cls-15" d="M530.08,425.7l12.03-66.7c.72-3.06,5.27-3.06,5.99,0l12.03,66.7c1.99,8.47-5.29,16.42-15.02,16.42h0c-9.74,0-17.01-7.95-15.02-16.42Z"/>
          <path class="cls-10" d="M530.08,425.7l12.03-66.7c.2-.87.71-1.49,1.35-1.86l-8.89,68.44c-.32,2.86-.14,5.28.46,7.32h0s1.18,5.27,7.27,9c-8.28-1.35-14.01-8.56-12.22-16.2Z"/>
        </g>
        <g>
          <rect class="cls-48" x="55.12" y="437.21" width="8.98" height="11.1" transform="translate(119.23 885.52) rotate(180)"/>
          <rect class="cls-16" x="55.12" y="437.21" width="2.28" height="11.1" transform="translate(112.52 885.52) rotate(180)"/>
          <path class="cls-9" d="M43.76,425.7l12.03-66.7c.72-3.06,5.27-3.06,5.99,0l12.03,66.7c1.99,8.47-5.29,16.42-15.02,16.42h0c-9.74,0-17.01-7.95-15.02-16.42Z"/>
          <path class="cls-8" d="M43.76,425.7l12.03-66.7c.2-.87.71-1.49,1.35-1.86l-8.89,68.44c-.32,2.86-.14,5.28.46,7.32h0s1.18,5.27,7.27,9c-8.28-1.35-14.01-8.56-12.22-16.2Z"/>
        </g>
        <g>
          <rect class="cls-48" x="507.36" y="414.33" width="8.98" height="11.1" transform="translate(1023.7 839.76) rotate(180)"/>
          <rect class="cls-16" x="507.36" y="414.33" width="2.28" height="11.1" transform="translate(1016.99 839.76) rotate(180)"/>
          <path class="cls-5" d="M496,402.82l12.03-66.7c.72-3.06,5.27-3.06,5.99,0l12.03,66.7c1.99,8.47-5.29,16.42-15.02,16.42h0c-9.74,0-17.01-7.95-15.02-16.42Z"/>
          <path class="cls-6" d="M496,402.82l12.03-66.7c.2-.87.71-1.49,1.35-1.86l-8.89,68.44c-.32,2.86-.14,5.28.46,7.32h0s1.18,5.27,7.27,9c-8.28-1.35-14.01-8.56-12.22-16.2Z"/>
        </g>
        <g>
          <path class="cls-4" d="M544.29,415.57c1.17-1.25,1.66-2.8,1.08-3.47s-2.17-.4-3.57.59c-.43.3-.77.66-1.02,1.04v-3.44c.82.84,2.37.56,3.51-.66,1.17-1.25,1.66-2.8,1.08-3.47-.5-.58-1.78-.45-3.03.25.12-.43.15-.93.09-1.45-.19-1.7-1.06-3.08-1.94-3.07-.88,0-1.71,1.4-1.87,3.1-.05.58.01,1.12.17,1.58-1.33-.84-2.77-1.03-3.3-.41-.57.66-.09,2.22,1.08,3.47,1.13,1.21,2.66,1.49,3.48.68v3.37c-.24-.36-.58-.71-.99-1-1.4-.99-3-1.25-3.57-.59s-.09,2.22,1.08,3.47c1.13,1.21,2.66,1.49,3.48.68v3.37c-.24-.36-.58-.71-.99-1-1.4-.99-3-1.25-3.57-.59-.57.66-.09,2.22,1.08,3.47,1.13,1.21,2.66,1.49,3.48.68v3.37c-.24-.36-.58-.71-.99-1-1.4-.99-3-1.25-3.57-.59s-.09,2.22,1.08,3.47c1.13,1.21,2.66,1.49,3.48.68v3.01h.72v-3.04c.82.84,2.37.56,3.51-.66,1.17-1.25,1.66-2.8,1.08-3.47s-2.17-.4-3.57.59c-.43.3-.77.66-1.02,1.04v-3.44c.82.84,2.37.56,3.51-.66,1.17-1.25,1.66-2.8,1.08-3.47-.57-.66-2.17-.4-3.57.59-.43.3-.77.66-1.02,1.04v-3.44c.82.84,2.37.56,3.51-.66Z"/>
          <path class="cls-3" d="M566.94,435.09c1.17-1.25,1.66-2.8,1.08-3.47-.57-.66-2.17-.4-3.57.59-.43.3-.77.66-1.02,1.04v-3.44c.82.84,2.37.56,3.51-.66,1.17-1.25,1.66-2.8,1.08-3.47-.5-.58-1.78-.45-3.03.25.12-.43.15-.93.09-1.45-.19-1.7-1.06-3.08-1.94-3.07-.88,0-1.71,1.4-1.87,3.1-.05.58.01,1.12.17,1.58-1.33-.84-2.77-1.03-3.3-.41-.57.66-.09,2.22,1.08,3.47,1.13,1.21,2.66,1.49,3.48.68v3.37c-.24-.36-.58-.71-.99-1-1.4-.99-3-1.25-3.57-.59-.57.66-.09,2.22,1.08,3.47,1.13,1.21,2.66,1.49,3.48.68v3.37c-.24-.36-.58-.71-.99-1-1.4-.99-3-1.25-3.57-.59s-.09,2.22,1.08,3.47c1.13,1.21,2.66,1.49,3.48.68v3.37c-.24-.36-.58-.71-.99-1-1.4-.99-3-1.25-3.57-.59-.57.66-.09,2.22,1.08,3.47,1.13,1.21,2.66,1.49,3.48.68v3.01h.72v-3.04c.82.84,2.37.56,3.51-.66,1.17-1.25,1.66-2.8,1.08-3.47-.57-.66-2.17-.4-3.57.59-.43.3-.77.66-1.02,1.04v-3.44c.82.84,2.37.56,3.51-.66,1.17-1.25,1.66-2.8,1.08-3.47s-2.17-.4-3.57.59c-.43.3-.77.66-1.02,1.04v-3.44c.82.84,2.37.56,3.51-.66Z"/>
          <path class="cls-7" d="M465.11,451.14c-.45-1.61-.69-3.31-.69-5.07,0-9.07,6.39-16.65,14.91-18.49-.23-1.07-.35-2.18-.35-3.32,0-8.82,7.15-15.97,15.97-15.97,3.85,0,7.37,1.36,10.13,3.62,3.47-4.18,8.7-6.84,14.56-6.84,10.45,0,18.92,8.47,18.92,18.92,0,.54-.02,1.07-.07,1.59,6.38.55,11.69,4.85,13.7,10.68,6.84,1.92,12.06,7.72,13.13,14.87h-100.2Z"/>
        </g>
        <path class="cls-25" d="M170.99,451.13c.62-2.24.96-4.61.96-7.05,0-12.61-8.87-23.14-20.71-25.7.32-1.49.48-3.03.48-4.62,0-12.25-9.93-22.19-22.19-22.19-5.34,0-10.25,1.89-14.08,5.04-4.82-5.81-12.1-9.5-20.23-9.5-14.52,0-26.29,11.77-26.29,26.29,0,.75.03,1.48.09,2.21-8.87.76-16.24,6.74-19.04,14.85-9.51,2.66-16.75,10.72-18.25,20.66h139.25Z"/>
        <g>
          <rect class="cls-23" x="373.76" y="191.99" width="112.07" height="230.79"/>
          <rect class="cls-20" x="298.15" y="191.99" width="52.62" height="230.79"/>
          <rect class="cls-49" x="356.95" y="191.99" width="16.81" height="230.79"/>
          <rect class="cls-49" x="295.9" y="191.99" width="2.24" height="230.79"/>
          <rect class="cls-21" x="350.76" y="191.99" width="6.19" height="230.79"/>
          <rect class="cls-21" x="289.71" y="191.99" width="6.19" height="230.79"/>
          <rect class="cls-49" x="489.35" y="191.99" width="16.81" height="230.79"/>
          <rect class="cls-21" x="485.81" y="191.99" width="3.54" height="230.79"/>
          <g>
            <rect class="cls-13" x="298.15" y="191.99" width="52.62" height="1.12"/>
            <rect class="cls-13" x="298.15" y="198.95" width="52.62" height="1.12"/>
            <rect class="cls-13" x="298.15" y="205.91" width="52.62" height="1.12"/>
            <rect class="cls-13" x="298.15" y="212.87" width="52.62" height="1.12"/>
            <rect class="cls-13" x="298.15" y="219.83" width="52.62" height="1.12"/>
            <rect class="cls-13" x="298.15" y="226.79" width="52.62" height="1.12"/>
            <rect class="cls-13" x="298.15" y="233.75" width="52.62" height="1.12"/>
            <rect class="cls-13" x="298.15" y="240.71" width="52.62" height="1.12"/>
            <rect class="cls-13" x="298.15" y="247.67" width="52.62" height="1.12"/>
            <rect class="cls-13" x="298.15" y="254.63" width="52.62" height="1.12"/>
            <rect class="cls-13" x="298.15" y="261.59" width="52.62" height="1.12"/>
            <rect class="cls-13" x="298.15" y="268.55" width="52.62" height="1.12"/>
            <rect class="cls-13" x="298.15" y="275.51" width="52.62" height="1.12"/>
            <rect class="cls-13" x="298.15" y="282.47" width="52.62" height="1.12"/>
            <rect class="cls-13" x="298.15" y="289.43" width="52.62" height="1.12"/>
            <rect class="cls-13" x="298.15" y="296.39" width="52.62" height="1.12"/>
            <rect class="cls-13" x="298.15" y="303.35" width="52.62" height="1.12"/>
            <rect class="cls-13" x="298.15" y="310.31" width="52.62" height="1.12"/>
            <rect class="cls-13" x="298.15" y="317.27" width="52.62" height="1.12"/>
            <rect class="cls-13" x="298.15" y="324.23" width="52.62" height="1.12"/>
            <rect class="cls-13" x="298.15" y="331.19" width="52.62" height="1.12"/>
            <rect class="cls-13" x="298.15" y="338.15" width="52.62" height="1.12"/>
            <rect class="cls-13" x="298.15" y="345.11" width="52.62" height="1.12"/>
            <rect class="cls-13" x="298.15" y="352.07" width="52.62" height="1.12"/>
            <rect class="cls-13" x="298.15" y="359.03" width="52.62" height="1.12"/>
            <rect class="cls-13" x="298.15" y="365.99" width="52.62" height="1.12"/>
            <rect class="cls-13" x="298.15" y="372.95" width="52.62" height="1.12"/>
            <rect class="cls-13" x="298.15" y="379.91" width="52.62" height="1.12"/>
            <rect class="cls-13" x="298.15" y="386.87" width="52.62" height="1.12"/>
            <rect class="cls-13" x="298.15" y="393.83" width="52.62" height="1.12"/>
            <rect class="cls-13" x="298.15" y="400.79" width="52.62" height="1.12"/>
            <rect class="cls-13" x="298.15" y="407.75" width="52.62" height="1.12"/>
            <rect class="cls-13" x="298.15" y="414.71" width="52.62" height="1.12"/>
            <rect class="cls-13" x="298.15" y="421.66" width="52.62" height="1.12"/>
          </g>
          <g>
            <rect class="cls-13" x="373.76" y="191.99" width="112.04" height="1.12"/>
            <rect class="cls-13" x="373.76" y="198.95" width="112.04" height="1.12"/>
            <rect class="cls-13" x="373.76" y="205.91" width="112.04" height="1.12"/>
            <rect class="cls-13" x="373.76" y="212.87" width="112.04" height="1.12"/>
            <rect class="cls-13" x="373.76" y="219.83" width="112.04" height="1.12"/>
            <rect class="cls-13" x="373.76" y="226.79" width="112.04" height="1.12"/>
            <rect class="cls-13" x="373.76" y="233.75" width="112.04" height="1.12"/>
            <rect class="cls-13" x="373.76" y="240.71" width="112.04" height="1.12"/>
            <rect class="cls-13" x="373.76" y="247.67" width="112.04" height="1.12"/>
            <rect class="cls-13" x="373.76" y="254.63" width="112.04" height="1.12"/>
            <rect class="cls-13" x="373.76" y="261.59" width="112.04" height="1.12"/>
            <rect class="cls-13" x="373.76" y="268.55" width="112.04" height="1.12"/>
            <rect class="cls-13" x="373.76" y="275.51" width="112.04" height="1.12"/>
            <rect class="cls-13" x="373.76" y="282.47" width="112.04" height="1.12"/>
            <rect class="cls-13" x="373.76" y="289.43" width="112.04" height="1.12"/>
            <rect class="cls-13" x="373.76" y="296.39" width="112.04" height="1.12"/>
            <rect class="cls-13" x="373.76" y="303.35" width="112.04" height="1.12"/>
            <rect class="cls-13" x="373.76" y="310.31" width="112.04" height="1.12"/>
            <rect class="cls-13" x="373.76" y="317.27" width="112.04" height="1.12"/>
            <rect class="cls-13" x="373.76" y="324.23" width="112.04" height="1.12"/>
            <rect class="cls-13" x="373.76" y="331.19" width="112.04" height="1.12"/>
            <rect class="cls-13" x="373.76" y="338.15" width="112.04" height="1.12"/>
            <rect class="cls-13" x="373.76" y="345.11" width="112.04" height="1.12"/>
            <rect class="cls-13" x="373.76" y="352.07" width="112.04" height="1.12"/>
            <rect class="cls-13" x="373.76" y="359.03" width="112.04" height="1.12"/>
            <rect class="cls-13" x="373.76" y="365.99" width="112.04" height="1.12"/>
            <rect class="cls-13" x="373.76" y="372.95" width="112.04" height="1.12"/>
            <rect class="cls-13" x="373.76" y="379.91" width="112.04" height="1.12"/>
            <rect class="cls-13" x="373.76" y="386.87" width="112.04" height="1.12"/>
            <rect class="cls-13" x="373.76" y="393.83" width="112.04" height="1.12"/>
            <rect class="cls-13" x="373.76" y="400.79" width="112.04" height="1.12"/>
            <rect class="cls-13" x="373.76" y="407.75" width="112.04" height="1.12"/>
            <rect class="cls-13" x="373.76" y="414.71" width="112.04" height="1.12"/>
            <rect class="cls-13" x="373.76" y="421.66" width="112.04" height="1.12"/>
          </g>
        </g>
        <rect class="cls-1" x="369.86" y="422.78" width="146.48" height="28.36"/>
        <rect class="cls-21" x="286.73" y="422.78" width="83.13" height="28.36"/>
        <g>
          <rect class="cls-49" x="354.87" y="186.69" width="153.47" height="5.3"/>
          <rect class="cls-17" x="288.05" y="186.69" width="66.82" height="5.3"/>
          <rect class="cls-17" x="286.07" y="181.39" width="66.82" height="5.3"/>
          <rect class="cls-49" x="352.9" y="181.39" width="157.42" height="5.3"/>
          <rect class="cls-13" x="288.05" y="186.69" width="220.29" height="1.23"/>
        </g>
        <g>
          <rect class="cls-13" x="350.76" y="191.99" width="23" height="1.23"/>
          <rect class="cls-13" x="289.71" y="191.99" width="8.44" height="1.23"/>
          <rect class="cls-13" x="373.76" y="191.99" width="112.04" height=".78"/>
          <rect class="cls-13" x="298.15" y="191.99" width="52.62" height=".78"/>
          <rect class="cls-13" x="485.84" y="191.99" width="20.32" height="1.23"/>
          <rect class="cls-13" x="350.76" y="241.85" width="23" height="1.23"/>
          <rect class="cls-13" x="485.84" y="241.85" width="20.32" height="1.23"/>
          <rect class="cls-13" x="350.76" y="291.71" width="23" height="1.23"/>
          <rect class="cls-13" x="485.84" y="291.71" width="20.32" height="1.23"/>
          <rect class="cls-13" x="350.76" y="341.57" width="23" height="1.23"/>
          <rect class="cls-13" x="485.84" y="341.57" width="20.32" height="1.23"/>
          <rect class="cls-13" x="350.76" y="391.43" width="23" height="1.23"/>
          <rect class="cls-13" x="485.84" y="391.43" width="20.32" height="1.23"/>
        </g>
        <g>
          <path class="cls-26" d="M497.74,409.22c-1.44,0-2.84.14-4.18.42-.99-1.33-2.35-2.15-3.85-2.15-2.5,0-4.61,2.28-5.29,5.4-.71-.1-1.45-.15-2.2-.15-1.61,0-3.15.24-4.56.69-.98-2.09-2.69-3.48-4.64-3.48s-3.68,1.4-4.66,3.52c-2.49-1.54-5.61-2.46-8.99-2.46-1.37,0-2.7.15-3.96.43-1.01-1.81-2.6-2.97-4.39-2.97s-3.35,1.15-4.36,2.93c-.55-.25-1.14-.39-1.75-.39-1.12,0-2.16.46-3.03,1.25-2.91-1.89-6.62-3.03-10.66-3.03-1.44,0-2.84.14-4.18.42-.99-1.33-2.35-2.15-3.85-2.15-2.5,0-4.61,2.28-5.29,5.4-.71-.1-1.45-.15-2.2-.15-1.61,0-3.15.24-4.56.69-.98-2.09-2.69-3.48-4.64-3.48s-3.68,1.4-4.66,3.52c-2.49-1.54-5.61-2.46-8.99-2.46-1.37,0-2.7.15-3.96.43-1.01-1.81-2.6-2.97-4.39-2.97s-3.35,1.15-4.36,2.93c-.55-.25-1.14-.39-1.75-.39-1.47,0-2.81.79-3.79,2.07-1.03-.22-2.12-.34-3.24-.34-6.93,0-12.54,4.5-12.54,10.05h155.84c0-7.49-7.58-13.57-16.93-13.57Z"/>
          <polygon class="cls-2" points="408.42 416.2 406.71 417.99 408.42 419.78 410.13 417.99 408.42 416.2"/>
          <polygon class="cls-2" points="383.36 412.87 381.65 414.66 383.36 416.44 385.07 414.66 383.36 412.87"/>
          <polygon class="cls-2" points="424.41 412 423.14 413.33 424.41 414.66 425.68 413.33 424.41 412"/>
          <polygon class="cls-2" points="371.6 417.99 370.33 419.31 371.6 420.64 372.87 419.31 371.6 417.99"/>
          <g>
            <polygon class="cls-2" points="501.47 413.96 499.76 415.74 501.47 417.53 503.18 415.74 501.47 413.96"/>
            <polygon class="cls-2" points="474.93 416.2 473.22 417.99 474.93 419.78 476.64 417.99 474.93 416.2"/>
            <polygon class="cls-2" points="449.87 412.87 448.16 414.66 449.87 416.44 451.58 414.66 449.87 412.87"/>
            <polygon class="cls-2" points="490.92 412 489.65 413.33 490.92 414.66 492.19 413.33 490.92 412"/>
            <polygon class="cls-2" points="438.11 417.99 436.84 419.31 438.11 420.64 439.38 419.31 438.11 417.99"/>
          </g>
        </g>
        <g>
          <g>
            <rect class="cls-27" x="393.81" y="323.51" width="70.73" height="50.84"/>
            <polygon class="cls-12" points="395.04 339.51 395.04 373.1 428.63 373.1 395.04 339.51"/>
            <rect class="cls-20" x="465.77" y="322.27" width="2.67" height="53.31" transform="translate(934.21 697.85) rotate(180)"/>
            <g>
              <rect class="cls-51" x="463.3" y="322.27" width="2.47" height="53.31" transform="translate(929.07 697.85) rotate(180)"/>
              <rect class="cls-51" x="392.57" y="322.27" width="2.47" height="53.31" transform="translate(787.61 697.85) rotate(180)"/>
              <rect class="cls-50" x="462.56" y="322.27" width=".73" height="53.31" transform="translate(925.86 697.85) rotate(180)"/>
              <rect class="cls-51" x="427.93" y="289.38" width="2.47" height="68.25" transform="translate(752.68 -105.67) rotate(90)"/>
              <rect class="cls-51" x="427.93" y="340.21" width="2.47" height="68.25" transform="translate(803.51 -54.83) rotate(90)"/>
            </g>
            <rect class="cls-51" x="427.93" y="305.1" width="2.47" height="69.47" transform="translate(769 -89.34) rotate(90)"/>
            <rect class="cls-51" x="428.63" y="323.9" width="2.47" height="16.33"/>
          </g>
          <rect class="cls-13" x="392.57" y="388.85" width="82.32" height="2.95"/>
          <rect class="cls-17" x="392.57" y="375.58" width="6.45" height="13.27"/>
          <rect class="cls-49" x="399.02" y="375.58" width="75.87" height="13.27"/>
          <rect class="cls-13" x="392.57" y="378.55" width="82.32" height=".93"/>
          <path class="cls-28" d="M471.67,371.78h-75.95c-1.25,0-2.27,1.02-2.27,2.27v1.75h80.48v-1.75c0-1.25-1.02-2.27-2.27-2.27Z"/>
        </g>
        <g>
          <g>
            <rect class="cls-30" x="393.81" y="207.29" width="70.73" height="50.84"/>
            <polygon class="cls-12" points="395.04 223.33 395.04 256.92 428.63 256.92 395.04 223.33"/>
            <rect class="cls-20" x="465.77" y="206.05" width="2.67" height="53.31" transform="translate(934.21 465.42) rotate(180)"/>
            <g>
              <rect class="cls-51" x="463.3" y="206.05" width="2.47" height="53.31" transform="translate(929.07 465.42) rotate(180)"/>
              <rect class="cls-51" x="392.57" y="206.05" width="2.47" height="53.31" transform="translate(787.61 465.42) rotate(180)"/>
              <rect class="cls-50" x="462.56" y="206.05" width=".73" height="53.31" transform="translate(925.86 465.42) rotate(180)"/>
              <rect class="cls-51" x="427.93" y="173.16" width="2.47" height="68.25" transform="translate(636.46 -221.88) rotate(90)"/>
              <rect class="cls-51" x="427.93" y="224" width="2.47" height="68.25" transform="translate(687.3 -171.04) rotate(90)"/>
            </g>
            <rect class="cls-51" x="427.93" y="188.88" width="2.47" height="69.47" transform="translate(652.79 -205.55) rotate(90)"/>
            <rect class="cls-51" x="428.63" y="207.69" width="2.47" height="16.33"/>
          </g>
          <rect class="cls-13" x="392.57" y="272.63" width="82.32" height="2.95"/>
          <rect class="cls-17" x="392.57" y="259.36" width="6.45" height="13.27"/>
          <rect class="cls-49" x="399.02" y="259.36" width="75.87" height="13.27"/>
          <rect class="cls-13" x="392.57" y="262.33" width="82.32" height=".93"/>
          <path class="cls-38" d="M471.67,255.57h-75.95c-1.25,0-2.27,1.02-2.27,2.27v1.75h80.48v-1.75c0-1.25-1.02-2.27-2.27-2.27Z"/>
        </g>
        <g>
          <rect class="cls-21" x="177.35" y="436.96" width="19.52" height="7.09" transform="translate(374.22 881.02) rotate(180)"/>
          <rect class="cls-21" x="177.35" y="429.87" width="9.76" height="7.09" transform="translate(364.46 866.84) rotate(180)"/>
          <rect class="cls-21" x="84.74" y="422.78" width="92.61" height="28.36" transform="translate(262.1 873.93) rotate(180)"/>
          <rect class="cls-21" x="177.35" y="444.05" width="29.27" height="7.09" transform="translate(383.98 895.2) rotate(180)"/>
          <rect class="cls-1" x="187.11" y="429.87" width="149.98" height="7.09" transform="translate(524.2 866.84) rotate(180)"/>
          <rect class="cls-1" x="196.87" y="436.96" width="149.98" height="7.09" transform="translate(543.72 881.02) rotate(180)"/>
          <rect class="cls-11" x="196.87" y="442.57" width="149.98" height="1.49" transform="translate(543.72 886.62) rotate(180)"/>
          <rect class="cls-11" x="187.11" y="435.48" width="149.98" height="1.49" transform="translate(524.2 872.44) rotate(180)"/>
          <rect class="cls-1" x="206.63" y="444.05" width="149.98" height="7.09" transform="translate(563.23 895.2) rotate(180)"/>
          <rect class="cls-1" x="177.35" y="422.78" width="149.98" height="7.09" transform="translate(504.68 852.66) rotate(180)"/>
          <rect class="cls-11" x="177.35" y="428.39" width="149.98" height="1.49" transform="translate(504.68 858.26) rotate(180)"/>
        </g>
        <g>
          <g>
            <rect class="cls-49" x="149.8" y="211.29" width="167.11" height="5.3"/>
            <rect class="cls-17" x="82.98" y="211.29" width="66.82" height="5.3"/>
            <rect class="cls-17" x="81" y="205.99" width="66.82" height="5.3"/>
            <rect class="cls-49" x="147.82" y="205.99" width="169.09" height="5.3"/>
            <rect class="cls-13" x="82.98" y="211.29" width="233.93" height="1.23"/>
          </g>
          <rect class="cls-14" x="166.61" y="216.6" width="129.95" height="206.19"/>
          <g>
            <rect class="cls-13" x="166.61" y="216.6" width="129.95" height="1"/>
            <rect class="cls-13" x="166.61" y="222.81" width="129.95" height="1"/>
            <rect class="cls-13" x="166.61" y="229.03" width="129.95" height="1"/>
            <rect class="cls-13" x="166.61" y="235.25" width="129.95" height="1"/>
            <rect class="cls-13" x="166.61" y="241.47" width="129.95" height="1"/>
            <rect class="cls-13" x="166.61" y="247.69" width="129.95" height="1"/>
            <rect class="cls-13" x="166.61" y="253.9" width="129.95" height="1"/>
            <rect class="cls-13" x="166.61" y="260.12" width="129.95" height="1"/>
            <rect class="cls-13" x="166.61" y="266.34" width="129.95" height="1"/>
            <rect class="cls-13" x="166.61" y="272.56" width="129.95" height="1"/>
            <rect class="cls-13" x="166.61" y="278.77" width="129.95" height="1"/>
            <rect class="cls-13" x="166.61" y="284.99" width="129.95" height="1"/>
            <rect class="cls-13" x="166.61" y="291.21" width="129.95" height="1"/>
            <rect class="cls-13" x="166.61" y="297.43" width="129.95" height="1"/>
            <rect class="cls-13" x="166.61" y="303.65" width="129.95" height="1"/>
            <rect class="cls-13" x="166.61" y="309.86" width="129.95" height="1"/>
            <rect class="cls-13" x="166.61" y="316.08" width="129.95" height="1"/>
            <rect class="cls-13" x="166.61" y="322.3" width="129.95" height="1"/>
            <rect class="cls-13" x="166.61" y="328.52" width="129.95" height="1"/>
            <rect class="cls-13" x="166.61" y="334.74" width="129.95" height="1"/>
            <rect class="cls-13" x="166.61" y="340.95" width="129.95" height="1"/>
            <rect class="cls-13" x="166.61" y="347.17" width="129.95" height="1"/>
            <rect class="cls-13" x="166.61" y="353.39" width="129.95" height="1"/>
            <rect class="cls-13" x="166.61" y="359.61" width="129.95" height="1"/>
            <rect class="cls-13" x="166.61" y="365.82" width="129.95" height="1"/>
            <rect class="cls-13" x="166.61" y="372.04" width="129.95" height="1"/>
            <rect class="cls-13" x="166.61" y="378.26" width="129.95" height="1"/>
            <rect class="cls-13" x="166.61" y="384.48" width="129.95" height="1"/>
            <rect class="cls-13" x="166.61" y="390.7" width="129.95" height="1"/>
            <rect class="cls-13" x="166.61" y="396.91" width="129.95" height="1"/>
            <rect class="cls-13" x="166.61" y="403.13" width="129.95" height="1"/>
            <rect class="cls-13" x="166.61" y="409.35" width="129.95" height="1"/>
            <rect class="cls-13" x="166.61" y="415.57" width="129.95" height="1"/>
            <rect class="cls-13" x="166.61" y="421.78" width="129.95" height="1"/>
          </g>
          <rect class="cls-20" x="93.18" y="216.6" width="53.08" height="206.19"/>
          <g>
            <rect class="cls-49" x="300.1" y="216.6" width="16.81" height="206.19"/>
            <rect class="cls-21" x="296.56" y="216.6" width="3.54" height="206.19"/>
          </g>
          <g>
            <rect class="cls-49" x="149.8" y="216.6" width="16.81" height="206.19"/>
            <rect class="cls-21" x="146.26" y="216.6" width="3.54" height="206.19"/>
          </g>
          <g>
            <rect class="cls-13" x="146.26" y="216.6" width="20.35" height="1.23"/>
            <rect class="cls-13" x="84.74" y="216.6" width="8.44" height="1.23"/>
            <rect class="cls-13" x="296.56" y="216.6" width="20.35" height="1.23"/>
            <rect class="cls-13" x="146.26" y="260.51" width="20.35" height="1.23"/>
            <rect class="cls-13" x="296.56" y="260.51" width="20.35" height="1.23"/>
            <rect class="cls-13" x="146.26" y="304.42" width="20.35" height="1.23"/>
            <rect class="cls-13" x="296.56" y="304.42" width="20.35" height="1.23"/>
            <rect class="cls-13" x="146.26" y="348.33" width="20.35" height="1.23"/>
            <rect class="cls-13" x="296.56" y="348.33" width="20.35" height="1.23"/>
            <rect class="cls-13" x="146.26" y="392.24" width="20.35" height="1.23"/>
            <rect class="cls-13" x="84.74" y="260.51" width="8.44" height="1.23"/>
            <rect class="cls-13" x="84.74" y="304.42" width="8.44" height="1.23"/>
            <rect class="cls-13" x="84.74" y="348.33" width="8.44" height="1.23"/>
            <rect class="cls-13" x="84.74" y="392.24" width="8.44" height="1.23"/>
            <rect class="cls-13" x="296.56" y="392.24" width="20.35" height="1.23"/>
          </g>
          <rect class="cls-49" x="90.94" y="216.6" width="2.24" height="206.19"/>
          <rect class="cls-21" x="84.74" y="216.6" width="6.19" height="206.19"/>
          <g>
            <rect class="cls-13" x="93.18" y="216.6" width="53.08" height="1"/>
            <rect class="cls-13" x="93.18" y="222.81" width="53.08" height="1"/>
            <rect class="cls-13" x="93.18" y="229.03" width="53.08" height="1"/>
            <rect class="cls-13" x="93.18" y="235.25" width="53.08" height="1"/>
            <rect class="cls-13" x="93.18" y="241.47" width="53.08" height="1"/>
            <rect class="cls-13" x="93.18" y="247.69" width="53.08" height="1"/>
            <rect class="cls-13" x="93.18" y="253.9" width="53.08" height="1"/>
            <rect class="cls-13" x="93.18" y="260.12" width="53.08" height="1"/>
            <rect class="cls-13" x="93.18" y="266.34" width="53.08" height="1"/>
            <rect class="cls-13" x="93.18" y="272.56" width="53.08" height="1"/>
            <rect class="cls-13" x="93.18" y="278.77" width="53.08" height="1"/>
            <rect class="cls-13" x="93.18" y="284.99" width="53.08" height="1"/>
            <rect class="cls-13" x="93.18" y="291.21" width="53.08" height="1"/>
            <rect class="cls-13" x="93.18" y="297.43" width="53.08" height="1"/>
            <rect class="cls-13" x="93.18" y="303.65" width="53.08" height="1"/>
            <rect class="cls-13" x="93.18" y="309.86" width="53.08" height="1"/>
            <rect class="cls-13" x="93.18" y="316.08" width="53.08" height="1"/>
            <rect class="cls-13" x="93.18" y="322.3" width="53.08" height="1"/>
            <rect class="cls-13" x="93.18" y="328.52" width="53.08" height="1"/>
            <rect class="cls-13" x="93.18" y="334.74" width="53.08" height="1"/>
            <rect class="cls-13" x="93.18" y="340.95" width="53.08" height="1"/>
            <rect class="cls-13" x="93.18" y="347.17" width="53.08" height="1"/>
            <rect class="cls-13" x="93.18" y="353.39" width="53.08" height="1"/>
            <rect class="cls-13" x="93.18" y="359.61" width="53.08" height="1"/>
            <rect class="cls-13" x="93.18" y="365.82" width="53.08" height="1"/>
            <rect class="cls-13" x="93.18" y="372.04" width="53.08" height="1"/>
            <rect class="cls-13" x="93.18" y="378.26" width="53.08" height="1"/>
            <rect class="cls-13" x="93.18" y="384.48" width="53.08" height="1"/>
            <rect class="cls-13" x="93.18" y="390.7" width="53.08" height="1"/>
            <rect class="cls-13" x="93.18" y="396.91" width="53.08" height="1"/>
            <rect class="cls-13" x="93.18" y="403.13" width="53.08" height="1"/>
            <rect class="cls-13" x="93.18" y="409.35" width="53.08" height="1"/>
            <rect class="cls-13" x="93.18" y="415.57" width="53.08" height="1"/>
            <rect class="cls-13" x="93.18" y="421.78" width="53.08" height="1"/>
          </g>
        </g>
        <g>
          <path class="cls-39" d="M120.24,422.77c-1.15-1.23-1.62-2.75-1.06-3.4.56-.65,2.13-.39,3.5.58.42.3.76.65,1,1.02v-3.36c-.8.83-2.32.55-3.44-.64-1.15-1.23-1.62-2.75-1.06-3.4.49-.57,1.75-.44,2.97.24-.11-.42-.15-.91-.09-1.42.19-1.67,1.04-3.01,1.9-3.01.86,0,1.68,1.37,1.83,3.04.05.57-.01,1.1-.17,1.55,1.3-.82,2.71-1.01,3.24-.4.56.65.09,2.17-1.06,3.4-1.11,1.18-2.6,1.46-3.41.67v3.3c.24-.35.57-.69.97-.98,1.37-.97,2.94-1.23,3.5-.58.56.65.09,2.17-1.06,3.4-1.11,1.18-2.6,1.46-3.41.67v3.3c.24-.35.57-.69.97-.98,1.37-.97,2.94-1.23,3.5-.58.56.65.09,2.17-1.06,3.4-1.11,1.18-2.6,1.46-3.41.67v3.3c.24-.35.57-.69.97-.98,1.37-.97,2.94-1.23,3.5-.58.56.65.09,2.17-1.06,3.4-1.11,1.18-2.6,1.46-3.41.67v2.95h-.7v-2.98c-.8.83-2.32.55-3.44-.64-1.15-1.23-1.62-2.75-1.06-3.4.56-.65,2.13-.39,3.5.58.42.3.76.65,1,1.02v-3.36c-.8.83-2.32.55-3.44-.64-1.15-1.23-1.62-2.75-1.06-3.4.56-.65,2.13-.39,3.5.58.42.3.76.65,1,1.02v-3.36c-.8.83-2.32.55-3.44-.64Z"/>
          <path class="cls-40" d="M67.11,431.24c-1.15-1.23-1.62-2.75-1.06-3.4.56-.65,2.13-.39,3.5.58.42.3.76.65,1,1.02v-3.36c-.8.83-2.32.55-3.44-.64-1.15-1.23-1.62-2.75-1.06-3.4.49-.57,1.75-.44,2.97.24-.11-.42-.15-.91-.09-1.42.19-1.67,1.04-3.01,1.9-3.01s1.68,1.37,1.83,3.04c.05.57-.01,1.1-.17,1.55,1.3-.82,2.71-1.01,3.24-.4.56.65.09,2.17-1.06,3.4-1.11,1.18-2.6,1.46-3.41.67v3.3c.24-.35.57-.69.97-.98,1.37-.97,2.94-1.23,3.5-.58.56.65.09,2.17-1.06,3.4-1.11,1.18-2.6,1.46-3.41.67v3.3c.24-.35.57-.69.97-.98,1.37-.97,2.94-1.23,3.5-.58.56.65.09,2.17-1.06,3.4-1.11,1.18-2.6,1.46-3.41.67v3.3c.24-.35.57-.69.97-.98,1.37-.97,2.94-1.23,3.5-.58.56.65.09,2.17-1.06,3.4-1.11,1.18-2.6,1.46-3.41.67v2.95h-.7v-2.98c-.8.83-2.32.55-3.44-.64-1.15-1.23-1.62-2.75-1.06-3.4.56-.65,2.13-.39,3.5.58.42.3.76.65,1,1.02v-3.36c-.8.83-2.32.55-3.44-.64-1.15-1.23-1.62-2.75-1.06-3.4.56-.65,2.13-.39,3.5.58.42.3.76.65,1,1.02v-3.36c-.8.83-2.32.55-3.44-.64Z"/>
          <path class="cls-41" d="M94.6,428.95c-1.15-1.23-1.62-2.75-1.06-3.4.56-.65,2.13-.39,3.5.58.42.3.76.65,1,1.02v-3.36c-.8.83-2.32.55-3.44-.64-1.15-1.23-1.62-2.75-1.06-3.4.49-.57,1.75-.44,2.97.24-.11-.42-.15-.91-.09-1.42.19-1.67,1.04-3.01,1.9-3.01s1.68,1.37,1.83,3.04c.05.57-.01,1.1-.17,1.55,1.3-.82,2.71-1.01,3.24-.4.56.65.09,2.17-1.06,3.4-1.11,1.18-2.6,1.46-3.41.67v3.3c.24-.35.57-.69.97-.98,1.37-.97,2.94-1.23,3.5-.58.56.65.09,2.17-1.06,3.4-1.11,1.18-2.6,1.46-3.41.67v3.3c.24-.35.57-.69.97-.98,1.37-.97,2.94-1.23,3.5-.58.56.65.09,2.17-1.06,3.4-1.11,1.18-2.6,1.46-3.41.67v3.3c.24-.35.57-.69.97-.98,1.37-.97,2.94-1.23,3.5-.58.56.65.09,2.17-1.06,3.4-1.11,1.18-2.6,1.46-3.41.67v2.95h-.7v-2.98c-.8.83-2.32.55-3.44-.64-1.15-1.23-1.62-2.75-1.06-3.4.56-.65,2.13-.39,3.5.58.42.3.76.65,1,1.02v-3.36c-.8.83-2.32.55-3.44-.64-1.15-1.23-1.62-2.75-1.06-3.4.56-.65,2.13-.39,3.5.58.42.3.76.65,1,1.02v-3.36c-.8.83-2.32.55-3.44-.64Z"/>
          <path class="cls-29" d="M145.3,428.95c-1.15-1.23-1.62-2.75-1.06-3.4.56-.65,2.13-.39,3.5.58.42.3.76.65,1,1.02v-3.36c-.8.83-2.32.55-3.44-.64-1.15-1.23-1.62-2.75-1.06-3.4.49-.57,1.75-.44,2.97.24-.11-.42-.15-.91-.09-1.42.19-1.67,1.04-3.01,1.9-3.01s1.68,1.37,1.83,3.04c.05.57-.01,1.1-.17,1.55,1.3-.82,2.71-1.01,3.24-.4.56.65.09,2.17-1.06,3.4-1.11,1.18-2.6,1.46-3.41.67v3.3c.24-.35.57-.69.97-.98,1.37-.97,2.94-1.23,3.5-.58.56.65.09,2.17-1.06,3.4-1.11,1.18-2.6,1.46-3.41.67v3.3c.24-.35.57-.69.97-.98,1.37-.97,2.94-1.23,3.5-.58.56.65.09,2.17-1.06,3.4-1.11,1.18-2.6,1.46-3.41.67v3.3c.24-.35.57-.69.97-.98,1.37-.97,2.94-1.23,3.5-.58.56.65.09,2.17-1.06,3.4-1.11,1.18-2.6,1.46-3.41.67v2.95h-.7v-2.98c-.8.83-2.32.55-3.44-.64-1.15-1.23-1.62-2.75-1.06-3.4.56-.65,2.13-.39,3.5.58.42.3.76.65,1,1.02v-3.36c-.8.83-2.32.55-3.44-.64-1.15-1.23-1.62-2.75-1.06-3.4.56-.65,2.13-.39,3.5.58.42.3.76.65,1,1.02v-3.36c-.8.83-2.32.55-3.44-.64Z"/>
          <g>
            <path class="cls-32" d="M97.16,435.17c-.67-3.34-4.42-5.9-8.95-5.9-3.88,0-7.2,1.88-8.48,4.52-.82-.8-1.94-1.3-3.18-1.3h0c-2.51,0-4.55,2.04-4.55,4.55v3.93c-2.28,2.57-3.62,5.69-3.62,9.04,0,.38.02.76.05,1.13h41.59c.03-.37.05-.75.05-1.13,0-6.7-5.34-12.44-12.91-14.84Z"/>
            <path class="cls-31" d="M125.52,442.11v-5.07c0-2.51-2.04-4.55-4.55-4.55h0c-.58,0-1.14.11-1.65.31v-1.21c0-2.51-2.04-4.55-4.55-4.55h0c-2.19,0-4.02,1.55-4.45,3.61-2.73-.76-5.66-1.17-8.73-1.17-1.71,0-3.38.13-5,.38v-.45c0-2.51-2.04-4.55-4.55-4.55h0c-2.51,0-4.55,2.04-4.55,4.55v3.32c-6.96,3.53-11.55,9.6-11.55,16.49,0,.65.04,1.29.12,1.92h51.04c.08-.63.12-1.27.12-1.92,0-2.51-.61-4.91-1.72-7.12Z"/>
          </g>
          <g>
            <path class="cls-33" d="M143.6,435.17c-.67-3.34-4.42-5.9-8.95-5.9-3.88,0-7.2,1.88-8.48,4.52-.82-.8-1.94-1.3-3.18-1.3h0c-2.51,0-4.55,2.04-4.55,4.55v3.93c-2.28,2.57-3.62,5.69-3.62,9.04,0,.38.02.76.05,1.13h41.59c.03-.37.05-.75.05-1.13,0-6.7-5.34-12.44-12.91-14.84Z"/>
            <path class="cls-34" d="M171.96,442.11v-5.07c0-2.51-2.04-4.55-4.55-4.55h0c-.58,0-1.14.11-1.65.31v-1.21c0-2.51-2.04-4.55-4.55-4.55h0c-2.19,0-4.02,1.55-4.45,3.61-2.73-.76-5.66-1.17-8.73-1.17-1.71,0-3.38.13-5,.38v-.45c0-2.51-2.04-4.55-4.55-4.55h0c-2.51,0-4.55,2.04-4.55,4.55v3.32c-6.96,3.53-11.55,9.6-11.55,16.49,0,.65.04,1.29.12,1.92h51.04c.08-.63.12-1.27.12-1.92,0-2.51-.61-4.91-1.72-7.12Z"/>
          </g>
        </g>
        <g>
          <g>
            <rect class="cls-43" x="231.87" y="339.26" width="31.08" height="83.53" transform="translate(494.82 762.04) rotate(180)"/>
            <rect class="cls-46" x="260.52" y="339.26" width="2.43" height="83.53" transform="translate(523.47 762.04) rotate(180)"/>
            <rect class="cls-46" x="231.87" y="339.26" width="2.43" height="83.53" transform="translate(466.16 762.04) rotate(180)"/>
            <rect class="cls-22" x="259.48" y="339.26" width="1.05" height="83.53" transform="translate(520 762.04) rotate(180)"/>
            <rect class="cls-22" x="230.82" y="339.26" width="1.05" height="83.53" transform="translate(462.69 762.04) rotate(180)"/>
            <rect class="cls-46" x="245.89" y="327.66" width="3.03" height="26.23" transform="translate(588.18 93.37) rotate(90)"/>
            <rect class="cls-46" x="222.49" y="384.75" width="49.85" height="26.23" transform="translate(645.27 150.45) rotate(90)"/>
            <rect class="cls-36" x="199.74" y="339.26" width="31.08" height="83.53" transform="translate(430.55 762.04) rotate(180)"/>
            <rect class="cls-46" x="228.39" y="339.26" width="2.43" height="83.53" transform="translate(459.21 762.04) rotate(180)"/>
            <rect class="cls-46" x="199.74" y="339.26" width="2.43" height="83.53" transform="translate(401.9 762.04) rotate(180)"/>
            <rect class="cls-22" x="227.35" y="339.26" width="1.05" height="83.53" transform="translate(455.74 762.04) rotate(180)"/>
            <rect class="cls-46" x="213.76" y="327.66" width="3.03" height="26.23" transform="translate(556.05 125.5) rotate(90)"/>
            <rect class="cls-46" x="190.35" y="384.75" width="49.85" height="26.23" transform="translate(613.14 182.58) rotate(90)"/>
            <polygon class="cls-12" points="202.16 350.87 202.16 372.94 224.23 372.94 202.16 350.87"/>
            <polygon class="cls-12" points="234.29 350.87 234.29 372.94 256.36 372.94 234.29 350.87"/>
          </g>
          <rect class="cls-50" x="234.29" y="379" width=".88" height="12" transform="translate(469.46 770) rotate(180)"/>
          <rect class="cls-51" x="235.16" y="379" width="2.81" height="12" transform="translate(473.13 770) rotate(180)"/>
          <rect class="cls-50" x="224.72" y="379" width=".88" height="12" transform="translate(450.31 770) rotate(180)"/>
          <rect class="cls-51" x="225.58" y="379" width="2.81" height="12" transform="translate(453.98 770) rotate(180)"/>
          <rect class="cls-51" x="263.83" y="339.26" width="2.99" height="83.53" transform="translate(530.65 762.04) rotate(180)"/>
          <rect class="cls-50" x="262.95" y="339.26" width=".89" height="83.53" transform="translate(526.78 762.04) rotate(180)"/>
          <rect class="cls-51" x="279.57" y="339.26" width="2.99" height="83.53" transform="translate(562.13 762.04) rotate(180)"/>
          <rect class="cls-50" x="278.69" y="339.26" width=".89" height="83.53" transform="translate(558.26 762.04) rotate(180)"/>
          <rect class="cls-51" x="181.01" y="339.26" width="2.99" height="83.53" transform="translate(365.01 762.04) rotate(180)"/>
          <rect class="cls-50" x="180.13" y="336.27" width=".89" height="86.51" transform="translate(361.14 759.06) rotate(180)"/>
          <rect class="cls-51" x="196.75" y="339.26" width="2.99" height="83.53" transform="translate(396.49 762.04) rotate(180)"/>
          <rect class="cls-50" x="195.87" y="339.26" width=".89" height="83.53" transform="translate(392.62 762.04) rotate(180)"/>
          <rect class="cls-51" x="272.05" y="412.28" width="2.99" height="18.03" transform="translate(694.84 147.75) rotate(90)"/>
          <rect class="cls-51" x="188.44" y="413.53" width="2.99" height="15.53" transform="translate(611.22 231.36) rotate(90)"/>
          <rect class="cls-44" x="266.82" y="339.26" width="11.87" height="80.54"/>
          <rect class="cls-42" x="184" y="339.26" width="11.87" height="80.54"/>
          <rect class="cls-51" x="230.29" y="286.99" width="2.99" height="101.55" transform="translate(569.55 105.98) rotate(90)"/>
        </g>
        <g>
          <g>
            <g>
              <rect class="cls-24" x="326.63" y="206.05" width="15.09" height="53.31" transform="translate(668.35 465.42) rotate(180)"/>
              <rect class="cls-23" x="326.2" y="206.05" width="3.75" height="53.31" transform="translate(656.15 465.42) rotate(180)"/>
            </g>
            <g>
              <g>
                <rect class="cls-50" x="328.88" y="206.05" width="2.14" height="53.31" transform="translate(659.9 465.42) rotate(180)"/>
                <rect class="cls-50" x="340.71" y="206.05" width="1.01" height="53.31" transform="translate(682.43 465.42) rotate(180)"/>
                <rect class="cls-51" x="331.02" y="206.05" width=".86" height="53.31" transform="translate(662.9 465.42) rotate(180)"/>
              </g>
              <rect class="cls-50" x="334.8" y="201.86" width="2.72" height="11.11" transform="translate(128.75 543.58) rotate(-90)"/>
              <rect class="cls-50" x="334.8" y="227.15" width="2.72" height="11.11" transform="translate(103.45 568.87) rotate(-90)"/>
              <rect class="cls-50" x="334.8" y="252.45" width="2.72" height="11.11" transform="translate(78.16 594.17) rotate(-90)"/>
            </g>
          </g>
          <g>
            <rect class="cls-51" x="338.38" y="259.36" width="3.34" height="3.89"/>
            <rect class="cls-50" x="323.78" y="259.36" width="14.6" height="3.89"/>
          </g>
        </g>
        <g>
          <g>
            <g>
              <rect class="cls-24" x="124.8" y="230.66" width="15.09" height="53.31" transform="translate(264.69 514.62) rotate(180)"/>
              <rect class="cls-23" x="124.37" y="230.66" width="3.75" height="53.31" transform="translate(252.5 514.62) rotate(180)"/>
            </g>
            <g>
              <g>
                <rect class="cls-50" x="127.05" y="230.66" width="2.14" height="53.31" transform="translate(256.25 514.62) rotate(180)"/>
                <rect class="cls-50" x="138.89" y="230.66" width="1.01" height="53.31" transform="translate(278.78 514.62) rotate(180)"/>
                <rect class="cls-51" x="129.19" y="230.66" width=".86" height="53.31" transform="translate(259.24 514.62) rotate(180)"/>
              </g>
              <rect class="cls-50" x="132.97" y="226.46" width="2.72" height="11.11" transform="translate(-97.68 366.35) rotate(-90)"/>
              <rect class="cls-50" x="132.97" y="251.76" width="2.72" height="11.11" transform="translate(-122.98 391.65) rotate(-90)"/>
              <rect class="cls-50" x="132.97" y="277.05" width="2.72" height="11.11" transform="translate(-148.27 416.94) rotate(-90)"/>
            </g>
          </g>
          <g>
            <rect class="cls-51" x="136.55" y="283.97" width="3.34" height="3.89"/>
            <rect class="cls-50" x="121.95" y="283.97" width="14.6" height="3.89"/>
          </g>
        </g>
        <g>
          <g>
            <g>
              <rect class="cls-24" x="100.4" y="230.66" width="15.09" height="53.31" transform="translate(215.89 514.62) rotate(180)"/>
              <rect class="cls-23" x="99.97" y="230.66" width="3.75" height="53.31" transform="translate(203.69 514.62) rotate(180)"/>
            </g>
            <g>
              <g>
                <rect class="cls-50" x="102.65" y="230.66" width="2.14" height="53.31" transform="translate(207.44 514.62) rotate(180)"/>
                <rect class="cls-50" x="114.48" y="230.66" width="1.01" height="53.31" transform="translate(229.97 514.62) rotate(180)"/>
                <rect class="cls-51" x="104.79" y="230.66" width=".86" height="53.31" transform="translate(210.43 514.62) rotate(180)"/>
              </g>
              <rect class="cls-50" x="108.57" y="226.46" width="2.72" height="11.11" transform="translate(-122.09 341.95) rotate(-90)"/>
              <rect class="cls-50" x="108.57" y="251.76" width="2.72" height="11.11" transform="translate(-147.38 367.24) rotate(-90)"/>
              <rect class="cls-50" x="108.57" y="277.05" width="2.72" height="11.11" transform="translate(-172.67 392.54) rotate(-90)"/>
            </g>
          </g>
          <g>
            <rect class="cls-51" x="112.14" y="283.97" width="3.34" height="3.89"/>
            <rect class="cls-50" x="97.55" y="283.97" width="14.6" height="3.89"/>
          </g>
        </g>
        <g>
          <g>
            <g>
              <rect class="cls-24" x="124.8" y="336.27" width="15.09" height="53.31" transform="translate(264.69 725.86) rotate(180)"/>
              <rect class="cls-23" x="124.37" y="336.27" width="3.75" height="53.31" transform="translate(252.5 725.86) rotate(180)"/>
            </g>
            <g>
              <g>
                <rect class="cls-50" x="127.05" y="336.27" width="2.14" height="53.31" transform="translate(256.25 725.86) rotate(180)"/>
                <rect class="cls-50" x="138.89" y="336.27" width="1.01" height="53.31" transform="translate(278.78 725.86) rotate(180)"/>
                <rect class="cls-51" x="129.19" y="336.27" width=".86" height="53.31" transform="translate(259.24 725.86) rotate(180)"/>
              </g>
              <rect class="cls-50" x="132.97" y="332.08" width="2.72" height="11.11" transform="translate(-203.3 471.97) rotate(-90)"/>
              <rect class="cls-50" x="132.97" y="357.37" width="2.72" height="11.11" transform="translate(-228.59 497.26) rotate(-90)"/>
              <rect class="cls-50" x="132.97" y="382.67" width="2.72" height="11.11" transform="translate(-253.89 522.56) rotate(-90)"/>
            </g>
          </g>
          <g>
            <rect class="cls-51" x="136.55" y="389.58" width="3.34" height="3.89"/>
            <rect class="cls-50" x="121.95" y="389.58" width="14.6" height="3.89"/>
          </g>
        </g>
        <g>
          <g>
            <g>
              <rect class="cls-24" x="100.4" y="336.27" width="15.09" height="53.31" transform="translate(215.89 725.86) rotate(180)"/>
              <rect class="cls-23" x="99.97" y="336.27" width="3.75" height="53.31" transform="translate(203.69 725.86) rotate(180)"/>
            </g>
            <g>
              <g>
                <rect class="cls-50" x="102.65" y="336.27" width="2.14" height="53.31" transform="translate(207.44 725.86) rotate(180)"/>
                <rect class="cls-50" x="114.48" y="336.27" width="1.01" height="53.31" transform="translate(229.97 725.86) rotate(180)"/>
                <rect class="cls-51" x="104.79" y="336.27" width=".86" height="53.31" transform="translate(210.43 725.86) rotate(180)"/>
              </g>
              <rect class="cls-50" x="108.57" y="332.08" width="2.72" height="11.11" transform="translate(-227.7 447.57) rotate(-90)"/>
              <rect class="cls-50" x="108.57" y="357.37" width="2.72" height="11.11" transform="translate(-253 472.86) rotate(-90)"/>
              <rect class="cls-50" x="108.57" y="382.67" width="2.72" height="11.11" transform="translate(-278.29 498.15) rotate(-90)"/>
            </g>
          </g>
          <g>
            <rect class="cls-51" x="112.14" y="389.58" width="3.34" height="3.89"/>
            <rect class="cls-50" x="97.55" y="389.58" width="14.6" height="3.89"/>
          </g>
        </g>
        <g>
          <g>
            <g>
              <rect class="cls-24" x="326.63" y="322.27" width="15.09" height="53.31" transform="translate(668.35 697.85) rotate(180)"/>
              <rect class="cls-23" x="326.2" y="322.27" width="3.75" height="53.31" transform="translate(656.15 697.85) rotate(180)"/>
            </g>
            <g>
              <g>
                <rect class="cls-50" x="328.88" y="322.27" width="2.14" height="53.31" transform="translate(659.9 697.85) rotate(180)"/>
                <rect class="cls-50" x="340.71" y="322.27" width="1.01" height="53.31" transform="translate(682.43 697.85) rotate(180)"/>
                <rect class="cls-51" x="331.02" y="322.27" width=".86" height="53.31" transform="translate(662.9 697.85) rotate(180)"/>
              </g>
              <rect class="cls-50" x="334.8" y="318.08" width="2.72" height="11.11" transform="translate(12.53 659.79) rotate(-90)"/>
              <rect class="cls-50" x="334.8" y="343.37" width="2.72" height="11.11" transform="translate(-12.76 685.09) rotate(-90)"/>
              <rect class="cls-50" x="334.8" y="368.66" width="2.72" height="11.11" transform="translate(-38.05 710.38) rotate(-90)"/>
            </g>
          </g>
          <g>
            <rect class="cls-51" x="338.38" y="375.58" width="3.34" height="3.89"/>
            <rect class="cls-50" x="323.78" y="375.58" width="14.6" height="3.89"/>
          </g>
        </g>
        <g>
          <g>
            <rect class="cls-35" x="258.44" y="230.66" width="24.13" height="52.8"/>
            <polygon class="cls-12" points="260.9 262.51 260.9 281.01 279.4 281.01 260.9 262.51"/>
            <g>
              <rect class="cls-51" x="280.13" y="230.66" width="2.45" height="52.8" transform="translate(562.7 514.12) rotate(180)"/>
              <rect class="cls-51" x="258.44" y="230.66" width="2.45" height="52.8" transform="translate(519.34 514.12) rotate(180)"/>
              <rect class="cls-50" x="279.4" y="230.66" width=".73" height="52.8" transform="translate(559.53 514.12) rotate(180)"/>
              <rect class="cls-50" x="257.72" y="230.66" width=".73" height="52.8" transform="translate(516.16 514.12) rotate(180)"/>
              <rect class="cls-51" x="269.29" y="222.27" width="2.45" height="19.23" transform="translate(502.39 -38.63) rotate(90)"/>
              <rect class="cls-51" x="269.29" y="272.62" width="2.45" height="19.23" transform="translate(552.75 11.72) rotate(90)"/>
            </g>
            <rect class="cls-51" x="269.29" y="247.44" width="2.45" height="19.23" transform="translate(527.57 -13.45) rotate(90)"/>
            <g>
              <rect class="cls-50" x="257.72" y="283.46" width="3.28" height="3.82" transform="translate(518.72 570.74) rotate(180)"/>
              <rect class="cls-51" x="261" y="283.46" width="23.45" height="3.82" transform="translate(545.45 570.74) rotate(180)"/>
            </g>
          </g>
          <g>
            <rect class="cls-45" x="219.65" y="230.66" width="24.13" height="52.8"/>
            <polygon class="cls-12" points="222.1 262.51 222.1 281.01 240.6 281.01 222.1 262.51"/>
            <g>
              <rect class="cls-51" x="241.33" y="230.66" width="2.45" height="52.8" transform="translate(485.11 514.12) rotate(180)"/>
              <rect class="cls-51" x="219.65" y="230.66" width="2.45" height="52.8" transform="translate(441.75 514.12) rotate(180)"/>
              <rect class="cls-50" x="240.6" y="230.66" width=".73" height="52.8" transform="translate(481.94 514.12) rotate(180)"/>
              <rect class="cls-50" x="218.92" y="230.66" width=".73" height="52.8" transform="translate(438.57 514.12) rotate(180)"/>
              <rect class="cls-51" x="230.49" y="222.27" width="2.45" height="19.23" transform="translate(463.6 .17) rotate(90)"/>
              <rect class="cls-51" x="230.49" y="272.62" width="2.45" height="19.23" transform="translate(513.95 50.52) rotate(90)"/>
            </g>
            <rect class="cls-51" x="230.49" y="247.44" width="2.45" height="19.23" transform="translate(488.77 25.34) rotate(90)"/>
            <g>
              <rect class="cls-50" x="218.92" y="283.46" width="3.28" height="3.82" transform="translate(441.13 570.74) rotate(180)"/>
              <rect class="cls-51" x="222.21" y="283.46" width="23.45" height="3.82" transform="translate(467.86 570.74) rotate(180)"/>
            </g>
          </g>
          <g>
            <rect class="cls-37" x="180.85" y="230.66" width="24.13" height="52.8"/>
            <polygon class="cls-12" points="183.3 262.51 183.3 281.01 201.81 281.01 183.3 262.51"/>
            <g>
              <rect class="cls-51" x="202.54" y="230.66" width="2.45" height="52.8" transform="translate(407.52 514.12) rotate(180)"/>
              <rect class="cls-51" x="180.85" y="230.66" width="2.45" height="52.8" transform="translate(364.16 514.12) rotate(180)"/>
              <rect class="cls-50" x="201.81" y="230.66" width=".73" height="52.8" transform="translate(404.34 514.12) rotate(180)"/>
              <rect class="cls-50" x="180.13" y="230.66" width=".73" height="52.8" transform="translate(360.98 514.12) rotate(180)"/>
              <rect class="cls-51" x="191.69" y="222.27" width="2.45" height="19.23" transform="translate(424.8 38.96) rotate(90)"/>
              <rect class="cls-51" x="191.69" y="272.62" width="2.45" height="19.23" transform="translate(475.15 89.32) rotate(90)"/>
            </g>
            <rect class="cls-51" x="191.69" y="247.44" width="2.45" height="19.23" transform="translate(449.98 64.14) rotate(90)"/>
            <g>
              <rect class="cls-50" x="180.13" y="283.46" width="3.28" height="3.82" transform="translate(363.54 570.74) rotate(180)"/>
              <rect class="cls-51" x="183.41" y="283.46" width="23.45" height="3.82" transform="translate(390.27 570.74) rotate(180)"/>
            </g>
          </g>
        </g>
        <g>
          <path class="cls-47" d="M211.19,307.26c-.55,0-1.04.12-1.47.35-.43.23-.8.57-1.11,1.01-.31.44-.54.98-.7,1.61-.16.63-.24,1.35-.24,2.15,0,1.08.14,1.99.41,2.73.27.74.69,1.3,1.25,1.67.56.38,1.27.57,2.11.57.77,0,1.51-.11,2.22-.32.71-.21,1.43-.47,2.15-.77h.78l-.78,3.93c-.76.34-1.54.58-2.34.73-.8.15-1.64.22-2.54.22-1.87,0-3.4-.37-4.59-1.11-1.19-.74-2.07-1.77-2.63-3.09-.56-1.32-.84-2.85-.84-4.59,0-1.3.18-2.5.55-3.58.37-1.08.9-2.02,1.61-2.82.71-.8,1.58-1.41,2.62-1.85,1.04-.44,2.23-.65,3.57-.65.83,0,1.71.1,2.63.29.92.19,1.82.5,2.7.92l-.65,3.66h-.78c-.63-.3-1.26-.55-1.91-.75-.64-.2-1.33-.31-2.05-.31Z"/>
          <path class="cls-47" d="M219.17,320.91v-17.22h4.65v13.46h6.63v3.76h-11.28Z"/>
          <path class="cls-47" d="M233.22,320.91v-17.22h4.68v17.22h-4.68Z"/>
          <path class="cls-47" d="M258.01,320.91h-6.1l-6.29-12.13h-.11c.04.37.07.81.11,1.33.03.52.06,1.05.08,1.58.02.54.04,1.02.04,1.45v7.76h-4.12v-17.22h6.08l6.27,11.97h.07c-.02-.38-.05-.81-.07-1.31-.02-.5-.05-1-.06-1.51-.02-.51-.03-.96-.03-1.35v-7.79h4.15v17.22Z"/>
          <path class="cls-47" d="M261.73,320.91v-17.22h4.68v17.22h-4.68Z"/>
          <path class="cls-47" d="M277.32,307.26c-.55,0-1.04.12-1.47.35-.43.23-.8.57-1.11,1.01-.31.44-.54.98-.7,1.61-.16.63-.24,1.35-.24,2.15,0,1.08.14,1.99.41,2.73.27.74.69,1.3,1.25,1.67.56.38,1.27.57,2.11.57.77,0,1.51-.11,2.22-.32.71-.21,1.43-.47,2.15-.77h.78l-.78,3.93c-.76.34-1.54.58-2.34.73-.8.15-1.64.22-2.54.22-1.87,0-3.4-.37-4.59-1.11-1.19-.74-2.07-1.77-2.63-3.09-.56-1.32-.84-2.85-.84-4.59,0-1.3.18-2.5.55-3.58.37-1.08.9-2.02,1.61-2.82.71-.8,1.58-1.41,2.62-1.85,1.04-.44,2.23-.65,3.57-.65.83,0,1.71.1,2.63.29.92.19,1.82.5,2.7.92l-.65,3.66h-.78c-.63-.3-1.26-.55-1.91-.75-.64-.2-1.33-.31-2.05-.31Z"/>
          <path class="cls-19" d="M211.97,307.26c-.55,0-1.04.12-1.47.35-.43.23-.8.57-1.11,1.01-.31.44-.54.98-.7,1.61-.16.63-.24,1.35-.24,2.15,0,1.08.14,1.99.41,2.73.27.74.69,1.3,1.25,1.67.56.38,1.27.57,2.11.57.77,0,1.51-.11,2.22-.32.71-.21,1.43-.47,2.15-.77v3.93c-.76.34-1.54.58-2.34.73-.8.15-1.64.22-2.54.22-1.87,0-3.4-.37-4.59-1.11-1.19-.74-2.07-1.77-2.63-3.09-.56-1.32-.84-2.85-.84-4.59,0-1.3.18-2.5.55-3.58s.9-2.02,1.61-2.82c.71-.8,1.58-1.41,2.62-1.85,1.04-.44,2.23-.65,3.57-.65.83,0,1.71.1,2.63.29.92.19,1.82.5,2.7.92l-1.43,3.66c-.63-.3-1.26-.55-1.91-.75-.64-.2-1.33-.31-2.05-.31Z"/>
          <path class="cls-19" d="M219.95,320.91v-17.22h4.65v13.46h6.63v3.76h-11.28Z"/>
          <path class="cls-19" d="M233.99,320.91v-17.22h4.68v17.22h-4.68Z"/>
          <path class="cls-19" d="M258.79,320.91h-6.1l-6.29-12.13h-.11c.04.37.07.81.11,1.33.03.52.06,1.05.08,1.58.02.54.04,1.02.04,1.45v7.76h-4.12v-17.22h6.08l6.27,11.97h.07c-.02-.38-.05-.81-.07-1.31-.02-.5-.05-1-.06-1.51-.02-.51-.03-.96-.03-1.35v-7.79h4.15v17.22Z"/>
          <path class="cls-19" d="M262.51,320.91v-17.22h4.68v17.22h-4.68Z"/>
          <path class="cls-19" d="M278.1,307.26c-.55,0-1.04.12-1.47.35-.43.23-.8.57-1.11,1.01-.31.44-.54.98-.7,1.61-.16.63-.24,1.35-.24,2.15,0,1.08.14,1.99.41,2.73.27.74.69,1.3,1.25,1.67.56.38,1.27.57,2.11.57.77,0,1.51-.11,2.22-.32.71-.21,1.43-.47,2.15-.77v3.93c-.76.34-1.54.58-2.34.73-.8.15-1.64.22-2.54.22-1.87,0-3.4-.37-4.59-1.11-1.19-.74-2.07-1.77-2.63-3.09-.56-1.32-.84-2.85-.84-4.59,0-1.3.18-2.5.55-3.58.37-1.08.9-2.02,1.61-2.82.71-.8,1.58-1.41,2.62-1.85,1.04-.44,2.23-.65,3.57-.65.83,0,1.71.1,2.63.29.92.19,1.82.5,2.7.92l-1.43,3.66c-.63-.3-1.26-.55-1.91-.75-.64-.2-1.33-.31-2.05-.31Z"/>
          <polygon class="cls-47" points="197.52 309.35 191.85 309.35 191.85 303.69 185.96 303.69 185.96 309.35 180.3 309.35 180.3 315.24 185.96 315.24 185.96 320.91 191.85 320.91 191.85 315.24 197.52 315.24 197.52 309.35"/>
          <polygon class="cls-19" points="198.32 309.35 192.65 309.35 192.65 303.69 186.76 303.69 186.76 309.35 181.1 309.35 181.1 315.24 186.76 315.24 186.76 320.91 192.65 320.91 192.65 315.24 198.32 315.24 198.32 309.35"/>
        </g>
        <rect class="cls-11" x="369.86" y="445.32" width="146.48" height="5.82"/>
        <rect class="cls-11" x="381.65" y="429.87" width="8.39" height="3.05"/>
        <rect class="cls-11" x="435.18" y="438.47" width="8.39" height="3.05"/>
        <rect class="cls-11" x="489.35" y="429.87" width="8.39" height="3.05"/>
        <polygon class="cls-46" points="467.8 148.86 372.21 148.86 357.71 181.39 504.98 181.39 467.8 148.86"/>
        <polygon class="cls-22" points="329.11 148.86 289.71 181.39 357.71 181.39 372.21 148.86 329.11 148.86"/>
      </g>
    </g>
  </g>
</svg>