<?xml version="1.0" encoding="UTF-8"?>
<svg id="Layer_1" data-name="Layer 1" xmlns="http://www.w3.org/2000/svg" viewBox="0 0 100 100">
  <defs>
    <style>
      .cls-1 {
        fill: #ff875a;
      }
    </style>
  </defs>
  <path class="cls-1" d="M50.45,51.79l27.33-10.76v23.45c0,.68-.38,1.31-.98,1.61-8.38,4.19-17.62,6.38-27,6.38s-18.62-2.19-27-6.38c-.61-.3-.98-.93-.98-1.61v-23.45s27.33,10.76,27.33,10.76h0c.42.17.89.17,1.32,0h0ZM96.62,28.46L50.05,10.1c-.17-.07-.35-.07-.52,0L2.95,28.46c-.6.24-.6,1.09,0,1.32l46.58,18.34c.17.07.35.07.52,0l46.58-18.34c.6-.24.6-1.09,0-1.32ZM93.29,64.05v-29.13l-3.56,1.41v27.73c-1.99.61-3.52,2.23-4.02,4.25-.5,2.02.09,4.16,1.56,5.64-1.11,1.12-1.73,2.63-1.73,4.2v10.03c0,.98.8,1.78,1.78,1.78h8.41c.98,0,1.78-.8,1.78-1.78v-10.03c0-1.58-.62-3.09-1.73-4.2,1.47-1.48,2.06-3.62,1.56-5.65-.51-2.02-2.04-3.64-4.03-4.25h0Z"/>
</svg>