<?xml version="1.0" encoding="UTF-8"?>
<svg id="Layer_2" data-name="Layer 2" xmlns="http://www.w3.org/2000/svg" viewBox="0 0 126.41 126.41">
  <defs>
    <style>
      .cls-1, .cls-2 {
        fill: #f6b31a;
      }

      .cls-3 {
        fill: #390;
      }

      .cls-4 {
        fill: #d4d4d4;
      }

      .cls-5 {
        fill: #4d4d4d;
      }

      .cls-6 {
        fill: #c71e25;
      }

      .cls-2 {
        fill-rule: evenodd;
      }

      .cls-7 {
        fill: #ececec;
      }
    </style>
  </defs>
  <g id="Layer_1-2" data-name="Layer 1">
    <path id="_312607016" data-name=" 312607016" class="cls-3" d="M124.26,46.86c9,33.7-11,68.4-44.7,77.4S11.16,113.26,2.16,79.56,13.16,11.16,46.86,2.16c33.7-9,68.4,11,77.4,44.7h0Z"/>
    <path id="_312606872" data-name=" 312606872" class="cls-1" d="M24.96,29.66l23.4,13.5-12.1,21-23.4-13.5c-.8-.5-1.1-1.6-.6-2.4l10.3-17.9c.5-.8,1.6-1.1,2.4-.6h0v-.1Z"/>
    <path id="_312606728" data-name=" 312606728" class="cls-7" d="M48.46,43.16l10.4,6-2,3.4c-.6,1.1-.5,2.3.4,2.8.8.5,2.1,0,2.7-1.1l2-3.4,36.4,21-12.1,21-36.4-21,1.9-3.3c.6-1.1.5-2.3-.4-2.8-.8-.5-2.1,0-2.7,1.1l-1.9,3.3-10.4-6,12.1-21h0ZM57.06,59.26c.6-1.1.5-2.3-.4-2.8-.8-.5-2.1,0-2.7,1.1l-2.5,4.4c-.6,1.1-.5,2.3.4,2.8.8.5,2.1,0,2.7-1.1l2.5-4.4h0Z"/>
    <path id="_312606584" data-name=" 312606584" class="cls-4" d="M48.46,43.16l.8.4-12.1,21-.8-.4,12.1-21h0Z"/>
    <path id="_312606464" data-name=" 312606464" class="cls-6" d="M98.26,71.96l5.3,3.1c3.8,2.2,5.1,7,2.9,10.8l-4.2,7.3c-2.2,3.8-7,5.1-10.8,2.9l-5.3-3.1,12.1-21h0Z"/>
    <path id="_312606392" data-name=" 312606392" class="cls-5" d="M103.26,41.16c-.7-.7-1.8-.8-2.5,0-.7.7-.8,1.8,0,2.5,6.5,6.8-8,13.5-.1,23.7.6.8,1.7.9,2.5.3s.9-1.7.3-2.5c-6.2-8,8.7-14.7-.1-24h-.1Z"/>
    <path id="_312606320" data-name=" 312606320" class="cls-5" d="M111.46,45.86c-.7-.7-1.8-.8-2.5,0-.7.7-.8,1.8,0,2.5,6.5,6.8-8,13.5-.1,23.7.6.8,1.7.9,2.5.3s.9-1.7.3-2.5c-6.2-8,8.7-14.7-.1-24h-.1Z"/>
    <path id="_312606224" data-name=" 312606224" class="cls-2" d="M59.86,54.36l2-3.4-3-1.8-2,3.4c-.6,1.1-.5,2.3.4,2.8.8.5,2.1,0,2.7-1.1h0l-.1.1Z"/>
    <path id="_312606128" data-name=" 312606128" class="cls-2" d="M57.06,59.26c.6-1.1.5-2.3-.4-2.8-.8-.5-2.1,0-2.7,1.1l-2.5,4.4c-.6,1.1-.5,2.3.4,2.8.8.5,2.1,0,2.7-1.1l2.5-4.4h0Z"/>
    <path id="_312606056" data-name=" 312606056" class="cls-2" d="M51.76,68.56c.6-1.1.5-2.3-.4-2.8-.8-.5-2.1,0-2.7,1.1l-1.9,3.3,3,1.8,1.9-3.3h0l.1-.1Z"/>
  </g>
</svg>