<?xml version="1.0" encoding="UTF-8"?>
<svg id="_0-vaccination" data-name=" 0-vaccination" xmlns="http://www.w3.org/2000/svg" viewBox="0 0 512 512">
  <defs>
    <style>
      .cls-1 {
        fill: #32addb;
      }

      .cls-2 {
        fill: #fb6944;
      }

      .cls-3 {
        fill: #f8ead3;
      }

      .cls-4 {
        fill: #71d6fc;
      }

      .cls-5 {
        fill: #ff875a;
      }

      .cls-6 {
        fill: #298bb0;
      }
    </style>
  </defs>
  <path class="cls-5" d="M445.9,56C311.27,72,240,8,240,8c0,0-71.27,64-205.9,48,0,0-79.19,320,205.9,448C525.09,376,445.9,56,445.9,56Z"/>
  <path class="cls-2" d="M240,450.82C65.42,361.17,63.3,185.08,72.14,106.55c.94,0,1.88.02,2.82.02,77.75,0,133.07-22.54,165.05-40.72,31.97,18.18,87.3,40.72,165.05,40.72.94,0,1.88,0,2.83-.02,8.83,78.43,6.74,254.58-167.87,344.26h-.02Z"/>
  <path class="cls-3" d="M336,224h-64v-64h-64v64h-64v64h64v64h64v-64h64v-64Z"/>
  <g>
    <path class="cls-1" d="M104,504c-2.05,0-4.1-.78-5.66-2.34-3.13-3.13-3.13-8.18,0-11.31l56-56c3.13-3.13,8.18-3.13,11.31,0s3.13,8.18,0,11.31l-56,56c-1.56,1.56-3.61,2.34-5.66,2.34Z"/>
    <g>
      <path class="cls-1" d="M312.64,221.12l67.87,67.87-158.37,158.37c-6.24,6.24-16.38,6.24-22.62,0l-45.25-45.25c-6.24-6.24-6.24-16.38,0-22.62l158.37-158.37Z"/>
      <g>
        <path class="cls-4" d="M165.59,413.43l22.62,22.62-22.62,22.62-22.62-22.62,22.62-22.62Z"/>
        <path class="cls-4" d="M312.64,175.85l113.12,113.12-22.62,22.62-113.12-113.12,22.62-22.62Z"/>
        <path class="cls-4" d="M408.77,113.62l79.18,79.18-22.62,22.62-79.18-79.18,22.62-22.62Z"/>
      </g>
      <path class="cls-1" d="M414.44,164.53l22.62,22.62-56.56,56.56-22.62-22.62,56.56-56.56Z"/>
    </g>
    <g>
      <path class="cls-6" d="M323.88,300.36l11.31-11.31,22.62,22.62-11.31,11.31-22.62-22.62Z"/>
      <path class="cls-6" d="M301.26,322.9l11.31-11.31,22.62,22.62-11.31,11.31-22.62-22.62Z"/>
      <path class="cls-6" d="M278.62,345.68l11.31-11.31,22.62,22.62-11.31,11.31-22.62-22.62Z"/>
      <path class="cls-6" d="M256.01,368.23l11.31-11.31,22.62,22.62-11.31,11.31-22.62-22.62Z"/>
      <path class="cls-6" d="M233.4,390.77l11.31-11.31,22.62,22.62-11.31,11.31-22.62-22.62Z"/>
      <path class="cls-6" d="M210.72,413.55l11.31-11.31,22.62,22.62-11.31,11.31-22.62-22.62Z"/>
    </g>
  </g>
</svg>