<?xml version="1.0" encoding="UTF-8"?>
<svg id="Layer_2" data-name="Layer 2" xmlns="http://www.w3.org/2000/svg" viewBox="0 0 183.99 183.99">
  <defs>
    <style>
      .cls-1 {
        fill: #fc0;
      }

      .cls-2, .cls-3 {
        fill: #f6b31a;
      }

      .cls-4 {
        fill: #d4d4d4;
      }

      .cls-5 {
        fill: #4d4d4d;
      }

      .cls-6 {
        fill: #c71e25;
      }

      .cls-3 {
        fill-rule: evenodd;
      }

      .cls-7 {
        fill: #ececec;
      }
    </style>
  </defs>
  <g id="Layer_1-2" data-name="Layer 1" image-rendering="optimizeQuality" shape-rendering="geometricPrecision" text-rendering="geometricPrecision">
    <path id="_312607016" data-name=" 312607016" class="cls-1" d="M180.83,68.19c13.14,49.05-15.98,99.5-65.04,112.64-49.05,13.14-99.5-15.98-112.64-65.04C-9.99,66.74,19.14,16.3,68.19,3.15c49.05-13.14,99.5,15.98,112.64,65.04Z"/>
    <path id="_312606872" data-name=" 312606872" class="cls-2" d="M36.49,43.16l34.02,19.64-17.6,30.49-34.02-19.64c-1.23-.71-1.65-2.28-.94-3.51l15.04-26.04c.71-1.23,2.28-1.65,3.51-.94h0Z"/>
    <path id="_312606728" data-name=" 312606728" class="cls-7" d="M70.51,62.8l15.2,8.78-2.87,4.96c-.91,1.58-.65,3.43.57,4.14,1.23.71,2.96,0,3.87-1.57l2.87-4.96,52.92,30.55-17.6,30.49-52.92-30.55,2.8-4.84c.91-1.58.65-3.43-.57-4.14-1.23-.71-2.96,0-3.87,1.57l-2.8,4.84-15.2-8.78,17.6-30.49h0ZM83.18,86.22c.91-1.58.65-3.43-.57-4.14-1.23-.71-2.96,0-3.87,1.57l-3.72,6.45c-.91,1.58-.65,3.43.57,4.14,1.23.71,2.96,0,3.87-1.57l3.72-6.45h0Z"/>
    <path id="_312606584" data-name=" 312606584" class="cls-4" d="M70.51,62.8l1.07.62-17.6,30.49-1.07-.62,17.6-30.49Z"/>
    <path id="_312606464" data-name=" 312606464" class="cls-6" d="M143.08,104.7l7.72,4.46c5.47,3.16,7.36,10.21,4.2,15.68l-6.13,10.61c-3.16,5.47-10.21,7.36-15.68,4.2l-7.72-4.46,17.6-30.49Z"/>
    <path id="_312606392" data-name=" 312606392" class="cls-5" d="M150.34,59.82c-.98-1.02-2.6-1.06-3.62-.09-1.02.98-1.06,2.6-.09,3.62,9.45,9.94-11.64,19.61-.17,34.47.86,1.12,2.47,1.33,3.59.46,1.12-.86,1.33-2.47.46-3.59-9-11.66,12.62-21.38-.17-34.87h0Z"/>
    <path id="_312606320" data-name=" 312606320" class="cls-5" d="M162.23,66.68c-.98-1.02-2.6-1.06-3.62-.09-1.02.98-1.06,2.6-.09,3.62,9.45,9.94-11.64,19.61-.17,34.47.86,1.12,2.47,1.33,3.59.46,1.12-.86,1.33-2.47.46-3.59-9-11.66,12.62-21.38-.17-34.87h0Z"/>
    <path id="_312606224" data-name=" 312606224" class="cls-3" d="M87.29,79.11l2.87-4.96-4.45-2.57-2.87,4.96c-.91,1.58-.65,3.43.57,4.14,1.23.71,2.96,0,3.87-1.57h0Z"/>
    <path id="_312606128" data-name=" 312606128" class="cls-3" d="M83.18,86.22c.91-1.58.65-3.43-.57-4.14-1.23-.71-2.96,0-3.87,1.57l-3.72,6.45c-.91,1.58-.65,3.43.57,4.14,1.23.71,2.96,0,3.87-1.57l3.72-6.45h0Z"/>
    <path id="_312606056" data-name=" 312606056" class="cls-3" d="M75.35,99.79c.91-1.58.65-3.43-.57-4.14-1.23-.71-2.96,0-3.87,1.57l-2.8,4.84,4.45,2.57,2.8-4.84h0Z"/>
  </g>
</svg>