<svg xmlns="http://www.w3.org/2000/svg" xmlns:xlink="http://www.w3.org/1999/xlink" width="500" zoomAndPan="magnify" viewBox="0 0 375 374.999991" height="500" preserveAspectRatio="xMidYMid meet" version="1.0"><defs><clipPath id="d65cedb9aa"><path d="M 323.058594 32.101562 L 373.40625 32.101562 L 373.40625 90.859375 L 323.058594 90.859375 Z M 323.058594 32.101562 " clip-rule="nonzero"/></clipPath><clipPath id="a9871030f5"><path d="M 1.421875 0 L 303.675781 0 L 303.675781 375 L 1.421875 375 Z M 1.421875 0 " clip-rule="nonzero"/></clipPath></defs><path fill="#ff914d" d="M 141.457031 284.304688 L 116.4375 298.75 L 91.417969 284.304688 L 91.417969 255.417969 L 116.4375 240.972656 L 141.457031 255.417969 L 141.457031 284.304688 " fill-opacity="1" fill-rule="nonzero"/><g clip-path="url(#d65cedb9aa)"><path fill="#ff914d" d="M 373.550781 75.816406 L 348.53125 90.261719 L 323.515625 75.816406 L 323.515625 46.929688 L 348.53125 32.484375 L 373.550781 46.929688 L 373.550781 75.816406 " fill-opacity="1" fill-rule="nonzero"/></g><path fill="#ff914d" d="M 339.90625 254.789062 L 323.515625 264.25 L 307.121094 254.789062 L 307.121094 235.859375 L 323.515625 226.394531 L 339.90625 235.859375 L 339.90625 254.789062 " fill-opacity="1" fill-rule="nonzero"/><g clip-path="url(#a9871030f5)"><path fill="#ff914d" d="M 303.453125 209.828125 L 303.453125 124.929688 L 229.929688 82.480469 L 178.957031 111.910156 C 167.742188 118.382812 153.921875 118.382812 142.703125 111.910156 L 142.632812 111.867188 C 131.417969 105.390625 124.507812 93.425781 124.507812 80.472656 L 124.507812 35.53125 L 62.964844 0.00390625 L 1.421875 35.53125 L 1.421875 106.59375 L 62.964844 142.125 L 102.027344 119.574219 C 113.242188 113.097656 127.0625 113.097656 138.277344 119.574219 C 149.496094 126.050781 156.40625 138.019531 156.40625 150.96875 L 156.40625 209.828125 L 210.109375 240.835938 C 219.636719 246.335938 225.503906 256.5 225.503906 267.5 C 225.503906 278.5 219.636719 288.664062 210.109375 294.164062 L 189.960938 305.796875 L 189.960938 351.945312 L 229.929688 375.015625 L 269.894531 351.945312 L 269.894531 305.796875 L 249.75 294.164062 C 240.222656 288.664062 234.355469 278.5 234.355469 267.5 L 234.355469 267.496094 C 234.355469 256.5 240.222656 246.335938 249.75 240.835938 L 303.453125 209.828125 " fill-opacity="1" fill-rule="nonzero"/></g></svg>