<svg xmlns="http://www.w3.org/2000/svg" xmlns:xlink="http://www.w3.org/1999/xlink" width="500" zoomAndPan="magnify" viewBox="0 0 375 97.5" height="130" preserveAspectRatio="xMidYMid meet" version="1.0"><defs><g/><clipPath id="faa4eb1e19"><path d="M 106 36 L 368 36 L 368 97.003906 L 106 97.003906 Z M 106 36 " clip-rule="nonzero"/></clipPath><clipPath id="d28da2c951"><rect x="0" width="262" y="0" height="62"/></clipPath><clipPath id="9a6b4ee1fd"><path d="M 84.15625 8.304688 L 97.214844 8.304688 L 97.214844 23.503906 L 84.15625 23.503906 Z M 84.15625 8.304688 " clip-rule="nonzero"/></clipPath><clipPath id="2d54f91dbf"><path d="M 0.957031 0 L 79.140625 0 L 79.140625 97.003906 L 0.957031 97.003906 Z M 0.957031 0 " clip-rule="nonzero"/></clipPath></defs><g clip-path="url(#faa4eb1e19)"><g transform="matrix(1, 0, 0, 1, 106, 36)"><g clip-path="url(#d28da2c951)"><g fill="#ffffff" fill-opacity="1"><g transform="translate(0.655293, 46.947814)"><g><path d="M 21.269531 0 C 27.582031 0 30.914062 -3.976562 30.914062 -8.945312 C 30.914062 -13.121094 28.078125 -16.550781 24.550781 -17.097656 C 27.683594 -17.742188 30.265625 -20.523438 30.265625 -24.699219 C 30.265625 -29.121094 27.035156 -33.148438 20.722656 -33.148438 L 3.28125 -33.148438 L 3.28125 0 Z M 10.335938 -27.136719 L 19.183594 -27.136719 C 21.570312 -27.136719 23.058594 -25.542969 23.058594 -23.507812 C 23.058594 -21.371094 21.570312 -19.828125 19.183594 -19.828125 L 10.335938 -19.828125 Z M 10.335938 -13.816406 L 19.433594 -13.816406 C 22.214844 -13.816406 23.707031 -12.027344 23.707031 -9.941406 C 23.707031 -7.554688 22.117188 -6.011719 19.433594 -6.011719 L 10.335938 -6.011719 Z M 10.335938 -13.816406 "/></g></g></g><g fill="#ffffff" fill-opacity="1"><g transform="translate(35.288349, 46.947814)"><g><path d="M 26.738281 0 L 26.738281 -6.113281 L 10.335938 -6.113281 L 10.335938 -13.816406 L 26.390625 -13.816406 L 26.390625 -19.878906 L 10.335938 -19.878906 L 10.335938 -27.085938 L 26.738281 -27.085938 L 26.738281 -33.148438 L 3.28125 -33.148438 L 3.28125 0 Z M 26.738281 0 "/></g></g></g><g fill="#ffffff" fill-opacity="1"><g transform="translate(65.946381, 46.947814)"><g><path d="M 26.738281 0 L 26.738281 -6.113281 L 10.335938 -6.113281 L 10.335938 -13.816406 L 26.390625 -13.816406 L 26.390625 -19.878906 L 10.335938 -19.878906 L 10.335938 -27.085938 L 26.738281 -27.085938 L 26.738281 -33.148438 L 3.28125 -33.148438 L 3.28125 0 Z M 26.738281 0 "/></g></g></g><g fill="#ffffff" fill-opacity="1"><g transform="translate(96.604414, 46.947814)"><g><path d="M 18.039062 0 L 18.039062 -26.9375 L 27.683594 -26.9375 L 27.683594 -33.148438 L 1.242188 -33.148438 L 1.242188 -26.9375 L 10.933594 -26.9375 L 10.933594 0 Z M 18.039062 0 "/></g></g></g><g fill="#ffffff" fill-opacity="1"><g transform="translate(127.212762, 46.947814)"><g><path d="M 34.191406 0 L 21.417969 -33.148438 L 12.574219 -33.148438 L -0.25 0 L 7.503906 0 L 9.589844 -5.714844 L 24.402344 -5.714844 L 26.488281 0 Z M 22.464844 -11.828125 L 11.480469 -11.828125 L 16.996094 -27.035156 Z M 22.464844 -11.828125 "/></g></g></g><g fill="#ffffff" fill-opacity="1"><g transform="translate(162.889253, 46.947814)"><g><path d="M 39.210938 0 L 39.210938 -33.148438 L 29.273438 -33.148438 L 21.222656 -12.472656 L 13.171875 -33.148438 L 3.28125 -33.148438 L 3.28125 0 L 10.335938 0 L 10.335938 -23.855469 L 19.679688 0 L 22.761719 0 L 32.105469 -23.855469 L 32.105469 0 Z M 39.210938 0 "/></g></g></g><g fill="#ffffff" fill-opacity="1"><g transform="translate(207.062343, 46.947814)"><g><path d="M 10.335938 0 L 10.335938 -33.148438 L 3.28125 -33.148438 L 3.28125 0 Z M 10.335938 0 "/></g></g></g><g fill="#ffffff" fill-opacity="1"><g transform="translate(222.36689, 46.947814)"><g><path d="M 32.949219 0 L 32.949219 -33.148438 L 25.894531 -33.148438 L 25.894531 -11.679688 L 10.535156 -33.148438 L 3.28125 -33.148438 L 3.28125 0 L 10.335938 0 L 10.335938 -22.265625 L 26.140625 0 Z M 32.949219 0 "/></g></g></g></g></g></g><path fill="#ffa800" d="M 37.179688 73.542969 L 30.710938 77.277344 L 24.238281 73.542969 L 24.238281 66.070312 L 30.710938 62.332031 L 37.179688 66.070312 L 37.179688 73.542969 " fill-opacity="1" fill-rule="nonzero"/><g clip-path="url(#9a6b4ee1fd)"><path fill="#ffa800" d="M 97.214844 19.613281 L 90.746094 23.347656 L 84.273438 19.613281 L 84.273438 12.140625 L 90.746094 8.402344 L 97.214844 12.140625 L 97.214844 19.613281 " fill-opacity="1" fill-rule="nonzero"/></g><path fill="#ffa800" d="M 88.515625 65.90625 L 84.273438 68.355469 L 80.035156 65.90625 L 80.035156 61.011719 L 84.273438 58.5625 L 88.515625 61.011719 L 88.515625 65.90625 " fill-opacity="1" fill-rule="nonzero"/><g clip-path="url(#2d54f91dbf)"><path fill="#ffa800" d="M 79.085938 54.277344 L 79.085938 32.316406 L 60.066406 21.335938 L 46.878906 28.949219 C 43.980469 30.621094 40.40625 30.621094 37.503906 28.949219 L 37.484375 28.9375 C 34.582031 27.261719 32.796875 24.167969 32.796875 20.816406 L 32.796875 9.191406 L 16.875 0 L 0.957031 9.191406 L 0.957031 27.574219 L 16.875 36.765625 L 26.980469 30.929688 C 29.882812 29.253906 33.457031 29.253906 36.359375 30.929688 C 39.261719 32.605469 41.046875 35.703125 41.046875 39.050781 L 41.046875 54.277344 L 54.9375 62.296875 C 57.402344 63.71875 58.921875 66.351562 58.921875 69.195312 C 58.921875 72.039062 57.402344 74.667969 54.9375 76.09375 L 49.726562 79.101562 L 49.726562 91.039062 L 60.066406 97.007812 L 70.40625 91.039062 L 70.40625 79.101562 L 65.191406 76.09375 C 62.730469 74.671875 61.210938 72.039062 61.210938 69.195312 C 61.210938 66.351562 62.730469 63.71875 65.191406 62.296875 L 79.085938 54.277344 " fill-opacity="1" fill-rule="nonzero"/></g></svg>