<?xml version="1.0" encoding="UTF-8"?>
<svg id="Layer_2" data-name="Layer 2" xmlns="http://www.w3.org/2000/svg" viewBox="0 0 246.97 762.32">
  <defs>
    <style>
      .cls-1 {
        fill: #00acc1;
      }
    </style>
  </defs>
  <g id="_ÎÓÈ_1" data-name="—ÎÓÈ_1">
    <g>
      <g>
        <g>
          <path class="cls-1" d="M153.74,50.59c0,23.86-13.99,43.2-30.7,43.2s-29.81-19.34-29.81-43.2,5.81-41.63,29.81-41.63,30.7,17.77,30.7,41.63Z"/>
          <path class="cls-1" d="M94.98,48.89c-3.94-1.5-6.36-1.58-6.03,2.68.33,4.26,2.07,13.83,2.34,15.39.42,2.37,3.68,2.37,5.02-1.03,1.34-3.39-1.34-17.04-1.34-17.04Z"/>
          <path class="cls-1" d="M151.98,48.89c3.94-1.5,6.36-1.58,6.03,2.68-.33,4.26-2.07,13.83-2.34,15.39-.42,2.37-3.68,2.37-5.02-1.03s1.34-17.04,1.34-17.04Z"/>
        </g>
        <path class="cls-1" d="M141.64,78c0,16.51-.45,22.86,9.15,29.78,9.59,6.92,34.73,14.28,47.67,20.08,12.94,5.8,19.85,19.13,23.87,36.97,4.02,17.85,22.3,93.32,24.31,108.93s-5.67,57.4-6.12,74.13c-.45,16.73,1.56,28-.67,35.36s-19.85,25.43-22.53,27.21c-2.68,1.78-9.65.67-4.96-9.59,4.68-10.26,7.17-14.6,6.26-24.66-.63-7.02.13,5.65-3.47,12.5-1.96,3.72-9.15,2.68-6.25-6.69,2.9-9.37,1.9-25.76,6.58-30.23,4.68-4.46,6.92-5.8,7.36-12.05.45-6.25-2.68-27.21-6.02-44.61-3.35-17.4-4.02-34.13-5.13-43.05s-18.66-53.56-20.06-60.77c-.34-1.74-5.91-.92-6.34.79-2.51,9.86-12.19,35.64-14.8,49.02-3.79,19.41-2.9,31.26.22,47.1s16.73,32.12,21.41,62.01c4.68,29.89-.93,98.74-10.61,137.62-4.98,20.01-4.04,35.81-1.51,59,2.53,23.09-7.07,115.16-8.85,137.02-1.78,21.86-3.07,41.04,1.62,49.97,4.68,8.92,15.17,15.84,16.51,20.75,1.34,4.91-5.8,6.25-12.05,6.25s-16.23,3.35-19.8,0c-3.57-3.35-13.83-13.83-13.38-22.53.45-8.7,2.45-12.05.67-15.17-1.78-3.12.17-9.15,1.51-16.28,1.34-7.14,4.41-14.95,3.07-27.21-1.34-12.27-3.35-43.42-6.37-55.82-9.05-37.1-1.64-59.12-2.01-65.58-.55-9.86-5.19-20.86-6.97-34.24-1.78-13.38-3.79-56.16-5.13-69.32-1.34-13.16-3.35-48.29-3.79-59.67h-3.04c-.45,11.38-2.45,46.51-3.79,59.67-1.34,13.16-3.35,55.93-5.13,69.32-1.78,13.38-6.42,24.38-6.97,34.24-.36,6.46,7.05,28.49-2.01,65.58-3.03,12.4-5.04,43.55-6.37,55.82-1.34,12.27,1.73,20.08,3.07,27.21,1.34,7.14,3.29,13.16,1.51,16.28-1.78,3.12.22,6.47.67,15.17s-9.82,19.18-13.38,22.53c-3.57,3.35-13.55,0-19.8,0s-13.38-1.34-12.05-6.25c1.34-4.91,11.82-11.82,16.51-20.75,4.68-8.92,3.4-28.11,1.62-49.97-1.78-21.86-11.38-113.93-8.85-137.02,2.54-23.19,3.48-38.99-1.51-59-9.69-38.88-15.3-107.73-10.61-137.62,4.68-29.89,18.29-46.18,21.41-62.01,3.12-15.84,4.02-27.69.22-47.1-2.61-13.37-12.29-39.16-14.8-49.02-.44-1.71-5.92-1.86-6.26-.13-1.41,7.21-19.04,51.18-20.15,60.1s-1.78,25.65-5.13,43.05c-3.35,17.4-6.47,38.37-6.02,44.61.45,6.25,2.68,7.58,7.36,12.05,4.68,4.46,3.68,20.86,6.58,30.23s-4.28,10.42-6.25,6.69c-3.61-6.85-2.84-19.52-3.47-12.5-.9,10.06,1.58,14.39,6.26,24.66,4.68,10.26-2.29,11.38-4.96,9.59-2.68-1.78-20.3-19.85-22.53-27.21s-.22-18.63-.67-35.36c-.45-16.73-8.12-58.51-6.12-74.13,2.01-15.61,20.29-91.09,24.31-108.93,4.02-17.85,13.55-31.17,26.49-36.97,12.94-5.8,35.46-13.16,45.05-20.08,9.59-6.92,9.15-13.27,9.15-29.78h36.31Z"/>
      </g>
      <path class="cls-1" d="M181.47,98.25c-32.6-4.95-73.46,5.94-109.85-.59,12.06-14.3,11.58-34.35,10.05-56.65C80.13,18.7,89.24,0,113.82,3.57c36.76-13.67,57.93,14.78,54.93,37.36-3,22.58-.33,37.42,12.73,57.33Z"/>
      <g>
        <circle class="cls-1" cx="94.06" cy="192" r="35"/>
        <circle class="cls-1" cx="152.06" cy="192" r="35"/>
      </g>
    </g>
  </g>
</svg>