<?xml version="1.0" encoding="UTF-8"?>
<svg id="Layer_2" data-name="Layer 2" xmlns="http://www.w3.org/2000/svg" viewBox="0 0 276.53 765.62">
  <defs>
    <style>
      .cls-1 {
        fill: #ffa000;
      }
    </style>
  </defs>
  <g id="_ÎÓÈ_1" data-name="—ÎÓÈ_1">
    <g>
      <g>
        <g>
          <path class="cls-1" d="M168.52,50.75c0,23.86-13.99,43.2-30.7,43.2s-29.81-19.34-29.81-43.2,5.81-41.63,29.81-41.63,30.7,17.77,30.7,41.63Z"/>
          <path class="cls-1" d="M109.76,49.05c-3.94-1.5-6.36-1.58-6.03,2.68.33,4.26,2.07,13.83,2.34,15.39.42,2.37,3.68,2.37,5.02-1.03s-1.34-17.04-1.34-17.04Z"/>
          <path class="cls-1" d="M166.76,49.05c3.94-1.5,6.36-1.58,6.03,2.68-.34,4.26-2.07,13.83-2.34,15.39-.42,2.37-3.68,2.37-5.02-1.03-1.34-3.39,1.34-17.04,1.34-17.04Z"/>
        </g>
        <path class="cls-1" d="M161.35,72.79c0,16.52-.45,28.14,9.16,35.05,9.6,6.93,38.41,16.92,51.36,22.72,12.95,5.81,22.26,18.08,26.27,35.94,4.03,17.85,5.42,27.68,8.32,41.98,2.91,14.29,10.61,52.5,12.62,68.12,2.01,15.64,6.13,54.96,7.21,71.67,1.08,16.72-1.67,28.57-3.21,36.11-1.55,7.54-17.46,27.17-19.97,29.19s-9.55,1.8-5.82-8.87c3.74-10.65,5.81-15.2,3.99-25.15-1.27-6.94.66,5.61-2.32,12.78-1.61,3.9-8.87,3.5-6.83-6.1,2.03-9.6-.47-25.85,3.79-30.73,4.26-4.87,6.36-6.41,6.23-12.67-.12-6.27-10-20.94-17.07-38.57-6.48-16.17-11.16-25.09-13.5-41.95-1.25-8.92-8.88-25.15-12.67-35.64-1.98-5.44-1.42,12.67.28,25.29,2.28,17.03,2.11,13.78,6.36,35.36,3.07,15.64,9.37,24.28,11.88,49.57,3.02,30.13,2.83,115.42-6.86,154.34-4.98,20.03-5.09,36.18-2.54,59.4,2.53,23.1-.6,39.62-3.15,61.61-2.49,21.53-12.5,53.98-15.69,75.7-3.49,23.86-8.74,40.24-4.05,49.18,4.68,8.92,15.18,15.85,16.53,20.77,1.34,4.91-5.81,6.24-12.07,6.24s-16.24,3.34-19.81,0c-3.58-3.34-13.85-13.84-13.41-22.55.46-8.71,2.47-12.06.68-15.18-1.8-3.14-3.76-14.46-4.09-21.72-1.18-25.45-15.47-62.96-16.13-79.03-1.6-38.19-1.95-57.67-2.18-64.15-.22-6.47-2.4-19.76-4.18-33.15-.62-4.67-1.42-14.69-2.19-26.56-.01-.01-.01-.04,0-.05-.79,11.9-1.59,21.95-2.2,26.62-1.78,13.39-3.96,26.68-4.18,33.15-.22,6.48-.59,25.96-2.18,64.15-.67,16.07-14.97,53.59-16.13,79.03-.33,7.27-2.31,18.59-4.09,21.72-1.78,3.12.22,6.47.67,15.18s-9.83,19.2-13.39,22.55-13.56,0-19.82,0-13.39-1.34-12.06-6.24c1.34-4.92,11.83-11.85,16.53-20.77,4.68-8.93-.56-25.32-4.07-49.18-3.17-21.72-13.18-54.18-15.68-75.7-2.56-22-5.68-38.51-3.15-61.61,2.53-23.22,2.44-39.37-2.54-59.4-9.71-38.92-9.88-124.21-6.87-154.34,2.52-25.29,8.82-33.94,11.9-49.57,4.24-21.58,4.07-18.33,6.36-35.36,1.69-12.62,2.24-30.73.28-25.29-3.79,10.49-11.43,26.72-12.67,35.64-2.35,16.86-7.02,25.78-13.51,41.95-7.06,17.63-16.93,32.3-17.07,38.57-.12,6.26,1.98,7.81,6.24,12.67,4.25,4.88,1.76,21.13,3.79,30.73,2.02,9.6-5.23,10-6.85,6.1-2.96-7.16-1.05-19.72-2.32-12.78-1.81,9.94.26,14.49,3.99,25.15,3.74,10.66-3.31,10.89-5.81,8.87s-18.42-21.64-19.97-29.19c-1.55-7.54-4.3-19.39-3.21-36.11,1.09-16.71,5.21-56.04,7.21-71.67,2.01-15.62,9.71-53.84,12.61-68.12,2.91-14.3,4.3-24.12,8.32-41.98,4.03-17.87,13.33-30.13,26.27-35.94,12.96-5.8,41.75-15.79,51.36-22.72,9.6-6.91,9.16-18.54,9.16-35.05h46.17Z"/>
      </g>
      <path class="cls-1" d="M197.38,98.25c-32.6-4.95-73.46,5.94-109.85-.59,12.06-14.3,11.58-34.35,10.05-56.65C96.04,18.7,105.15,0,129.73,3.57c36.76-13.67,57.93,14.78,54.93,37.36-3,22.58-.33,37.42,12.73,57.33Z"/>
    </g>
  </g>
</svg>