<?xml version="1.0" encoding="UTF-8"?>
<svg id="Layer_2" data-name="Layer 2" xmlns="http://www.w3.org/2000/svg" viewBox="0 0 229.08 756.6">
  <defs>
    <style>
      .cls-1 {
        fill: #d32f2f;
      }
    </style>
  </defs>
  <g id="_ÎÓÈ_1" data-name="—ÎÓÈ_1">
    <g>
      <g>
        <g>
          <path class="cls-1" d="M144.79,50.43c0,23.86-13.99,43.2-30.7,43.2s-29.81-19.34-29.81-43.2,5.81-41.63,29.81-41.63,30.7,17.77,30.7,41.63Z"/>
          <path class="cls-1" d="M86.04,48.72c-3.94-1.5-6.36-1.58-6.03,2.68.33,4.26,2.07,13.83,2.34,15.39.42,2.37,3.68,2.37,5.02-1.03s-1.34-17.04-1.34-17.04Z"/>
          <path class="cls-1" d="M143.04,48.72c3.94-1.5,6.36-1.58,6.03,2.68-.33,4.26-2.07,13.83-2.34,15.39-.42,2.37-3.68,2.37-5.02-1.03-1.34-3.39,1.34-17.04,1.34-17.04Z"/>
        </g>
        <path class="cls-1" d="M129.1,77.59c0,16.51-.45,28.1,9.14,35.02,9.59,6.91,22.64,9.03,35.58,14.83s25.09,16.51,29.11,34.35c4.01,17.84,5.41,27.66,8.31,41.93,2.9,14.27,14.89,51.55,16.9,67.17,2.01,15.61.28,57.21-.17,73.94-.45,16.73,1.56,27.99-.67,35.35-2.23,7.36-14.61,25.43-17.29,27.21-2.68,1.78-9.65.67-4.96-9.59,4.68-10.26,7.16-14.59,6.26-24.65-.63-7.02.13,5.65-3.47,12.5-1.96,3.72-6.52,2.68-3.62-6.69,2.9-9.37,1.9-25.76,6.58-30.22,4.68-4.46,4.29-5.8,4.74-12.04s-.06-27.21-3.4-44.61c-3.35-17.4-4.01-34.13-5.13-43.05-1.12-8.92-9.37-18.54-13.16-29.02-3.79-10.48-13.2-44.95-17.71-50.36-1.45-1.74-6.25-3.79-8.35,3.57-4.52,15.83-9.88,51.61-12.47,64.86-3.79,19.4-2.9,31.25.22,47.09,3.12,15.84,11.49,29.5,16.17,59.39,4.68,29.89.22,48.35-1.78,68.87-2.01,20.52-8.81,107.9-8.36,131.32.45,23.42,1.62,39.7,2.29,61.34.67,21.64-.84,50.23-2.62,72.09-1.78,21.86-.45,41.04,4.24,49.96,4.68,8.92,15.17,15.84,16.51,20.74,1.34,4.91-5.8,6.25-12.04,6.25s-13.61,3.35-17.17,0c-3.57-3.35-13.83-13.83-13.38-22.53.45-8.7,5.07-12.04,3.29-15.17-1.78-3.12-2.45-9.14-1.12-16.28,1.34-7.14,1.78-14.94.45-27.21-1.34-12.27-4.09-40.85-5.02-53.58-1.78-24.31-1.5-52.64-1.73-59.11s-2.73-25.43-4.52-38.81c-1.78-13.38,3.9-57.71,2.57-70.87-1.34-13.16-5.35-42.6-5.8-53.98-.45-11.38-3.6-33.99-3.6-33.99h-18.69s-3.15,22.61-3.6,33.99c-.45,11.38-4.46,40.82-5.8,53.98-1.34,13.16,4.35,57.49,2.57,70.87-1.78,13.38-4.29,32.34-4.52,38.81-.22,6.47.06,34.79-1.73,59.11-.93,12.73-3.68,41.31-5.02,53.58-1.34,12.27-.89,20.07.45,27.21,1.34,7.14.67,13.16-1.12,16.28-1.78,3.12,2.84,6.47,3.29,15.17.45,8.7-9.81,19.18-13.38,22.53-3.57,3.35-10.93,0-17.17,0s-13.38-1.34-12.04-6.25c1.34-4.91,11.82-11.82,16.51-20.74,4.68-8.92,6.02-28.1,4.24-49.96-1.78-21.86-3.29-50.45-2.62-72.09.67-21.64,1.84-37.92,2.29-61.34.45-23.42-6.36-110.8-8.36-131.32-2.01-20.52-6.47-38.98-1.78-68.87,4.68-29.89,13.05-43.55,16.17-59.39,3.12-15.84,4.01-27.69.22-47.09-2.59-13.25-7.95-49.03-12.47-64.86-2.1-7.36-6.9-5.31-8.35-3.57-4.51,5.41-13.92,39.88-17.71,50.36-3.79,10.48-12.04,20.1-13.16,29.02-1.12,8.92-1.78,25.65-5.13,43.05-3.35,17.4-3.85,38.36-3.4,44.61s.06,7.58,4.74,12.04c4.68,4.46,3.68,20.85,6.58,30.22,2.9,9.37-1.66,10.42-3.62,6.69-3.61-6.85-2.84-19.52-3.47-12.5-.9,10.06,1.58,14.39,6.26,24.65,4.68,10.26-2.29,11.38-4.96,9.59-2.68-1.78-15.06-19.85-17.29-27.21-2.23-7.36-.22-18.62-.67-35.35-.45-16.73-2.17-58.33-.17-73.94,2.01-15.61,14-52.89,16.9-67.17,2.9-14.27,4.29-24.09,8.31-41.93,4.01-17.84,16.17-28.55,29.11-34.35s25.98-7.92,35.58-14.83c9.59-6.91,9.14-18.51,9.14-35.02h29.11Z"/>
      </g>
      <path class="cls-1" d="M171.88,98.25c-32.6-4.95-73.46,5.94-109.85-.59,12.06-14.3,11.58-34.35,10.05-56.65C70.53,18.7,79.64,0,104.22,3.57c36.76-13.67,57.93,14.78,54.93,37.36-3,22.58-.33,37.42,12.73,57.33Z"/>
      <g>
        <circle class="cls-1" cx="95.77" cy="188.59" r="35"/>
        <circle class="cls-1" cx="132.77" cy="188.59" r="35"/>
      </g>
    </g>
  </g>
</svg>