<?xml version="1.0" encoding="UTF-8"?>
<svg id="Layer_2" data-name="Layer 2" xmlns="http://www.w3.org/2000/svg" viewBox="0 0 296.03 745.86">
  <defs>
    <style>
      .cls-1 {
        fill: #f4511e;
      }
    </style>
  </defs>
  <g id="_ÎÓÈ_1" data-name="—ÎÓÈ_1">
    <g>
      <g>
        <path class="cls-1" d="M177.98,41.23c0,23.63-13.86,42.79-30.41,42.79s-29.52-19.16-29.52-42.79S123.8,0,147.57,0s30.41,17.6,30.41,41.23Z"/>
        <path class="cls-1" d="M119.79,39.54c-3.9-1.48-6.3-1.56-5.97,2.66.33,4.22,2.05,13.7,2.32,15.24.41,2.34,3.65,2.34,4.98-1.02,1.33-3.36-1.33-16.88-1.33-16.88Z"/>
        <path class="cls-1" d="M176.24,39.54c3.9-1.48,6.3-1.56,5.97,2.66-.33,4.22-2.05,13.7-2.32,15.24-.41,2.34-3.65,2.34-4.98-1.02-1.33-3.36,1.33-16.88,1.33-16.88Z"/>
      </g>
      <path class="cls-1" d="M173.7,50.13c0,16.36-.44,40.86,9.07,47.71,9.51,6.86,43.24,16.76,56.06,22.5,12.82,5.76,29.12,20.45,33.76,45.99,3.25,17.84,18.8,92.67,20.79,108.14,2,15.49.87,54.44,1.95,70.99,1.08,16.57.95,28.3-.58,35.77-1.53,7.47-17.29,26.91-19.78,28.91-2.48,2-12.04,1.78-8.35-8.78,3.69-10.55,5.76-15.06,3.95-24.91-1.26-6.87.64,5.56-2.3,12.66-1.6,3.86-8.78,3.47-6.77-6.04,2.01-9.51-.47-25.61,3.75-30.44,4.21-4.82,6.3-6.35,6.17-12.55-.13-6.21-12.5-20.74-19.5-38.2-6.43-16.02-8.46-24.86-10.78-41.55-1.22-8.84-19.18-34.39-22.95-44.79-1.95-5.39,1.2,12.55,2.88,25.05,2.26,16.86,8.16,23.54,14.1,44.5,4.73,16.75,6.68,24.05,9.17,49.1,2.98,29.84,5.41,96.13-4.2,134.68-4.95,19.84-7.64,41.03-5.12,64.03,2.49,22.88,1.77,39.64-3.12,61.03-5.04,22.01-9.29,50.79-12.94,74.98-3.56,23.62-13.86,39.86-9.21,48.71,4.64,8.84,15.03,15.7,16.36,20.57,1.33,4.86-5.74,6.18-11.94,6.18s-16.09,3.31-19.63,0c-3.53-3.31-13.71-13.71-13.27-22.33.44-8.63,2.43-11.94.66-15.03-1.77-3.11-3.72-14.32-4.05-21.52-1.16-25.21-12.38-58.83-15.98-78.28-6.87-37.22-7.13-57.12-7.35-63.54-.22-6.41-2.38-19.57-4.14-32.83-.68-5.05-1.56-16.46-2.39-29.68-.83,13.21-1.7,24.62-2.39,29.68-1.77,13.27-3.92,26.43-4.14,32.83-.22,6.42-.47,26.31-7.35,63.54-3.6,19.45-14.81,53.08-15.98,78.28-.32,7.2-2.27,18.41-4.05,21.52-1.77,3.09.22,6.41.68,15.03.44,8.63-9.73,19.02-13.28,22.33-3.53,3.31-13.43,0-19.62,0s-13.28-1.33-11.95-6.18c1.34-4.87,11.73-11.73,16.37-20.57,4.64-8.85-5.65-25.09-9.21-48.71-3.65-24.19-7.91-52.97-12.94-74.98-4.89-21.39-5.63-38.15-3.12-61.03,2.52-23-.18-44.19-5.12-64.03-9.6-38.55-7.17-104.84-4.2-134.68,2.49-25.05,4.43-32.35,9.17-49.1,5.92-20.96,11.84-27.64,14.1-44.5,1.68-12.5,4.83-30.44,2.87-25.05-3.75,10.39-21.71,35.95-22.95,44.79-2.31,16.7-4.35,25.53-10.77,41.55-7,17.46-19.39,31.99-19.5,38.2-.13,6.2,1.95,7.73,6.17,12.55,4.22,4.83,1.74,20.93,3.75,30.44,2.01,9.51-5.17,9.9-6.77,6.04-2.95-7.09-1.04-19.53-2.3-12.66-1.81,9.85.25,14.36,3.95,24.91,3.69,10.56-5.89,10.78-8.37,8.78-2.48-2-18.24-21.44-19.78-28.91-1.53-7.47-1.65-19.2-.58-35.77,1.08-16.55-.04-55.51,1.95-70.99,1.99-15.47,17.54-90.3,20.79-108.14,4.65-25.54,20.94-40.24,33.77-45.99,12.82-5.74,46.55-15.64,56.06-22.5,9.51-6.85,9.07-31.35,9.07-47.71h51.36Z"/>
    </g>
  </g>
</svg>