<?xml version="1.0" encoding="UTF-8"?>
<svg id="Layer_2" data-name="Layer 2" xmlns="http://www.w3.org/2000/svg" viewBox="0 0 250.04 745.86">
  <defs>
    <style>
      .cls-1 {
        fill: #00acc1;
      }
    </style>
  </defs>
  <g id="_ÎÓÈ_1" data-name="—ÎÓÈ_1">
    <g>
      <g>
        <path class="cls-1" d="M154.99,41.23c0,23.63-13.86,42.79-30.41,42.79s-29.52-19.16-29.52-42.79S100.81,0,124.58,0s30.41,17.6,30.41,41.23Z"/>
        <path class="cls-1" d="M96.79,39.54c-3.9-1.48-6.3-1.56-5.97,2.66.33,4.22,2.05,13.7,2.32,15.24.41,2.34,3.65,2.34,4.98-1.02,1.33-3.36-1.33-16.88-1.33-16.88Z"/>
        <path class="cls-1" d="M153.25,39.54c3.9-1.48,6.3-1.56,5.97,2.66-.33,4.22-2.05,13.7-2.32,15.24-.41,2.34-3.65,2.34-4.98-1.02-1.33-3.36,1.33-16.88,1.33-16.88Z"/>
      </g>
      <path class="cls-1" d="M143.02,68.32c0,16.37-.44,22.67,9.07,29.52s40.64,16.75,53.46,22.5c12.83,5.75,19.68,18.96,23.66,36.66s2.76,27.42,5.64,41.58,12.87,60.42,14.86,75.9-5.62,56.9-6.06,73.49c-.44,16.59,1.55,27.76-.66,35.05-2.21,7.3-19.68,25.21-22.34,26.98-2.65,1.77-12.16.66-7.52-9.51,4.64-10.17,7.1-14.47,6.21-24.44-.62-6.96.13,5.6-3.44,12.39-1.94,3.69-9.07,2.65-6.19-6.63,2.88-9.29,1.88-25.54,6.52-29.97,4.64-4.42,6.86-5.75,7.3-11.94.44-6.19-2.65-26.98-5.97-44.23-3.32-17.25-3.98-33.84-5.09-42.68-1.11-8.85-13.18-26.27-16.94-36.67-2.35-6.5-4.65-17.25-6.04-24.39-.34-1.72-2.77-1.79-3.2-.09-2.49,9.77-6.89,27.54-9.48,40.8-3.76,19.24,2.32,40.47,5.42,56.17,3.1,15.7,6.19,21.45,10.84,51.09,4.64,29.63,1.68,90.1-7.92,128.65-4.94,19.84-4.01,40.7-1.49,63.69,2.5,22.89,6.34,41.07,3.81,62.86-2.47,21.32-8.22,51.31-9.99,72.98-1.77,21.67-.44,40.69,4.2,49.54,4.64,8.85,15.04,15.7,16.37,20.57,1.33,4.87-5.75,6.19-11.94,6.19s-16.09,3.32-19.63,0c-3.54-3.32-13.71-13.71-13.27-22.34s2.43-11.94.66-15.04c-1.77-3.1-2.43-9.07-1.11-16.14,1.33-7.08,1.77-14.82.44-26.98s-8.52-43.05-11.52-55.34c-8.98-36.78-1.63-58.61-1.99-65.02-.55-9.78-2.54-20.68-4.31-33.95-1.77-13.27-3.76-42.68-5.09-55.73-1.33-13.05-3.32-42.68-3.76-53.96h-3.01c-.44,11.28-2.43,40.91-3.76,53.96-1.33,13.05-3.32,42.46-5.09,55.73-1.77,13.27-3.76,24.17-4.31,33.95-.36,6.41,6.99,28.24-1.99,65.02-3,12.29-10.19,43.18-11.52,55.34s-.88,19.9.44,26.98.66,13.05-1.11,16.14c-1.77,3.1.22,6.41.66,15.04s-9.73,19.02-13.27,22.34c-3.54,3.32-13.44,0-19.63,0s-13.27-1.33-11.94-6.19c1.33-4.87,11.72-11.72,16.37-20.57,4.64-8.85,5.97-27.87,4.2-49.54-1.77-21.67-7.52-51.66-9.99-72.98-2.53-21.79,1.31-39.98,3.81-62.86,2.52-22.99,3.45-43.86-1.49-63.69-9.6-38.55-12.57-99.01-7.92-128.65,4.64-29.63,7.74-35.38,10.84-51.09,3.1-15.7,9.18-36.93,5.42-56.17-2.59-13.26-6.99-31.03-9.48-40.8-.43-1.7-2.87-1.63-3.2.09-1.39,7.15-3.69,17.89-6.04,24.39-3.76,10.39-15.83,27.82-16.94,36.67-1.11,8.85-1.77,25.43-5.09,42.68-3.32,17.25-6.41,38.04-5.97,44.23.44,6.19,2.65,7.52,7.3,11.94,4.64,4.42,3.65,20.68,6.52,29.97,2.88,9.29-4.25,10.33-6.19,6.63-3.58-6.79-2.82-19.35-3.44-12.39-.89,9.97,1.56,14.27,6.21,24.44,4.64,10.17-4.87,11.28-7.52,9.51-2.65-1.77-20.13-19.68-22.34-26.98-2.21-7.3-.22-18.47-.66-35.05-.44-16.59-8.06-58.01-6.06-73.49,1.99-15.48,11.98-61.75,14.86-75.9,2.88-14.15,1.66-23.88,5.64-41.58,3.98-17.69,10.84-30.91,23.66-36.66,12.83-5.75,43.95-15.65,53.46-22.5,9.51-6.86,9.07-13.16,9.07-29.52h36Z"/>
    </g>
  </g>
</svg>