<?xml version="1.0" encoding="UTF-8"?>
<svg id="Layer_2" data-name="Layer 2" xmlns="http://www.w3.org/2000/svg" viewBox="0 0 302.46 745.86">
  <defs>
    <style>
      .cls-1 {
        fill: #d32f2f;
      }
    </style>
  </defs>
  <g id="_ÎÓÈ_1" data-name="—ÎÓÈ_1">
    <g>
      <g>
        <path class="cls-1" d="M181.2,41.23c0,23.63-13.86,42.79-30.41,42.79s-29.52-19.16-29.52-42.79S127.01,0,150.79,0s30.41,17.6,30.41,41.23Z"/>
        <path class="cls-1" d="M123,39.54c-3.9-1.48-6.3-1.56-5.97,2.66.33,4.22,2.05,13.7,2.32,15.24.41,2.34,3.65,2.34,4.98-1.02,1.33-3.36-1.33-16.88-1.33-16.88Z"/>
        <path class="cls-1" d="M179.46,39.54c3.9-1.48,6.3-1.56,5.97,2.66-.33,4.22-2.05,13.7-2.32,15.24-.41,2.34-3.65,2.34-4.98-1.02-1.33-3.36,1.33-16.88,1.33-16.88Z"/>
      </g>
      <path class="cls-1" d="M179.59,50.13c0,16.36,2.16,40.86,11.67,47.71,9.51,6.86,40.63,14.16,53.47,19.91,12.82,5.76,29.53,19.4,36.35,48.59,4.13,17.66,18.8,92.67,20.79,108.14,1.99,15.49-1.73,54.44-.65,70.99,1.08,16.57-1.65,28.3-3.18,35.77-1.53,7.47-17.29,26.91-19.78,28.91-2.48,2-12.06,1.78-8.35-8.78,3.69-10.55,5.74-15.06,3.94-24.91-1.25-6.87.65,5.56-2.29,12.66-1.6,3.86-8.8,3.47-6.78-6.04s-.45-25.61,3.76-30.44c4.22-4.82,6.3-6.35,6.18-12.55-.13-6.21-12.53-20.76-22.1-38.2-8.32-15.12-11.37-24.62-14.98-41.08-1.94-8.82-10.39-32.99-8.72-20.49,2.27,16.86,6.21,23.83,12.14,44.79,4.74,16.75,11.89,24.05,14.38,49.1,2.98,29.84,5.39,96.13-4.21,134.68-4.94,19.84-5.03,41.03-2.52,64.03,2.51,22.88,1.78,42.24-3.12,63.63-5.03,22.01-11.89,48.19-15.53,72.38-3.57,23.62-16.46,39.86-11.82,48.71,4.65,8.84,15.05,15.7,16.37,20.57,1.33,4.86-5.76,6.18-11.94,6.18s-16.1,3.31-19.63,0-13.71-13.71-13.27-22.33c.44-8.63,2.43-11.94.66-15.03-1.77-3.11-6.33-14.32-6.65-21.52-1.16-25.21-12.38-58.83-15.98-78.28-6.89-37.22-7.13-57.12-7.35-63.54-.22-6.41-4.98-19.57-6.74-32.83-.69-5.18-1.6-17.05-2.46-30.69v-.1c-.86,13.68-1.78,25.6-2.47,30.79-1.77,13.27-6.52,26.43-6.74,32.83-.22,6.42-.47,26.31-7.35,63.54-3.6,19.45-14.81,53.08-15.98,78.28-.32,7.2-4.89,18.41-6.65,21.52-1.77,3.09.22,6.41.66,15.03s-9.73,19.02-13.27,22.33c-3.53,3.31-13.43,0-19.63,0s-13.27-1.33-11.94-6.18c1.33-4.87,11.72-11.73,16.37-20.57,4.64-8.85-8.25-25.09-11.82-48.71-3.64-24.19-10.5-50.37-15.53-72.38-4.9-21.39-5.63-40.75-3.12-63.63,2.51-23,2.42-44.19-2.52-64.03-9.6-38.55-7.18-104.84-4.21-134.68,2.49-25.05,9.64-32.35,14.38-49.1,5.92-20.96,9.86-27.92,12.14-44.79,1.68-12.5-6.78,11.67-8.72,20.49-3.6,16.46-6.67,25.96-14.98,41.08-9.58,17.44-21.97,31.99-22.1,38.2-.12,6.2,1.96,7.73,6.18,12.55,4.21,4.83,1.74,20.93,3.75,30.44,2.01,9.51-5.18,9.9-6.78,6.04-2.94-7.09-1.04-19.53-2.29-12.66-1.81,9.85.25,14.36,3.94,24.91,3.7,10.56-5.87,10.78-8.35,8.78-2.48-2-18.24-21.44-19.78-28.91-1.53-7.47-4.26-19.2-3.18-35.77,1.08-16.55-2.64-55.51-.65-70.99,1.99-15.47,16.66-90.48,20.79-108.14,6.82-29.2,23.53-42.84,36.37-48.59,12.82-5.74,43.94-13.04,53.45-19.91,9.51-6.85,11.67-31.35,11.67-47.71h56.71Z"/>
    </g>
  </g>
</svg>