<?xml version="1.0" encoding="UTF-8"?>
<svg id="Layer_2" data-name="Layer 2" xmlns="http://www.w3.org/2000/svg" viewBox="0 0 228.85 743.26">
  <defs>
    <style>
      .cls-1 {
        fill: #f4511e;
      }
    </style>
  </defs>
  <g id="_ÎÓÈ_1" data-name="—ÎÓÈ_1">
    <g>
      <g>
        <path class="cls-1" d="M144.39,41.23c0,23.63-13.86,42.79-30.41,42.79s-29.52-19.16-29.52-42.79S90.21,0,113.98,0s30.41,17.6,30.41,41.23Z"/>
        <path class="cls-1" d="M86.2,39.54c-3.9-1.48-6.3-1.56-5.97,2.66.33,4.22,2.05,13.7,2.32,15.24.41,2.34,3.65,2.34,4.98-1.02,1.33-3.36-1.33-16.88-1.33-16.88Z"/>
        <path class="cls-1" d="M142.65,39.54c3.9-1.48,6.3-1.56,5.97,2.66-.33,4.22-2.05,13.7-2.32,15.24-.41,2.34-3.65,2.34-4.98-1.02-1.33-3.36,1.33-16.88,1.33-16.88Z"/>
      </g>
      <path class="cls-1" d="M129.72,68.32c0,16.37-.44,27.87,9.07,34.72,9.51,6.86,25.05,14.15,37.87,19.9,12.83,5.75,22.28,16.37,26.26,34.06s5.36,27.42,8.24,41.58,14.76,60.6,16.75,76.08.28,56.73-.17,73.31c-.44,16.59,1.55,27.76-.66,35.05-2.21,7.3-14.49,25.21-17.14,26.98-2.65,1.77-12.16.66-7.52-9.51,4.64-10.17,7.1-14.47,6.21-24.44-.62-6.96.13,5.6-3.44,12.39-1.94,3.69-6.47,2.65-3.59-6.63,2.88-9.29,1.88-25.54,6.52-29.97,4.64-4.42,4.26-5.75,4.7-11.94.44-6.19-2.65-26.98-5.97-44.23-3.32-17.25-3.98-33.84-5.09-42.68-1.11-8.85-9.29-27.87-13.05-38.26-3.76-10.39-10.65-34.05-14.96-39.54-1.09-1.4-4.94-3.41-6.66,2.43-3.71,12.62-6.21,41.87-8.78,55.02-3.76,19.24-2.88,40.47.22,56.17s6.19,21.45,10.84,51.09,2.82,107.7.83,128.05c-1.99,20.35-3.54,42.02-3.1,65.24.44,23.22,1.6,39.37,2.27,60.82.66,21.45-3.43,49.8-5.2,71.48-1.77,21.67-.44,40.69,4.2,49.54,4.64,8.85,15.04,15.7,16.37,20.57,1.33,4.87-5.75,6.19-11.94,6.19s-13.49,3.32-17.03,0c-3.54-3.32-13.71-13.71-13.27-22.34s2.43-11.94.66-15.04c-1.77-3.1-2.43-9.07-1.11-16.14,1.33-7.08,1.77-14.82.44-26.98-1.33-12.16-6.65-40.5-7.58-53.12-1.77-24.11-1.49-52.19-1.71-58.61-.22-6.41-2.71-25.21-4.48-38.48-1.77-13.27-1.33-44.23-2.65-57.28-1.33-13.05-5.31-42.24-5.75-53.52-.44-11.28-.97-23.3-.97-23.3h-9.85s-.53,12.03-.97,23.3c-.44,11.28-4.42,40.47-5.75,53.52-1.33,13.05-.88,44.01-2.65,57.28-1.77,13.27-4.26,32.07-4.48,38.48-.22,6.41.06,34.5-1.71,58.61-.92,12.62-6.25,40.96-7.58,53.12-1.33,12.16-.88,19.9.44,26.98,1.33,7.08.66,13.05-1.11,16.14-1.77,3.1.22,6.41.66,15.04s-9.73,19.02-13.27,22.34c-3.54,3.32-10.84,0-17.03,0s-13.27-1.33-11.94-6.19c1.33-4.87,11.72-11.72,16.37-20.57,4.64-8.85,5.97-27.87,4.2-49.54-1.77-21.67-5.86-50.03-5.2-71.48s1.82-37.6,2.27-60.82c.44-23.22-1.11-44.89-3.1-65.24-1.99-20.35-3.81-98.41.83-128.05s7.74-35.38,10.84-51.09,3.98-36.93.22-56.17c-2.57-13.15-5.07-42.4-8.78-55.02-1.72-5.84-5.57-3.83-6.66-2.43-4.31,5.49-11.2,29.15-14.96,39.54-3.76,10.39-11.94,29.41-13.05,38.26-1.11,8.85-1.77,25.43-5.09,42.68-3.32,17.25-6.41,38.04-5.97,44.23.44,6.19.06,7.52,4.7,11.94,4.64,4.42,3.65,20.68,6.52,29.97,2.88,9.29-1.65,10.33-3.59,6.63-3.58-6.79-2.82-19.35-3.44-12.39-.89,9.97,1.56,14.27,6.21,24.44,4.64,10.17-4.87,11.28-7.52,9.51-2.65-1.77-14.93-19.68-17.14-26.98-2.21-7.3-.22-18.47-.66-35.05-.44-16.59-2.16-57.83-.17-73.31,1.99-15.48,13.88-61.92,16.75-76.08s4.26-23.88,8.24-41.58,13.44-28.31,26.26-34.06c12.83-5.75,28.36-13.05,37.87-19.9,9.51-6.86,9.07-18.36,9.07-34.72h30.58Z"/>
    </g>
  </g>
</svg>