<?xml version="1.0" encoding="UTF-8"?>
<svg id="Layer_2" data-name="Layer 2" xmlns="http://www.w3.org/2000/svg" viewBox="0 0 126.37 126.37">
  <defs>
    <style>
      .cls-1, .cls-2 {
        fill: #f6b31a;
      }

      .cls-3 {
        fill: #d4d4d4;
      }

      .cls-4 {
        fill: #4d4d4d;
      }

      .cls-5 {
        fill: #c71e25;
      }

      .cls-6 {
        fill: #b3b3b3;
      }

      .cls-2 {
        fill-rule: evenodd;
      }

      .cls-7 {
        fill: #ececec;
      }
    </style>
  </defs>
  <g id="Layer_1-2" data-name="Layer 1">
    <path id="_3126070163" data-name=" 3126070163" class="cls-6" d="M124.21,46.83c9,33.74-11,68.38-44.67,77.38-33.74,9-68.38-11-77.38-44.67C-6.85,45.8,13.15,11.16,46.83,2.16c33.74-9,68.38,11,77.38,44.67Z"/>
    <path id="_3126068723" data-name=" 3126068723" class="cls-1" d="M25.04,29.65l23.37,13.47-12.1,20.96-23.37-13.47c-.82-.48-1.1-1.58-.62-2.41l10.31-17.87c.48-.82,1.58-1.1,2.41-.62h0v-.07Z"/>
    <path id="_3126067283" data-name=" 3126067283" class="cls-7" d="M48.41,43.12l10.45,6.05-1.99,3.44c-.62,1.1-.48,2.34.41,2.82.82.48,2.06,0,2.68-1.1l1.99-3.44,36.35,21.03-12.1,20.96-36.35-21.03,1.92-3.3c.62-1.1.48-2.34-.41-2.82-.82-.48-2.06,0-2.68,1.1l-1.92,3.3-10.45-6.05,12.1-20.96h0ZM57.07,59.2c.62-1.1.48-2.34-.41-2.82-.82-.48-2.06,0-2.68,1.1l-2.54,4.4c-.62,1.1-.48,2.34.41,2.82.82.48,2.06,0,2.68-1.1l2.54-4.4h0Z"/>
    <path id="_3126065843" data-name=" 3126065843" class="cls-3" d="M48.41,43.12l.76.41-12.1,20.96-.76-.41,12.1-20.96Z"/>
    <path id="_3126064643" data-name=" 3126064643" class="cls-5" d="M98.23,71.91l5.29,3.09c3.78,2.2,5.09,7.01,2.89,10.79l-4.19,7.28c-2.2,3.78-7.01,5.09-10.79,2.89l-5.29-3.09,12.1-20.96h0Z"/>
    <path id="_3126063923" data-name=" 3126063923" class="cls-4" d="M103.25,41.05c-.69-.69-1.79-.76-2.47,0-.69.69-.76,1.79,0,2.47,6.46,6.8-7.97,13.47-.14,23.71.62.76,1.72.89,2.47.34.76-.62.89-1.72.34-2.47-6.19-8.04,8.66-14.71-.14-23.98h0l-.07-.07Z"/>
    <path id="_3126063203" data-name=" 3126063203" class="cls-4" d="M111.43,45.8c-.69-.69-1.79-.76-2.47,0-.69.69-.76,1.79,0,2.47,6.46,6.8-7.97,13.47-.14,23.71.62.76,1.72.89,2.47.34.76-.62.89-1.72.34-2.47-6.19-8.04,8.66-14.71-.14-23.98h0l-.07-.07Z"/>
    <path id="_3126062243" data-name=" 3126062243" class="cls-2" d="M59.95,54.32l1.99-3.44-3.02-1.79-1.99,3.44c-.62,1.1-.48,2.34.41,2.82.82.48,2.06,0,2.68-1.1h0l-.07.07Z"/>
    <path id="_3126061283" data-name=" 3126061283" class="cls-2" d="M57.07,59.2c.62-1.1.48-2.34-.41-2.82-.82-.48-2.06,0-2.68,1.1l-2.54,4.4c-.62,1.1-.48,2.34.41,2.82.82.48,2.06,0,2.68-1.1l2.54-4.4h0Z"/>
    <path id="_3126060563" data-name=" 3126060563" class="cls-2" d="M51.71,68.54c.62-1.1.48-2.34-.41-2.82-.82-.48-2.06,0-2.68,1.1l-1.92,3.3,3.02,1.79,1.92-3.3h0l.07-.07Z"/>
  </g>
</svg>