<?xml version="1.0" encoding="UTF-8"?>
<svg id="Layer_2" data-name="Layer 2" xmlns="http://www.w3.org/2000/svg" viewBox="0 0 115 115">
  <defs>
    <style>
      .cls-1 {
        fill: #ffb74f;
      }

      .cls-2 {
        fill: #390;
      }

      .cls-3 {
        fill: #fff5cb;
      }

      .cls-4 {
        fill: #ffe670;
      }

      .cls-5 {
        fill: #fff;
      }

      .cls-6 {
        fill: #00dfc1;
      }

      .cls-7 {
        fill: #00ceb4;
      }
    </style>
  </defs>
  <g id="Layer_1-2" data-name="Layer 1">
    <path class="cls-2" d="M115,57.5c0,31.76-25.74,57.5-57.5,57.5S0,89.26,0,57.5,25.74,0,57.5,0s57.5,25.74,57.5,57.5Z"/>
    <path class="cls-1" d="M41.01,30.77c0,6.35-5.15,11.5-11.5,11.5s-11.5-5.15-11.5-11.5,5.15-11.5,11.5-11.5,11.5,5.15,11.5,11.5Z"/>
    <path class="cls-4" d="M38.66,30.77c0,5.05-4.09,9.14-9.14,9.14s-9.14-4.09-9.14-9.14,4.09-9.14,9.14-9.14,9.14,4.09,9.14,9.14Z"/>
    <path class="cls-3" d="M56.94,62.79h6.32v36h-6.32v-36Z"/>
    <path class="cls-4" d="M60.1,62.78h3.16v36h-3.16v-36Z"/>
    <path class="cls-5" d="M29.52,30.77l25.31,33.45h10.54l25.31-33.45H29.52Z"/>
    <path class="cls-3" d="M90.69,30.77l-9.8,12.96-15.51,20.49h-5.27V30.77h30.58Z"/>
    <path class="cls-1" d="M69.69,44.63h-3.68v-22.2l18.8-7.51,1.37,3.42-16.49,6.59v19.71Z"/>
    <path class="cls-6" d="M65.38,64.23l15.51-20.49h-41.56l15.51,20.49h10.54Z"/>
    <path class="cls-7" d="M80.88,43.73l-15.51,20.49h-5.27v-20.49h20.78Z"/>
    <path class="cls-5" d="M74.24,102.27h-28.28c0-2.44,1.98-4.41,4.41-4.41h19.45c2.44,0,4.41,1.98,4.41,4.41Z"/>
    <path class="cls-3" d="M74.24,102.27h-14.14v-4.42h9.73c2.44,0,4.41,1.98,4.41,4.42Z"/>
  </g>
</svg>