<?xml version="1.0" encoding="UTF-8"?>
<svg xmlns="http://www.w3.org/2000/svg" viewBox="0 0 462.56 490.67">
  <defs>
    <style>
      .cls-1 {
        fill: #e0e0e0;
      }

      .cls-2 {
        fill: #dfe6f2;
      }

      .cls-3, .cls-4 {
        fill: #b5b3c7;
      }

      .cls-3, .cls-5, .cls-6 {
        mix-blend-mode: multiply;
      }

      .cls-7, .cls-6 {
        fill: #c9d2ff;
      }

      .cls-8, .cls-9, .cls-10 {
        opacity: .4;
      }

      .cls-8, .cls-11 {
        fill: #dee3ff;
      }

      .cls-12 {
        fill: none;
        stroke: #fff;
        stroke-miterlimit: 10;
      }

      .cls-13 {
        fill: #f2aa6f;
      }

      .cls-9, .cls-14, .cls-15 {
        fill: #fff;
      }

      .cls-16 {
        fill: #ff8c00;
      }

      .cls-17 {
        isolation: isolate;
      }

      .cls-18 {
        fill: #595651;
      }

      .cls-19 {
        fill: #f2be94;
      }

      .cls-14 {
        mix-blend-mode: soft-light;
      }

      .cls-20 {
        fill: #ff6161;
      }

      .cls-21 {
        fill: #a8b8ff;
      }

      .cls-22 {
        fill: #749ddb;
      }

      .cls-5 {
        fill: #ebdaf2;
      }

      .cls-23 {
        opacity: .5;
      }

      .cls-24 {
        fill: #edf0f2;
      }

      .cls-25 {
        fill: #80adf2;
      }
    </style>
  </defs>
  <g class="cls-17">
    <g id="Layer_2" data-name="Layer 2">
      <g id="Objects">
        <circle class="cls-22" cx="227.6" cy="266.34" r="211.24" transform="translate(-121.67 238.95) rotate(-45)"/>
        <g>
          <rect class="cls-4" x="70.3" y="115.66" width="9.51" height="5.32" transform="translate(-63.12 95.09) rotate(-48.07)"/>
          <path class="cls-3" d="M80.21,116.56l-1.73,1.93c-.75-.45-1.47-.99-2.14-1.6-.68-.61-1.29-1.26-1.82-1.96l1.73-1.93,3.96,3.56Z"/>
          <path class="cls-15" d="M112.74,113.81c-9.22,10.27-25.02,11.11-35.28,1.89-10.27-9.22-11.11-25.02-1.89-35.28,9.22-10.27,25.02-11.12,35.28-1.89,10.27,9.22,11.11,25.02,1.89,35.28Z"/>
          <path class="cls-7" d="M109.57,110.96c-2.85,3.18-6.47,5.26-10.32,6.24-6.47,1.63-13.63.12-18.95-4.67-8.5-7.64-9.21-20.77-1.57-29.28,4.79-5.33,11.73-7.59,18.34-6.65,3.94.55,7.76,2.24,10.93,5.09,8.5,7.63,9.2,20.77,1.57,29.27Z"/>
          <path class="cls-11" d="M106.66,109.37c-2.53,2.82-5.73,4.67-9.15,5.54-3.49-.5-6.88-2-9.69-4.52-7.54-6.77-8.16-18.42-1.39-25.95,2.53-2.82,5.73-4.66,9.16-5.52,3.5.49,6.88,1.98,9.69,4.51,7.54,6.77,8.16,18.42,1.39,25.95Z"/>
          <path class="cls-7" d="M108,81.7c-3.18-2.85-6.99-4.53-10.93-5.09-6.61-.94-13.55,1.32-18.34,6.65-7.64,8.5-6.93,21.64,1.57,29.28,5.32,4.78,12.47,6.29,18.95,4.67,3.86-.98,7.47-3.07,10.32-6.24,7.63-8.5,6.93-21.63-1.57-29.27ZM98.83,115.56c-6.17,1.55-12.68-.05-17.39-4.28-7.81-7.01-8.45-19.07-1.44-26.87,4.23-4.72,10.53-7,16.84-6.11,3.75.53,7.22,2.14,10.03,4.67,7.8,7.01,8.45,19.06,1.44,26.86-2.53,2.82-5.81,4.8-9.47,5.73Z"/>
          <path class="cls-15" d="M53.28,148.36c-1.41,1.57-3.84,1.7-5.41.29h0c-1.58-1.41-1.7-3.84-.29-5.41l21.19-23.6c1.41-1.57,3.84-1.71,5.41-.29h0c1.57,1.41,1.7,3.84.29,5.41l-21.19,23.6Z"/>
          <rect class="cls-11" x="51.78" y="138.39" width="3.71" height="7.67" transform="translate(-88.02 87.1) rotate(-48.07)"/>
          <g class="cls-23">
            <path class="cls-15" d="M102.54,107.99c-.44-.39-.47-1.07-.08-1.51,5.19-5.77,4.71-14.69-1.07-19.88-.44-.39-.48-1.07-.08-1.51.4-.44,1.07-.48,1.51-.08,6.65,5.97,7.2,16.24,1.23,22.89-.39.44-1.07.48-1.51.08Z"/>
          </g>
        </g>
        <g>
          <path class="cls-11" d="M18.22,219.74c9.49,0,17.19,7.7,17.19,17.19v58.81c0,9.49-7.7,17.19-17.19,17.19-4.74,0-9.04-1.93-12.15-5.04-3.11-3.11-5.04-7.41-5.04-12.15v-58.81c0-9.49,7.7-17.19,17.19-17.19Z"/>
          <path class="cls-20" d="M1.02,266.35h34.39s0,29.4,0,29.4c0,9.49-7.7,17.19-17.19,17.19-4.74,0-9.04-1.93-12.15-5.04-3.11-3.11-5.04-7.41-5.04-12.15v-29.4Z"/>
          <path class="cls-6" d="M15.05,220.04c7.97,1.5,14.01,8.49,14.01,16.9v58.81c0,8.4-6.04,15.4-14.01,16.89,1.03.2,2.09.3,3.17.3,9.49,0,17.19-7.7,17.19-17.19v-58.81c0-9.49-7.7-17.19-17.19-17.19-1.09,0-2.14.11-3.17.3Z"/>
          <path class="cls-9" d="M8.38,234.44c1.31,0,2.37,1.06,2.37,2.37v60.8c0,1.31-1.06,2.37-2.37,2.37h0c-1.31,0-2.37-1.06-2.37-2.37v-60.8c0-1.31,1.06-2.37,2.37-2.37h0Z"/>
        </g>
        <g>
          <path class="cls-11" d="M455.38,279.22c0,10.49-7.84,19.12-17.98,20.37-.84.11-1.69.16-2.55.16s-1.72-.05-2.56-.16c-10.14-1.25-17.98-9.9-17.98-20.37s7.84-19.11,17.98-20.36c.84-.11,1.69-.16,2.56-.16s1.72.05,2.55.16c10.13,1.25,17.98,9.89,17.98,20.36Z"/>
          <path class="cls-7" d="M437.41,258.86v40.74c-.84.11-1.69.16-2.55.16s-1.72-.05-2.56-.16v-40.74c.84-.11,1.69-.16,2.56-.16s1.72.05,2.55.16Z"/>
        </g>
        <g>
          <path class="cls-11" d="M448.37,251.02c-7.25,0-13.22-5.42-14.09-12.43-.08-.58-.11-1.17-.11-1.76s.04-1.19.11-1.77c.87-7.01,6.84-12.43,14.09-12.43s13.21,5.42,14.08,12.43c.08.58.11,1.17.11,1.77s-.03,1.19-.11,1.76c-.87,7.01-6.84,12.43-14.08,12.43Z"/>
          <path class="cls-7" d="M462.45,238.6h-28.17c-.08-.58-.11-1.17-.11-1.76s.04-1.19.11-1.77h28.17c.08.58.11,1.17.11,1.77s-.03,1.19-.11,1.76Z"/>
        </g>
        <g>
          <path class="cls-11" d="M137.21,450.85c0,7.13-5.33,12.99-12.22,13.85-.57.08-1.15.11-1.73.11s-1.17-.03-1.74-.11c-6.89-.85-12.22-6.73-12.22-13.85s5.33-12.99,12.22-13.84c.57-.08,1.15-.11,1.74-.11s1.17.03,1.73.11c6.89.85,12.22,6.72,12.22,13.84Z"/>
          <path class="cls-7" d="M125,437.01v27.69c-.57.08-1.15.11-1.73.11s-1.17-.03-1.74-.11v-27.69c.57-.08,1.15-.11,1.74-.11s1.17.03,1.73.11Z"/>
        </g>
        <g>
          <g>
            <path class="cls-11" d="M124.25,391.83c4.02-3.03,9.74-2.22,12.77,1.8h0c3.03,4.02,2.22,9.74-1.8,12.77l-66.75,50.24c-4.02,3.03-9.74,2.22-12.77-1.8h0c-3.03-4.02-2.22-9.74,1.8-12.77l66.75-50.24Z"/>
            <path class="cls-15" d="M63.96,441.85c.25-.19.6-.14.78.11l6.14,8.16c.19.25.14.6-.11.79h0c-.25.19-.6.14-.79-.11l-6.14-8.16c-.19-.25-.14-.6.11-.79h0Z"/>
            <path class="cls-15" d="M68.46,438.46c.25-.19.6-.14.78.11l6.14,8.16c.19.25.14.6-.11.79h0c-.25.19-.6.14-.78-.11l-6.14-8.16c-.19-.25-.14-.6.11-.78h0Z"/>
            <path class="cls-15" d="M72.96,435.07c.25-.19.6-.14.78.11l6.14,8.16c.19.25.14.6-.11.79h0c-.25.19-.6.14-.79-.11l-6.14-8.16c-.19-.25-.14-.6.11-.78h0Z"/>
            <path class="cls-15" d="M77.47,431.68c.25-.19.6-.14.78.11l6.14,8.16c.19.25.14.6-.11.78h0c-.25.19-.6.14-.79-.11l-6.14-8.16c-.19-.25-.14-.6.11-.79h0Z"/>
            <path class="cls-15" d="M81.97,428.3c.25-.19.6-.14.78.11l6.14,8.16c.19.25.14.6-.11.78h0c-.25.19-.6.14-.79-.11l-6.14-8.16c-.19-.25-.14-.6.11-.79h0Z"/>
            <path class="cls-15" d="M86.47,424.91c.25-.19.6-.14.78.11l6.14,8.16c.19.25.14.6-.11.79h0c-.25.19-.6.14-.79-.11l-6.14-8.16c-.19-.25-.14-.6.11-.79h0Z"/>
            <path class="cls-15" d="M90.97,421.52c.25-.19.6-.14.79.11l6.14,8.16c.19.25.14.6-.11.79h0c-.25.19-.6.14-.79-.11l-6.14-8.16c-.19-.25-.14-.6.11-.79h0Z"/>
            <path class="cls-15" d="M95.47,418.13c.25-.19.6-.14.79.11l6.14,8.16c.19.25.14.6-.11.79h0c-.25.19-.6.14-.79-.11l-6.14-8.16c-.19-.25-.14-.6.11-.78h0Z"/>
            <path class="cls-15" d="M99.97,414.74c.25-.19.6-.14.79.11l6.14,8.16c.19.25.14.6-.11.79h0c-.25.19-.6.14-.79-.11l-6.14-8.16c-.19-.25-.14-.6.11-.78h0Z"/>
            <path class="cls-15" d="M104.48,411.35c.25-.19.6-.14.79.11l6.14,8.16c.19.25.14.6-.11.78h0c-.25.19-.6.14-.79-.11l-6.14-8.16c-.19-.25-.14-.6.11-.79h0Z"/>
            <path class="cls-15" d="M108.98,407.96c.25-.19.6-.14.79.11l6.14,8.16c.19.25.14.6-.11.78h0c-.25.19-.6.14-.79-.11l-6.14-8.16c-.19-.25-.14-.6.11-.79h0Z"/>
            <path class="cls-15" d="M113.48,404.58c.25-.19.6-.14.79.11l6.14,8.16c.19.25.14.6-.11.79h0c-.25.19-.6.14-.79-.11l-6.14-8.16c-.19-.25-.14-.6.11-.79h0Z"/>
            <path class="cls-15" d="M117.98,401.19c.25-.19.6-.14.79.11l6.14,8.16c.19.25.14.6-.11.79h0c-.25.19-.6.14-.78-.11l-6.14-8.16c-.19-.25-.14-.6.11-.79h0Z"/>
            <path class="cls-15" d="M122.48,397.8c.25-.19.6-.14.79.11l6.14,8.16c.19.25.14.6-.11.79h0c-.25.19-.6.14-.79-.11l-6.14-8.16c-.19-.25-.14-.6.11-.78h0Z"/>
            <path class="cls-11" d="M33.02,467.65l95.17-71.63c1.6-1.2,3.91-.88,5.12.73.58.78.83,1.73.72,2.7-.14.98-.65,1.84-1.43,2.43l-95.17,71.63c-1.6,1.2-3.9.88-5.12-.73-.58-.78-.84-1.74-.71-2.7.14-.99.64-1.83,1.42-2.42Z"/>
            <path class="cls-20" d="M34.08,469.05l95.16-71.63c.84-.63,2.03-.46,2.67.38.31.41.43.92.37,1.41-.07.48-.32.93-.74,1.25l-95.16,71.63c-.84.63-2.03.46-2.66-.37-.32-.42-.43-.93-.37-1.41.07-.49.32-.95.74-1.26Z"/>
            <path class="cls-15" d="M86.14,429.87l43.1-32.44c.84-.63,2.03-.46,2.67.38.31.41.43.92.37,1.41-.07.48-.32.93-.74,1.25l-43.1,32.44-2.29-3.04Z"/>
          </g>
          <path class="cls-15" d="M33.02,467.65l7.72-5.81,4.41,5.85-7.72,5.81c-1.6,1.2-3.9.88-5.12-.73-.58-.78-.84-1.74-.71-2.7.14-.99.64-1.83,1.42-2.42Z"/>
        </g>
        <g>
          <path class="cls-7" d="M355.48,116.39c-.56.22-1.17.34-1.8.34h-41.51c-2.75,0-4.98-2.22-4.98-4.98v-46.39c0-2.75,2.07-5.81,4.63-6.82l7.69-3.06v-9.71h26.79v5.92h-19.72v8.87l-7.07,2.87c-2.35.93-4.25,3.73-4.25,6.26v42.12c0,2.53,2.05,4.58,4.57,4.58h35.66Z"/>
          <rect class="cls-7" x="319.5" y="50.63" width="26.78" height="16.07"/>
          <g>
            <path class="cls-11" d="M349.03,49.63c0,.55-.41,1-.92,1h-30.44c-.51,0-.92-.45-.92-1v-16.87c0-.55.42-1,.92-1h30.44c.51,0,.92.45.92,1v16.87Z"/>
            <rect class="cls-14" x="317.99" y="31.76" width=".88" height="18.86"/>
            <rect class="cls-14" x="320.24" y="31.76" width=".88" height="18.86"/>
            <rect class="cls-14" x="322.49" y="31.76" width=".88" height="18.86"/>
            <rect class="cls-14" x="324.74" y="31.76" width=".88" height="18.86"/>
            <rect class="cls-14" x="326.99" y="31.76" width=".88" height="18.86"/>
            <rect class="cls-14" x="329.23" y="31.76" width=".88" height="18.86"/>
            <rect class="cls-14" x="331.49" y="31.76" width=".88" height="18.86"/>
            <rect class="cls-14" x="333.73" y="31.76" width=".89" height="18.86"/>
            <rect class="cls-14" x="335.99" y="31.76" width=".88" height="18.86"/>
            <rect class="cls-14" x="338.24" y="31.76" width=".88" height="18.86"/>
            <rect class="cls-14" x="340.48" y="31.76" width=".88" height="18.86"/>
            <rect class="cls-14" x="342.73" y="31.76" width=".88" height="18.86"/>
            <rect class="cls-14" x="344.98" y="31.76" width=".88" height="18.86"/>
            <rect class="cls-14" x="347.23" y="31.76" width=".88" height="18.86"/>
          </g>
          <path class="cls-11" d="M358.65,65.36v46.39c0,2.12-1.31,3.92-3.17,4.64h-35.66c-2.52,0-4.57-2.05-4.57-4.58v-42.12c0-2.53,1.9-5.34,4.25-6.26l7.07-2.81v-.06l12.34-5v-3.87h7.38v3.77l4.91,1.95,2.83,1.12c1.97.78,3.64,2.77,4.31,4.9.21.64.32,1.28.32,1.92Z"/>
          <rect class="cls-20" x="307.18" y="71.49" width="51.47" height="30.38"/>
          <polygon class="cls-15" points="343.2 83.28 336.31 83.28 336.31 76.39 329.52 76.39 329.52 83.28 322.62 83.28 322.62 90.07 329.52 90.07 329.52 96.97 336.31 96.97 336.31 90.07 343.2 90.07 343.2 83.28"/>
        </g>
        <g>
          <g>
            <rect class="cls-15" x="188.84" y="19.62" width="21.68" height="62.8" transform="translate(22.41 156.14) rotate(-45)"/>
            <rect class="cls-7" x="172.69" y="-1.06" width="4.03" height="54.2" transform="translate(32.77 131.18) rotate(-45.01)"/>
            <path class="cls-15" d="M187.19,19.63c.8.8.8,2.1,0,2.91l-15.99,15.99c-.8.8-2.1.8-2.91,0h0c-.8-.8-.8-2.1,0-2.91l15.99-15.99c.8-.8,2.1-.8,2.91,0h0Z"/>
            <path class="cls-7" d="M161.82.6c.8.8.8,2.1,0,2.91l-9.65,9.65c-.8.8-2.1.8-2.91,0h0c-.8-.8-.8-2.1,0-2.91l9.65-9.65c.8-.8,2.1-.8,2.91,0h0Z"/>
            <path class="cls-15" d="M183.36,23.47c.44.44.45,1.16,0,1.61-.44.44-1.16.44-1.61,0-.44-.44-.45-1.16,0-1.61.44-.44,1.16-.44,1.61,0Z"/>
            <rect class="cls-7" x="169" y="30.27" width="21.68" height="1.81" transform="translate(30.63 136.3) rotate(-45)"/>
            <rect class="cls-7" x="183.03" y="44.37" width="21.68" height="1.68" transform="translate(24.82 150.32) rotate(-45)"/>
            <rect class="cls-15" x="200.54" y="47.85" width="21.68" height="29.72" transform="translate(17.57 167.83) rotate(-45)"/>
            <rect class="cls-7" x="221.23" y="72.74" width="3.69" height="3.42" transform="translate(12.7 179.55) rotate(-45)"/>
            <rect class="cls-7" x="238.28" y="69.61" width="1.17" height="41.2" transform="translate(6.22 195.41) rotate(-45.02)"/>
          </g>
          <rect class="cls-21" x="198.33" y="40.44" width="18.32" height="37.05" transform="translate(19.08 163.98) rotate(-45)"/>
        </g>
        <g>
          <path class="cls-20" d="M353.05,451.06c-.24.64-.52,1.3-.82,1.97-.06.16-.12.31-.2.46-.08.17-.16.35-.26.54-1.28,2.79-2.93,5.79-5.08,8.87-5.88,8.51-15.39,17.72-30.73,25.43-20.89-10.49-30.97-23.79-35.82-34.3-.09-.18-.17-.36-.24-.54-.07-.16-.15-.3-.21-.46-.29-.67-.57-1.33-.82-1.97-3.39-8.57-3.26-14.66-3.26-14.66,0-8.76,5.59-16.23,13.41-19.01,2.11-.76,4.38-1.17,6.76-1.17,11.14,0,20.18,9.04,20.18,20.18,0-11.14,9.03-20.18,20.17-20.18s20.16,9.04,20.16,20.18c0,0,.12,6.09-3.25,14.66Z"/>
          <path class="cls-5" d="M346.7,462.9c-5.88,8.51-15.39,17.72-30.73,25.43-20.89-10.49-30.97-23.79-35.82-34.3-.09-.18-.17-.36-.24-.54-.07-.16-.15-.3-.21-.46-.29-.67-.57-1.33-.82-1.97-3.39-8.57-3.26-14.66-3.26-14.66,0-8.76,5.59-16.23,13.41-19.01-.89,3.3-1.36,6.77-1.36,10.36,0,5.5,1.11,10.75,3.13,15.52.39.93.8,1.83,1.27,2.7,1.67,3.26,3.78,6.27,6.25,8.94,1.46,1.58,3.06,3.06,4.76,4.38.28.21.54.41.8.61.13.1.27.2.4.28,6.58,4.74,14.63,7.54,23.36,7.54,1.96,0,3.89-.15,5.77-.41,1.06-.16,2.12-.35,3.15-.59,3.58-.82,6.99-2.11,10.13-3.82Z"/>
          <path class="cls-15" d="M353.05,451.06c-.24.64-.52,1.3-.82,1.97-.06.16-.12.31-.2.46h-9.76l-5.71,13.23-2.09,4.85-1.06-4.26-7.28-29.15-7,15.33h-10.17l-4.68,6.69-2.16,3.08-3.81-8.35-5.05-11.05-1.19,2.11-4.28,7.53h-7.88c-.07-.16-.15-.3-.21-.46-.29-.67-.57-1.33-.82-1.97h7.49l4.42-7.8,2.69-4.75,9.08,19.87,5.11-7.32h9.87l9.24-20.24,8.29,33.17,5.59-12.93h12.36Z"/>
        </g>
        <g>
          <path class="cls-15" d="M258.94,38.91c0,1.54-1.25,2.79-2.79,2.79s-2.79-1.25-2.79-2.79,1.25-2.79,2.79-2.79,2.79,1.25,2.79,2.79Z"/>
          <path class="cls-15" d="M285.7,75.59c-4.35,2.23-6.15,4.04-8.38,8.38-2.23-4.35-4.04-6.15-8.38-8.38,4.35-2.23,6.15-4.04,8.38-8.38,2.23,4.35,4.04,6.15,8.38,8.38Z"/>
          <path class="cls-15" d="M155.46,71.93c-4.35,2.23-6.15,4.04-8.38,8.38-2.23-4.35-4.04-6.15-8.38-8.38,4.35-2.23,6.15-4.04,8.38-8.38,2.23,4.35,4.04,6.15,8.38,8.38Z"/>
          <path class="cls-15" d="M410.57,128.94c0,1.99-1.61,3.59-3.59,3.59s-3.59-1.61-3.59-3.59,1.61-3.59,3.59-3.59,3.59,1.61,3.59,3.59Z"/>
          <path class="cls-15" d="M134.09,58.96c0,1.99-1.61,3.59-3.59,3.59s-3.59-1.61-3.59-3.59,1.61-3.59,3.59-3.59,3.59,1.61,3.59,3.59Z"/>
          <path class="cls-15" d="M20.36,195.52c0,1.99-1.61,3.59-3.59,3.59s-3.59-1.61-3.59-3.59,1.61-3.59,3.59-3.59,3.59,1.61,3.59,3.59Z"/>
          <path class="cls-15" d="M417.48,335.92c0,1.75-1.42,3.16-3.16,3.16s-3.16-1.42-3.16-3.16,1.42-3.16,3.16-3.16,3.16,1.42,3.16,3.16Z"/>
          <path class="cls-15" d="M397.12,397.14c0,3.05-2.48,5.53-5.53,5.53s-5.53-2.48-5.53-5.53,2.48-5.53,5.53-5.53,5.53,2.47,5.53,5.53Z"/>
          <path class="cls-15" d="M188.45,454.41c0,1.72-1.39,3.11-3.11,3.11s-3.11-1.39-3.11-3.11,1.39-3.11,3.11-3.11,3.11,1.39,3.11,3.11Z"/>
          <path class="cls-15" d="M15.05,362.23c0,2.04-1.66,3.7-3.7,3.7s-3.7-1.66-3.7-3.7,1.66-3.7,3.7-3.7,3.7,1.66,3.7,3.7Z"/>
          <path class="cls-15" d="M428.74,185.91c-4.35,2.23-6.15,4.04-8.38,8.38-2.23-4.35-4.04-6.15-8.38-8.38,4.35-2.23,6.15-4.04,8.38-8.38,2.23,4.35,4.04,6.15,8.38,8.38Z"/>
          <path class="cls-15" d="M234.62,480.28c-4.35,2.23-6.15,4.04-8.38,8.38-2.23-4.35-4.04-6.15-8.38-8.38,4.35-2.23,6.15-4.04,8.38-8.38,2.23,4.35,4.04,6.15,8.38,8.38Z"/>
          <path class="cls-15" d="M42.81,398.85c-4.35,2.23-6.15,4.04-8.38,8.38-2.23-4.35-4.04-6.15-8.38-8.38,4.35-2.23,6.15-4.04,8.38-8.38,2.23,4.35,4.04,6.15,8.38,8.38Z"/>
          <path class="cls-15" d="M16.76,167.19c-4.35,2.23-6.15,4.04-8.38,8.38-2.23-4.35-4.04-6.15-8.38-8.38,4.35-2.23,6.15-4.04,8.38-8.38,2.23,4.35,4.04,6.15,8.38,8.38Z"/>
          <path class="cls-15" d="M447.22,381.77c-4.35,2.23-6.15,4.04-8.38,8.38-2.23-4.35-4.04-6.15-8.38-8.38,4.35-2.23,6.15-4.04,8.38-8.38,2.23,4.35,4.04,6.15,8.38,8.38Z"/>
        </g>
        <g>
          <path class="cls-15" d="M364.75,150.52H87.39c-8.25,0-14.95,6.71-14.95,14.95v164.47c0,8.24,6.7,14.95,14.95,14.95h277.36c8.24,0,14.95-6.71,14.95-14.95v-164.47c0-8.24-6.71-14.95-14.95-14.95ZM370.73,329.94c0,3.3-2.69,5.98-5.98,5.98H87.39c-3.3,0-5.98-2.68-5.98-5.98v-164.47c0-3.3,2.68-5.98,5.98-5.98h277.36c3.29,0,5.98,2.68,5.98,5.98v164.47Z"/>
          <path class="cls-25" d="M370.73,165.47v164.47c0,3.3-2.69,5.98-5.98,5.98H87.39c-3.3,0-5.98-2.68-5.98-5.98v-164.47c0-3.3,2.68-5.98,5.98-5.98h277.36c3.29,0,5.98,2.68,5.98,5.98Z"/>
          <path class="cls-15" d="M290.71,250.39c0,17.24-6.77,32.89-17.76,44.45-3.42,3.57-7.24,6.77-11.39,9.49-.46.3-.93.6-1.41.88-4.87,3.04-10.18,5.43-15.82,7.06-.48.15-.96.28-1.45.42-4.11,1.09-8.37,1.79-12.77,2.05-1.28.07-2.56.12-3.87.12s-2.71-.05-4.05-.13c-7.72-.48-15.09-2.32-21.84-5.29-.48-.21-.96-.42-1.44-.64-7.4-3.47-14.03-8.3-19.57-14.16-10.9-11.54-17.57-27.11-17.57-44.24,0-35.62,28.87-64.49,64.47-64.49s64.47,28.87,64.47,64.49Z"/>
          <path class="cls-2" d="M272.95,294.85c-3.42,3.57-7.24,6.77-11.39,9.49-.46.3-.93.6-1.41.88-4.87,3.04-10.18,5.43-15.82,7.06-.48.15-.96.28-1.45.42-4.11,1.09-8.37,1.79-12.77,2.05-1.28.07-2.56.12-3.87.12s-2.71-.05-4.05-.13c-7.72-.48-15.09-2.32-21.84-5.29-.48-.21-.96-.42-1.44-.64-7.4-3.47-14.03-8.3-19.57-14.16,1.99-2.06,4.23-3.75,6.62-4.87l16.28-7.55,3.66-1.69h.02v-.02s1.03-.48,1.03-.48l4.28-1.97,9.66-1.48.73-.79,4.16-4.45v-.24l.28.12.27-.12v.24l4.14,4.45.75.81,9.72,1.5,4.07,1.9,1.17.54h.01l3.57,1.66,16.37,7.58c2.47,1.15,4.78,2.93,6.82,5.08Z"/>
          <polygon class="cls-13" points="237.26 253.51 214.95 253.51 211.06 279.17 241.02 278.67 237.26 253.51"/>
          <path class="cls-19" d="M247.3,233.29c-1.01-7.78,2.59-22.48-6.48-26.08-7.46-2.96-13-2.9-14.77-2.79-1.77-.11-7.31-.17-14.77,2.79-9.08,3.6-5.48,18.3-6.48,26.08-1.01,7.78,3.35,25.29,7.35,31.56,5.08,7.97,22.11,8.1,27.81,0,4.28-6.08,8.36-23.78,7.35-31.56Z"/>
          <polygon class="cls-16" points="224.74 289.01 220.19 285.92 226.05 277.68 232.29 286.18 227.67 289.01 225 289.01 224.74 289.01"/>
          <path class="cls-16" d="M230.12,314.75c-1.29.08-2.57.12-3.87.12s-2.72-.04-4.07-.13l2.5-25.78.19-2.27,1.18-.78v-.12l.09.06.09-.06v.12l1.2.78.19,2.32,2.5,25.75Z"/>
          <path class="cls-19" d="M212.25,240.1c0,3.77-2.42,6.83-5.4,6.83s-4.84-3.1-5.4-6.83c-.65-4.29.37-6.83,3.35-6.83s7.45,3.06,7.45,6.83Z"/>
          <path class="cls-19" d="M239.81,240.1c0,3.77,2.42,6.83,5.4,6.83s4.83-3.1,5.4-6.83c.65-4.29-.36-6.83-3.35-6.83s-7.45,3.06-7.45,6.83Z"/>
          <path class="cls-18" d="M204.24,230.08s.78,6.96,1.24,6.93c.46-.03,1.27,0,1.27,0l3.15-14.63s29.91-2.65,29.91-13.58c0-8.52-25.92-6.71-33.61.98-4.36,4.36-1.95,20.3-1.95,20.3Z"/>
          <path class="cls-18" d="M248.49,230.08s-.78,6.96-1.24,6.93c-.46-.03-1.27,0-1.27,0l-3.67-17.08s-14.71-4.94-14.71-10.87c0-7.03,11.25-6.97,18.94.72,4.36,4.36,1.95,20.3,1.95,20.3Z"/>
          <rect class="cls-1" x="153.55" y="344.89" width="145.03" height="10.72"/>
          <path class="cls-15" d="M379.83,362.83c0,3.99-3.24,7.23-7.23,7.23H79.54c-3.99,0-7.23-3.24-7.23-7.23h0c0-3.99,3.24-7.23,7.23-7.23h293.06c3.99,0,7.23,3.24,7.23,7.23h0Z"/>
          <path class="cls-18" d="M206.96,280.54s-.34.02-.81.12c-.73.15-1.76.52-2.27,1.44-1.09,1.94-2.68,17.03-3.54,27.35-.48-.21-.96-.42-1.44-.64.46-5.52,1.94-22.04,3.33-26.58.12-.37.22-.67.34-.87,1.27-2.21,4.23-2.3,4.35-2.3v.06l.02.93v.51Z"/>
          <path class="cls-18" d="M250.05,294.73c-.12-2.76-.71-10.41-1.98-12.64-.83-1.46-3.06-1.55-3.08-1.55l.03-1.5c.13,0,3.09.09,4.35,2.31,1.71,3,2.15,12.9,2.17,13.32l-1.5.06Z"/>
          <path class="cls-18" d="M261.37,302.64c-.51-5.05-4.8-8.85-9.87-8.72-.25,0-.51,0-.78.03-.24.03-.48.06-.7.11-2.3.4-4.37,1.6-5.85,3.44-1.64,2-2.39,4.53-2.14,7.12l.84,8.09c.49-.13.97-.27,1.45-.42l-.79-7.82c-.22-2.18.42-4.32,1.79-6.03,1.39-1.7,3.36-2.77,5.55-2.99.28-.03.57-.04.85-.04,4.22,0,7.73,3.17,8.16,7.39l.25,2.44c.48-.28.94-.58,1.41-.88l-.18-1.7Z"/>
          <polygon class="cls-24" points="205.91 280.53 212.19 271.75 226.05 277.68 221.58 289.01 205.91 280.53"/>
          <polygon class="cls-24" points="246.18 280.53 239.91 271.75 226.05 277.68 230.51 289.01 246.18 280.53"/>
          <rect class="cls-15" x="100.14" y="177.93" width="8.72" height="26.46"/>
          <rect class="cls-15" x="91.27" y="186.8" width="26.46" height="8.72"/>
          <rect class="cls-15" x="128.86" y="177.93" width="49.71" height="3.61"/>
          <rect class="cls-15" x="201.38" y="319.91" width="49.71" height="3.61"/>
          <rect class="cls-15" x="212.58" y="326.45" width="26.91" height="3.61"/>
          <rect class="cls-15" x="128.86" y="185.91" width="26.91" height="3.86"/>
          <polyline class="cls-12" points="358.28 185.91 351.56 185.91 347.57 200.6 340.43 185.91 334.11 194.29 324.64 178.67 311.93 199.11 304.21 183.16 296.7 191.38 290.71 173.88 285.11 186.96 276.14 186.96"/>
          <g class="cls-10">
            <rect class="cls-11" x="95.91" y="269.88" width="8.6" height="51.83"/>
            <rect class="cls-11" x="121.82" y="303.31" width="8.6" height="18.41"/>
            <rect class="cls-11" x="108.86" y="290.07" width="8.6" height="31.65"/>
            <rect class="cls-11" x="147.8" y="273.49" width="8.6" height="48.22"/>
            <rect class="cls-11" x="134.72" y="290.07" width="8.6" height="31.65"/>
          </g>
          <polygon class="cls-8" points="281.81 317.23 304.73 292.98 326.16 317.23 281.81 317.23"/>
          <polygon class="cls-8" points="310.71 317.23 333.64 303.31 355.07 317.23 310.71 317.23"/>
          <path class="cls-12" d="M298.59,350.25h72.52c8.26,0,14.12,5.87,14.12,13.11s-5.86,13.11-14.12,13.11h-13.57c-2.48,0-4.49,2.01-4.49,4.49v17.23c0,2.48,1.42,5.91,3.17,7.66l22.43,23.74c1.75,1.75,5.18,3.17,7.66,3.17h21.35c4.13,0,7.48,3.35,7.48,7.48v17.65"/>
          <path class="cls-15" d="M428.65,477.21c0,7.43-6.02,13.46-13.46,13.46h0c-7.43,0-13.46-6.02-13.46-13.46v-20.75c0-7.43,6.02-13.46,13.46-13.46h0c7.43,0,13.46,6.02,13.46,13.46v20.75Z"/>
          <path class="cls-1" d="M417.25,455.92c0,1.08-.88,1.96-1.96,1.96h0c-1.08,0-1.96-.88-1.96-1.96v-6.37c0-1.08.88-1.96,1.96-1.96h0c1.08,0,1.96.88,1.96,1.96v6.37Z"/>
        </g>
      </g>
    </g>
  </g>
</svg>